<?xml version="1.0" encoding="utf-8"?>
<!-- Generator: Adobe Illustrator 17.0.0, SVG Export Plug-In . SVG Version: 6.00 Build 0)  -->
<!DOCTYPE svg PUBLIC "-//W3C//DTD SVG 1.1//EN" "http://www.w3.org/Graphics/SVG/1.1/DTD/svg11.dtd">
<svg version="1.1" id="Layer_1" xmlns="http://www.w3.org/2000/svg" xmlns:xlink="http://www.w3.org/1999/xlink" x="0px" y="0px"
	 width="401.093px" height="131.25px" viewBox="0 0 401.093 131.25" enable-background="new 0 0 401.093 131.25"
	 xml:space="preserve">
<g>
	<g>
		<path fill="#D01C2F" d="M328.685,35.147c0,39.784,32.238,72.023,72.016,72.023V35.147H328.685z"/>
	</g>
</g>
<g>
	<defs>
		<path id="SVGID_1_" d="M331.1,35.147c0,38.663,31.331,69.999,69.993,69.999V35.147H331.1z"/>
	</defs>
	<clipPath id="SVGID_2_">
		<use xlink:href="#SVGID_1_"  overflow="visible"/>
	</clipPath>
</g>
<g opacity="0.5">
	
		<linearGradient id="SVGID_3_" gradientUnits="userSpaceOnUse" x1="840.2998" y1="-103.3169" x2="840.2998" y2="-6.4253" gradientTransform="matrix(0 -1 1 0 410.6219 910.4468)">
		<stop  offset="0" style="stop-color:#FFFFFF"/>
		<stop  offset="0.0895" style="stop-color:#F8F8F8"/>
		<stop  offset="0.2165" style="stop-color:#E6E6E6"/>
		<stop  offset="0.3661" style="stop-color:#C7C7C7"/>
		<stop  offset="0.5328" style="stop-color:#9C9C9C"/>
		<stop  offset="0.7137" style="stop-color:#666666"/>
		<stop  offset="0.9036" style="stop-color:#242424"/>
		<stop  offset="1" style="stop-color:#000000"/>
	</linearGradient>
	<path fill="url(#SVGID_3_)" d="M332.088,46.854c5.577,33.086,34.339,58.293,69.005,58.293V35.147h-58.247
		C342.846,41.307,338.114,46.348,332.088,46.854z"/>
</g>
<g>
	<g>
		<path fill="#FFFFFF" d="M378.401,54.32l-2.202-9.832h2.115l0.7,4.245c0.175,1.05,0.379,2.261,0.511,3.413h0.029
			c0.131-1.167,0.291-2.349,0.467-3.457l0.671-4.201h2.101l-2.247,9.832H378.401z"/>
		<path fill="#FFFFFF" d="M384.953,52.074l-0.438,2.246h-1.853l2.129-9.832h2.291l1.91,9.832h-1.853l-0.423-2.246H384.953z
			 M386.543,50.586l-0.321-2.057c-0.102-0.599-0.233-1.575-0.32-2.232h-0.044c-0.103,0.657-0.248,1.678-0.351,2.247l-0.364,2.042
			H386.543z"/>
	</g>
</g>
<g>
	<path fill="#FFFFFF" d="M355.971,48.295h-0.062l-3.409,1.767l-0.682-3.192l4.617-2.386H360v20.144h-4.029V48.295z"/>
	<path fill="#FFFFFF" d="M374.256,44.483v2.665l-6.322,17.479h-3.967l6.198-16.518v-0.063h-6.88v-3.563H374.256z"/>
</g>
<g>
	<g>
		<path fill="#FFFFFF" d="M357.128,73.324h-2.082v2.461h2.353v1.541h-4.123v-9.112h3.961v1.542h-2.19v2.095h2.082V73.324z"/>
		<path fill="#FFFFFF" d="M358.602,68.349c0.446-0.108,1.095-0.176,1.798-0.176c1.149,0,1.947,0.271,2.528,0.811
			c0.784,0.703,1.189,1.906,1.189,3.678c0,1.839-0.473,3.15-1.271,3.853c-0.608,0.595-1.515,0.879-2.785,0.879
			c-0.555,0-1.108-0.054-1.46-0.095V68.349z M360.372,75.919c0.082,0.027,0.217,0.027,0.312,0.027c0.852,0,1.595-0.838,1.595-3.353
			c0-1.866-0.486-3.002-1.555-3.002c-0.121,0-0.243,0-0.352,0.041V75.919z"/>
		<path fill="#FFFFFF" d="M367.01,68.213v9.112h-1.771v-9.112H367.01z"/>
		<path fill="#FFFFFF" d="M372.957,77.191c-0.257,0.121-0.757,0.216-1.379,0.216c-2.325,0-3.434-1.92-3.434-4.502
			c0-3.434,1.906-4.772,3.678-4.772c0.621,0,1.054,0.122,1.229,0.243l-0.297,1.487c-0.203-0.095-0.433-0.176-0.825-0.176
			c-1,0-1.906,0.865-1.906,3.123c0,2.177,0.825,3.028,1.906,3.028c0.298,0,0.636-0.067,0.853-0.135L372.957,77.191z"/>
		<path fill="#FFFFFF" d="M375.701,68.213v9.112h-1.771v-9.112H375.701z"/>
		<path fill="#FFFFFF" d="M382.664,72.608c0,3.434-1.217,4.826-2.947,4.826c-2.068,0-2.88-2.19-2.88-4.691
			c0-2.487,0.987-4.637,3.001-4.637C382.042,68.106,382.664,70.526,382.664,72.608z M378.676,72.77c0,2.068,0.392,3.123,1.108,3.123
			c0.743,0,1.027-1.353,1.027-3.204c0-1.596-0.243-3.042-1.041-3.042C379.067,69.647,378.676,70.809,378.676,72.77z M381.907,66.2
			l-1.649,1.527H379l1.108-1.527H381.907z"/>
		<path fill="#FFFFFF" d="M383.785,77.326v-9.112h1.622l1.406,3.569c0.271,0.703,0.717,1.879,0.974,2.663h0.026
			c-0.054-0.96-0.176-2.541-0.176-4.218v-2.015h1.555v9.112h-1.622l-1.393-3.461c-0.297-0.771-0.716-1.92-0.919-2.744h-0.027
			c0.041,0.919,0.108,2.325,0.108,4.15v2.055H383.785z"/>
	</g>
</g>
<g>
	<g>
		<path fill="#D01C2F" d="M1.289,109.194c1.083-0.263,2.659-0.427,4.365-0.427c2.79,0,4.727,0.657,6.138,1.97
			c1.904,1.707,2.889,4.628,2.889,8.928c0,4.464-1.148,7.647-3.085,9.354c-1.478,1.444-3.677,2.134-6.762,2.134
			c-1.346,0-2.691-0.131-3.545-0.229V109.194z M5.589,127.575c0.197,0.065,0.525,0.065,0.755,0.065c2.068,0,3.873-2.035,3.873-8.14
			c0-4.529-1.182-7.287-3.774-7.287c-0.295,0-0.591,0-0.854,0.099V127.575z"/>
		<path fill="#D01C2F" d="M26.761,121.273h-5.055v5.974h5.711v3.741H17.406v-22.122h9.617v3.742h-5.317v5.087h5.055V121.273z"/>
		<path fill="#D01C2F" d="M30.34,108.866h4.3v18.479h5.679v3.644H30.34V108.866z"/>
		<path fill="#D01C2F" d="M52.004,113.691h-0.065l-3.61,1.871l-0.723-3.381l4.891-2.527h3.774v21.334h-4.267V113.691z"/>
		<path fill="#D01C2F" d="M70.747,125.933l-0.985,5.055h-4.168l4.792-22.122h5.153l4.299,22.122H75.67l-0.952-5.055H70.747z
			 M74.324,122.585l-0.722-4.628c-0.23-1.346-0.525-3.545-0.723-5.021h-0.099c-0.229,1.477-0.558,3.774-0.787,5.055l-0.821,4.595
			H74.324z"/>
		<path fill="#D01C2F" d="M82.269,108.866h4.3v18.479h5.679v3.644h-9.979V108.866z"/>
		<path fill="#D01C2F" d="M105.738,130.988v-5.087h-7.319v-2.954l6.99-13.293h4.136v12.801h2.134v3.446h-2.134v5.087H105.738z
			 M105.738,122.455v-4.365c0-1.149,0.131-2.396,0.229-3.513h-0.132c-0.492,1.182-0.919,2.134-1.477,3.315l-2.298,4.496v0.066
			H105.738z"/>
		<path fill="#D01C2F" d="M119.163,109.194c1.083-0.263,2.659-0.427,4.365-0.427c2.79,0,4.727,0.657,6.138,1.97
			c1.904,1.707,2.889,4.628,2.889,8.928c0,4.464-1.148,7.647-3.085,9.354c-1.478,1.444-3.677,2.134-6.762,2.134
			c-1.346,0-2.691-0.131-3.545-0.229V109.194z M123.463,127.575c0.197,0.065,0.525,0.065,0.755,0.065
			c2.068,0,3.873-2.035,3.873-8.14c0-4.529-1.182-7.287-3.774-7.287c-0.295,0-0.591,0-0.854,0.099V127.575z"/>
		<path fill="#D01C2F" d="M144.635,121.273h-5.055v5.974h5.711v3.741H135.28v-22.122h9.617v3.742h-5.317v5.087h5.055V121.273z"/>
		<path fill="#D01C2F" d="M153.433,109.194c1.083-0.263,2.659-0.427,4.365-0.427c2.79,0,4.727,0.657,6.138,1.97
			c1.904,1.707,2.889,4.628,2.889,8.928c0,4.464-1.148,7.647-3.085,9.354c-1.478,1.444-3.677,2.134-6.762,2.134
			c-1.346,0-2.691-0.131-3.545-0.229V109.194z M157.732,127.575c0.197,0.065,0.525,0.065,0.755,0.065
			c2.068,0,3.873-2.035,3.873-8.14c0-4.529-1.182-7.287-3.774-7.287c-0.295,0-0.591,0-0.854,0.099V127.575z"/>
		<path fill="#D01C2F" d="M173.85,108.866v22.122h-4.3v-22.122H173.85z"/>
		<path fill="#D01C2F" d="M188.292,130.66c-0.623,0.295-1.838,0.525-3.348,0.525c-5.646,0-8.337-4.661-8.337-10.93
			c0-8.337,4.628-11.586,8.928-11.586c1.51,0,2.561,0.295,2.986,0.591l-0.722,3.61c-0.492-0.23-1.05-0.427-2.002-0.427
			c-2.429,0-4.628,2.101-4.628,7.581c0,5.285,2.002,7.353,4.628,7.353c0.722,0,1.543-0.164,2.067-0.328L188.292,130.66z"/>
		<path fill="#D01C2F" d="M194.956,108.866v22.122h-4.3v-22.122H194.956z"/>
		<path fill="#D01C2F" d="M208.15,121.273h-5.055v5.974h5.711v3.741h-10.011v-22.122h9.617v3.742h-5.317v5.087h5.055V121.273z"/>
		<path fill="#D01C2F" d="M225.252,123.242c-0.098-2.101-0.262-4.956-0.196-7.319h-0.099c-0.394,2.363-0.984,5.088-1.411,6.794
			l-1.904,7.91h-3.052l-1.838-7.778c-0.427-1.772-1.018-4.529-1.346-6.926h-0.099c-0.065,2.396-0.197,5.187-0.328,7.385
			l-0.361,7.681h-3.709l1.608-22.122h4.529l1.772,8.009c0.624,2.79,1.182,5.251,1.575,7.746h0.065
			c0.329-2.462,0.821-4.956,1.412-7.746l1.739-8.009h4.529l1.346,22.122h-3.84L225.252,123.242z"/>
		<path fill="#D01C2F" d="M232.639,109.194c1.313-0.295,3.02-0.427,4.891-0.427c2.068,0,4.07,0.263,5.612,1.576
			c1.182,0.984,1.674,2.461,1.674,4.004c0,1.97-1.017,3.873-3.216,4.825v0.131c2.56,0.722,3.938,2.855,3.938,5.284
			c0,1.838-0.591,3.25-1.642,4.333c-1.313,1.443-3.544,2.231-7.253,2.231c-1.642,0-3.02-0.099-4.005-0.229V109.194z
			 M236.938,117.958h0.919c1.543,0,2.725-1.313,2.725-3.118c0-1.608-0.755-2.855-2.527-2.855c-0.46,0-0.854,0.033-1.116,0.132
			V117.958z M236.938,127.771c0.263,0.066,0.559,0.066,0.952,0.066c1.739,0,3.184-1.051,3.184-3.315c0-2.199-1.51-3.348-3.217-3.381
			h-0.919V127.771z"/>
		<path fill="#D01C2F" d="M248.493,109.194c1.346-0.263,3.053-0.427,4.693-0.427c2.363,0,4.464,0.329,5.908,1.642
			c1.346,1.214,1.739,2.691,1.739,4.595c0,2.363-1.148,4.497-3.413,5.547v0.065c1.51,0.591,2.265,2.003,2.691,4.365
			c0.427,2.462,1.018,5.187,1.411,6.007h-4.496c-0.263-0.624-0.755-2.855-1.083-5.284c-0.395-2.757-1.083-3.545-2.527-3.545h-0.624
			v8.829h-4.3V109.194z M252.793,118.844h0.755c1.871,0,2.954-1.511,2.954-3.446c0-1.871-0.755-3.217-2.691-3.282
			c-0.361,0-0.788,0.032-1.018,0.131V118.844z"/>
		<path fill="#D01C2F" d="M273.275,121.273h-5.055v5.974h5.711v3.741h-10.011v-22.122h9.617v3.742h-5.317v5.087h5.055V121.273z"/>
		<path fill="#D01C2F" d="M280.957,130.988v-2.889l2.133-2.724c2.757-3.512,5.021-6.434,5.021-9.485
			c0-1.707-0.951-2.922-2.724-2.922c-1.346,0-2.429,0.591-3.217,1.084l-0.755-3.349c0.984-0.623,2.823-1.313,4.76-1.313
			c4.66,0,6.17,3.118,6.17,6.171c0,4.004-2.494,7.221-4.956,10.076l-1.28,1.51v0.065h6.532v3.774H280.957z"/>
		<path fill="#D01C2F" d="M307.381,120.222c0,7.647-2.79,11.028-6.236,11.028c-4.661,0-6.236-5.35-6.236-10.831
			c0-6.138,1.97-11.028,6.4-11.028C306.231,109.391,307.381,115.135,307.381,120.222z M299.24,120.321
			c-0.065,4.989,0.559,7.254,2.003,7.254c1.346,0,1.805-2.363,1.805-7.254c0-4.563-0.427-7.254-1.805-7.254
			C299.897,113.067,299.208,115.365,299.24,120.321z"/>
		<path fill="#D01C2F" d="M308.925,130.988v-2.889l2.133-2.724c2.757-3.512,5.021-6.434,5.021-9.485
			c0-1.707-0.951-2.922-2.724-2.922c-1.346,0-2.429,0.591-3.217,1.084l-0.755-3.349c0.984-0.623,2.823-1.313,4.76-1.313
			c4.66,0,6.17,3.118,6.17,6.171c0,4.004-2.494,7.221-4.956,10.076l-1.28,1.51v0.065h6.532v3.774H308.925z"/>
		<path fill="#D01C2F" d="M335.348,120.222c0,7.647-2.79,11.028-6.236,11.028c-4.661,0-6.236-5.35-6.236-10.831
			c0-6.138,1.97-11.028,6.4-11.028C334.198,109.391,335.348,115.135,335.348,120.222z M327.207,120.321
			c-0.065,4.989,0.559,7.254,2.003,7.254c1.346,0,1.805-2.363,1.805-7.254c0-4.563-0.427-7.254-1.805-7.254
			C327.864,113.067,327.175,115.365,327.207,120.321z"/>
	</g>
</g>
<g>
	<g>
		<path fill="#6F7073" d="M12.299,23.215c-0.656,0.311-1.935,0.553-3.523,0.553C2.833,23.768,0,18.862,0,12.264
			C0,3.489,4.871,0.069,9.396,0.069c1.59,0,2.695,0.311,3.144,0.622l-0.76,3.8c-0.518-0.242-1.105-0.449-2.107-0.449
			c-2.556,0-4.871,2.211-4.871,7.98c0,5.562,2.107,7.738,4.871,7.738c0.761,0,1.624-0.173,2.177-0.346L12.299,23.215z"/>
		<path fill="#6F7073" d="M28.123,11.504c0,8.775-3.109,12.333-7.531,12.333c-5.285,0-7.358-5.597-7.358-11.987
			c0-6.356,2.522-11.85,7.67-11.85C26.534,0,28.123,6.184,28.123,11.504z M17.932,11.918c0,5.286,1.002,7.98,2.833,7.98
			c1.9,0,2.626-3.454,2.626-8.187c0-4.077-0.622-7.773-2.66-7.773C18.934,3.938,17.932,6.909,17.932,11.918z"/>
		<path fill="#6F7073" d="M30.994,23.561V0.276h4.146l3.593,9.12c0.69,1.797,1.831,4.802,2.487,6.806h0.068
			C41.15,13.75,40.84,9.708,40.84,5.424V0.276h3.973v23.284h-4.146l-3.559-8.844c-0.76-1.969-1.831-4.905-2.349-7.013H34.69
			c0.104,2.349,0.276,5.942,0.276,10.605v5.251H30.994z"/>
		<path fill="#6F7073" d="M48.305,18.932c0.933,0.518,2.522,0.898,3.835,0.898c2.142,0,3.178-1.105,3.178-2.625
			c0-1.693-1.036-2.522-3.005-3.8c-3.179-1.935-4.388-4.388-4.388-6.495c0-3.73,2.487-6.84,7.358-6.84
			c1.52,0,2.971,0.415,3.662,0.829L58.22,4.802c-0.656-0.415-1.658-0.794-2.971-0.794c-1.936,0-2.868,1.174-2.868,2.418
			c0,1.382,0.691,2.107,3.213,3.627c3.075,1.865,4.215,4.214,4.215,6.667c0,4.249-3.144,7.047-7.704,7.047
			c-1.865,0-3.696-0.483-4.456-0.933L48.305,18.932z"/>
		<path fill="#6F7073" d="M64.958,4.457h-4.111v-4.18h12.782v4.18h-4.146v19.104h-4.525V4.457z"/>
		<path fill="#6F7073" d="M76.016,0.622c1.416-0.276,3.213-0.449,4.939-0.449c2.487,0,4.698,0.346,6.219,1.728
			c1.416,1.278,1.831,2.833,1.831,4.836c0,2.487-1.209,4.733-3.593,5.838v0.069c1.589,0.622,2.384,2.107,2.833,4.595
			c0.448,2.591,1.07,5.458,1.485,6.322h-4.733c-0.276-0.656-0.794-3.005-1.14-5.562c-0.415-2.902-1.14-3.731-2.66-3.731h-0.656
			v9.293h-4.525V0.622z M80.541,10.778h0.794c1.97,0,3.109-1.589,3.109-3.627c0-1.969-0.794-3.386-2.832-3.455
			c-0.381,0-0.83,0.035-1.071,0.138V10.778z"/>
		<path fill="#6F7073" d="M96.642,0.276v15.131c0,3.42,1.037,4.457,2.211,4.457c1.313,0,2.246-0.933,2.246-4.457V0.276h4.525v14.337
			c0,5.977-2.246,9.224-6.736,9.224c-4.871,0-6.771-3.351-6.771-9.189V0.276H96.642z"/>
		<path fill="#6F7073" d="M112.123,23.561v-8.913L107.01,0.276h4.837l1.589,5.562c0.415,1.486,0.864,3.213,1.209,4.94h0.069
			c0.276-1.692,0.656-3.385,1.071-5.043l1.382-5.458h4.698l-5.217,14.199v9.085H112.123z"/>
		<path fill="#6F7073" d="M133.268,13.335h-5.32v6.287h6.011v3.938h-10.536V0.276h10.122v3.938h-5.597v5.354h5.32V13.335z"/>
		<path fill="#6F7073" d="M137.036,23.561V0.276h4.146l3.593,9.12c0.69,1.797,1.831,4.802,2.487,6.806h0.069
			c-0.139-2.453-0.449-6.495-0.449-10.778V0.276h3.973v23.284h-4.146l-3.559-8.844c-0.76-1.969-1.831-4.905-2.349-7.013h-0.069
			c0.104,2.349,0.276,5.942,0.276,10.605v5.251H137.036z"/>
		<path fill="#6F7073" d="M154.865,0.622c1.14-0.276,2.798-0.449,4.595-0.449c2.936,0,4.975,0.691,6.46,2.073
			c2.003,1.796,3.04,4.871,3.04,9.396c0,4.698-1.209,8.049-3.248,9.846c-1.554,1.52-3.869,2.246-7.116,2.246
			c-1.416,0-2.833-0.138-3.73-0.242V0.622z M159.391,19.968c0.207,0.069,0.553,0.069,0.794,0.069c2.177,0,4.077-2.142,4.077-8.567
			c0-4.768-1.244-7.669-3.973-7.669c-0.312,0-0.622,0-0.898,0.104V19.968z"/>
		<path fill="#6F7073" d="M185.579,11.504c0,8.775-3.109,12.333-7.531,12.333c-5.285,0-7.358-5.597-7.358-11.987
			c0-6.356,2.522-11.85,7.67-11.85C183.99,0,185.579,6.184,185.579,11.504z M175.388,11.918c0,5.286,1.002,7.98,2.833,7.98
			c1.9,0,2.626-3.454,2.626-8.187c0-4.077-0.622-7.773-2.66-7.773C176.39,3.938,175.388,6.909,175.388,11.918z"/>
		<path fill="#6F7073" d="M206.863,22.938c-1.002,0.415-3.144,0.829-4.837,0.829c-2.659,0-4.663-0.76-6.218-2.314
			c-2.004-1.935-3.074-5.389-3.006-9.396c0.104-8.464,4.94-11.987,9.881-11.987c1.762,0,3.074,0.346,3.8,0.691l-0.795,3.904
			c-0.656-0.346-1.52-0.519-2.66-0.519c-3.074,0-5.527,2.107-5.527,8.188c0,5.597,2.177,7.6,4.284,7.6
			c0.414,0,0.726-0.035,0.898-0.104v-5.631h-2.073v-3.697h6.253V22.938z"/>
		<path fill="#6F7073" d="M224.001,11.504c0,8.775-3.109,12.333-7.531,12.333c-5.285,0-7.358-5.597-7.358-11.987
			c0-6.356,2.522-11.85,7.67-11.85C222.412,0,224.001,6.184,224.001,11.504z M213.81,11.918c0,5.286,1.002,7.98,2.833,7.98
			c1.9,0,2.626-3.454,2.626-8.187c0-4.077-0.622-7.773-2.66-7.773C214.812,3.938,213.81,6.909,213.81,11.918z"/>
		<path fill="#6F7073" d="M226.872,0.622c1.382-0.311,3.178-0.449,5.147-0.449c2.176,0,4.283,0.276,5.907,1.658
			c1.243,1.037,1.762,2.591,1.762,4.215c0,2.073-1.071,4.076-3.386,5.078v0.138c2.694,0.76,4.146,3.005,4.146,5.562
			c0,1.935-0.622,3.42-1.728,4.56c-1.382,1.52-3.73,2.349-7.634,2.349c-1.728,0-3.179-0.104-4.215-0.242V0.622z M231.397,9.846
			h0.967c1.624,0,2.867-1.382,2.867-3.282c0-1.693-0.794-3.005-2.659-3.005c-0.484,0-0.898,0.034-1.175,0.138V9.846z
			 M231.397,20.175c0.276,0.069,0.587,0.069,1.002,0.069c1.831,0,3.351-1.105,3.351-3.489c0-2.314-1.589-3.523-3.386-3.558h-0.967
			V20.175z"/>
		<path fill="#6F7073" d="M253.406,13.335h-5.32v6.287h6.011v3.938h-10.536V0.276h10.122v3.938h-5.597v5.354h5.32V13.335z"/>
		<path fill="#6F7073" d="M257.175,0.622c1.416-0.276,3.213-0.449,4.939-0.449c2.487,0,4.698,0.346,6.219,1.728
			c1.416,1.278,1.831,2.833,1.831,4.836c0,2.487-1.209,4.733-3.593,5.838v0.069c1.589,0.622,2.384,2.107,2.832,4.595
			c0.449,2.591,1.071,5.458,1.486,6.322h-4.733c-0.276-0.656-0.794-3.005-1.14-5.562c-0.415-2.902-1.141-3.731-2.66-3.731H261.7
			v9.293h-4.525V0.622z M261.7,10.778h0.795c1.969,0,3.108-1.589,3.108-3.627c0-1.969-0.794-3.386-2.833-3.455
			c-0.38,0-0.828,0.035-1.07,0.138V10.778z"/>
		<path fill="#6F7073" d="M273.414,23.561V0.276h4.146l3.593,9.12c0.69,1.797,1.831,4.802,2.487,6.806h0.068
			c-0.138-2.453-0.448-6.495-0.448-10.778V0.276h3.973v23.284h-4.146l-3.559-8.844c-0.76-1.969-1.831-4.905-2.349-7.013h-0.069
			c0.104,2.349,0.276,5.942,0.276,10.605v5.251H273.414z"/>
		<path fill="#6F7073" d="M294.939,18.24l-1.036,5.32h-4.388l5.044-23.284h5.424l4.525,23.284h-4.388l-1.002-5.32H294.939z
			 M298.705,14.717l-0.761-4.871c-0.241-1.416-0.553-3.731-0.76-5.285h-0.104c-0.242,1.554-0.587,3.973-0.829,5.32l-0.863,4.836
			H298.705z"/>
		<path fill="#6F7073" d="M307.068,0.622c1.382-0.311,3.178-0.449,5.147-0.449c2.176,0,4.283,0.276,5.907,1.658
			c1.243,1.037,1.762,2.591,1.762,4.215c0,2.073-1.071,4.076-3.386,5.078v0.138c2.694,0.76,4.146,3.005,4.146,5.562
			c0,1.935-0.622,3.42-1.728,4.56c-1.382,1.52-3.73,2.349-7.635,2.349c-1.727,0-3.178-0.104-4.214-0.242V0.622z M311.594,9.846
			h0.967c1.624,0,2.868-1.382,2.868-3.282c0-1.693-0.795-3.005-2.66-3.005c-0.484,0-0.898,0.034-1.175,0.138V9.846z M311.594,20.175
			c0.276,0.069,0.587,0.069,1.002,0.069c1.831,0,3.351-1.105,3.351-3.489c0-2.314-1.589-3.523-3.386-3.558h-0.967V20.175z"/>
		<path fill="#6F7073" d="M328.282,0.276v23.284h-4.525V0.276H328.282z"/>
		<path fill="#6F7073" d="M332.325,0.276h4.525v19.45h5.977v3.834h-10.502V0.276z"/>
		<path fill="#6F7073" d="M349.98,0.276v23.284h-4.525V0.276H349.98z"/>
		<path fill="#6F7073" d="M354.023,0.622c1.14-0.276,2.798-0.449,4.595-0.449c2.936,0,4.975,0.691,6.46,2.073
			c2.003,1.796,3.04,4.871,3.04,9.396c0,4.698-1.209,8.049-3.248,9.846c-1.554,1.52-3.869,2.246-7.116,2.246
			c-1.416,0-2.833-0.138-3.73-0.242V0.622z M358.549,19.968c0.207,0.069,0.553,0.069,0.794,0.069c2.177,0,4.077-2.142,4.077-8.567
			c0-4.768-1.244-7.669-3.973-7.669c-0.312,0-0.622,0-0.898,0.104V19.968z"/>
		<path fill="#6F7073" d="M374.133,18.24l-1.036,5.32h-4.388l5.044-23.284h5.424l4.525,23.284h-4.388l-1.002-5.32H374.133z
			 M377.898,14.717l-0.761-4.871c-0.241-1.416-0.553-3.731-0.76-5.285h-0.104c-0.242,1.554-0.587,3.973-0.829,5.32l-0.863,4.836
			H377.898z"/>
		<path fill="#6F7073" d="M386.262,0.622c1.14-0.276,2.798-0.449,4.595-0.449c2.936,0,4.975,0.691,6.46,2.073
			c2.003,1.796,3.04,4.871,3.04,9.396c0,4.698-1.209,8.049-3.248,9.846c-1.554,1.52-3.869,2.246-7.116,2.246
			c-1.416,0-2.833-0.138-3.73-0.242V0.622z M390.787,19.968c0.207,0.069,0.553,0.069,0.794,0.069c2.177,0,4.077-2.142,4.077-8.567
			c0-4.768-1.244-7.669-3.973-7.669c-0.312,0-0.622,0-0.898,0.104V19.968z"/>
		<path fill="#6F7073" d="M1.21,36.764c1.07-0.276,2.349-0.449,3.869-0.449c2.142,0,3.938,0.519,5.146,1.728
			c1.141,1.105,1.728,2.798,1.728,4.802c0,2.142-0.519,3.593-1.416,4.768c-1.278,1.727-3.42,2.591-5.493,2.591
			c-0.449,0-0.795,0-1.175-0.034v9.534H1.21V36.764z M3.869,47.922c0.312,0.069,0.588,0.104,1.037,0.104
			c2.625,0,4.387-1.727,4.387-5.009c0-2.384-1.002-4.525-3.938-4.525c-0.621,0-1.14,0.069-1.485,0.172V47.922z"/>
		<path fill="#6F7073" d="M15.237,52.724l-1.555,6.979h-2.557l5.32-23.284h2.937l5.182,23.284h-2.625l-1.555-6.979H15.237z
			 M20.039,50.582l-1.209-5.907c-0.346-1.658-0.656-3.593-0.933-5.32h-0.139c-0.276,1.762-0.621,3.766-0.933,5.32l-1.209,5.907
			H20.039z"/>
		<path fill="#6F7073" d="M26.882,36.764c1.141-0.311,2.522-0.449,3.835-0.449c2.314,0,4.042,0.484,5.251,1.658
			c1.141,1.175,1.624,2.729,1.624,4.561c0,2.971-1.382,4.905-3.731,5.977v0.068c1.728,0.519,2.626,2.177,3.144,5.217
			c0.519,3.213,1.002,5.182,1.313,5.907h-2.695c-0.345-0.69-0.794-2.901-1.243-5.77c-0.519-3.178-1.521-4.387-3.8-4.387h-1.037
			v10.156h-2.66V36.764z M29.542,47.508h1.105c2.557,0,4.25-1.866,4.25-4.664c0-2.694-1.105-4.353-3.974-4.387
			c-0.518,0-1.036,0.035-1.382,0.138V47.508z"/>
		<path fill="#6F7073" d="M43.433,52.724l-1.555,6.979h-2.557l5.32-23.284h2.937l5.182,23.284h-2.625l-1.555-6.979H43.433z
			 M48.234,50.582l-1.209-5.907c-0.346-1.658-0.656-3.593-0.933-5.32h-0.139c-0.276,1.762-0.621,3.766-0.933,5.32l-1.209,5.907
			H48.234z"/>
		<path fill="#6F7073" d="M68.413,48.647h-5.839v8.74h6.633v2.314h-9.292V36.418h8.878v2.315h-6.219v7.669h5.839V48.647z"/>
		<path fill="#6F7073" d="M71.558,36.418h2.66v21.039h6.564v2.245h-9.225V36.418z"/>
		<path fill="#6F7073" d="M90.493,52.724l-1.555,6.979h-2.557l5.32-23.284h2.937l5.182,23.284h-2.625l-1.555-6.979H90.493z
			 M95.295,50.582l-1.209-5.907c-0.346-1.658-0.656-3.593-0.933-5.32h-0.139c-0.276,1.762-0.621,3.766-0.933,5.32l-1.209,5.907
			H95.295z"/>
		<path fill="#6F7073" d="M102.138,36.764c1.14-0.311,2.521-0.449,3.834-0.449c2.314,0,4.042,0.484,5.251,1.658
			c1.14,1.175,1.624,2.729,1.624,4.561c0,2.971-1.382,4.905-3.731,5.977v0.068c1.728,0.519,2.626,2.177,3.144,5.217
			c0.519,3.213,1.002,5.182,1.313,5.907h-2.695c-0.345-0.69-0.794-2.901-1.243-5.77c-0.519-3.178-1.521-4.387-3.8-4.387h-1.037
			v10.156h-2.659V36.764z M104.797,47.508h1.105c2.557,0,4.249-1.866,4.249-4.664c0-2.694-1.105-4.353-3.973-4.387
			c-0.518,0-1.036,0.035-1.382,0.138V47.508z"/>
		<path fill="#6F7073" d="M124.181,48.647h-5.839v8.74h6.633v2.314h-9.292V36.418h8.878v2.315h-6.219v7.669h5.839V48.647z"/>
		<path fill="#6F7073" d="M130.125,52.724l-1.555,6.979h-2.557l5.32-23.284h2.937l5.182,23.284h-2.625l-1.555-6.979H130.125z
			 M134.927,50.582l-1.209-5.907c-0.346-1.658-0.656-3.593-0.933-5.32h-0.139c-0.276,1.762-0.622,3.766-0.933,5.32l-1.209,5.907
			H134.927z"/>
		<path fill="#6F7073" d="M160.702,49.684c-0.173-3.074-0.346-6.494-0.242-9.12h-0.139c-0.518,2.591-1.14,5.354-1.865,8.084
			l-2.867,10.917h-1.692l-2.729-10.468c-0.76-2.971-1.451-5.839-1.9-8.533h-0.104c0,2.729-0.138,5.977-0.276,9.293l-0.449,9.846
			h-2.384l1.383-23.284h2.867l2.729,10.641c0.795,3.074,1.382,5.354,1.865,8.015h0.104c0.448-2.66,0.967-4.871,1.727-8.015
			l2.626-10.641h2.971l1.348,23.284h-2.487L160.702,49.684z"/>
		<path fill="#6F7073" d="M175.215,48.647h-5.839v8.74h6.633v2.314h-9.293V36.418h8.879v2.315h-6.219v7.669h5.839V48.647z"/>
		<path fill="#6F7073" d="M181.09,38.802h-4.249v-2.384h11.158v2.384h-4.249v20.9h-2.66V38.802z"/>
		<path fill="#6F7073" d="M190.005,36.764c1.14-0.311,2.521-0.449,3.834-0.449c2.314,0,4.042,0.484,5.251,1.658
			c1.14,1.175,1.624,2.729,1.624,4.561c0,2.971-1.382,4.905-3.731,5.977v0.068c1.728,0.519,2.626,2.177,3.144,5.217
			c0.519,3.213,1.002,5.182,1.313,5.907h-2.695c-0.345-0.69-0.794-2.901-1.243-5.77c-0.519-3.178-1.521-4.387-3.8-4.387h-1.037
			v10.156h-2.659V36.764z M192.664,47.508h1.105c2.557,0,4.249-1.866,4.249-4.664c0-2.694-1.105-4.353-3.973-4.387
			c-0.518,0-1.036,0.035-1.382,0.138V47.508z"/>
		<path fill="#6F7073" d="M215.778,47.888c0,8.74-3.005,12.091-6.736,12.091c-3.869,0-6.46-4.111-6.46-11.953
			c0-7.704,2.764-11.884,6.84-11.884C213.395,36.142,215.778,40.46,215.778,47.888z M205.346,48.061
			c0,4.802,0.933,9.568,3.869,9.568c3.006,0,3.8-5.078,3.8-9.638c0-4.353-0.794-9.5-3.834-9.5
			C206.278,38.491,205.346,43.327,205.346,48.061z"/>
		<path fill="#6F7073" d="M218.372,36.764c1.071-0.276,2.35-0.449,3.869-0.449c2.143,0,3.938,0.519,5.147,1.728
			c1.141,1.105,1.728,2.798,1.728,4.802c0,2.142-0.518,3.593-1.416,4.768c-1.278,1.727-3.42,2.591-5.493,2.591
			c-0.449,0-0.794,0-1.175-0.034v9.534h-2.66V36.764z M221.032,47.922c0.312,0.069,0.588,0.104,1.037,0.104
			c2.625,0,4.387-1.727,4.387-5.009c0-2.384-1.002-4.525-3.938-4.525c-0.622,0-1.141,0.069-1.486,0.172V47.922z"/>
		<path fill="#6F7073" d="M243.801,47.888c0,8.74-3.005,12.091-6.736,12.091c-3.869,0-6.46-4.111-6.46-11.953
			c0-7.704,2.764-11.884,6.84-11.884C241.417,36.142,243.801,40.46,243.801,47.888z M233.368,48.061
			c0,4.802,0.933,9.568,3.869,9.568c3.006,0,3.8-5.078,3.8-9.638c0-4.353-0.794-9.5-3.834-9.5
			C234.301,38.491,233.368,43.327,233.368,48.061z"/>
		<path fill="#6F7073" d="M246.396,36.418h2.659v21.039h6.564v2.245h-9.224V36.418z"/>
		<path fill="#6F7073" d="M260.353,36.418v23.284h-2.66V36.418H260.353z"/>
		<path fill="#6F7073" d="M266.711,38.802h-4.249v-2.384h11.158v2.384h-4.249v20.9h-2.66V38.802z"/>
		<path fill="#6F7073" d="M276.869,52.724l-1.555,6.979h-2.557l5.32-23.284h2.937l5.182,23.284h-2.625l-1.555-6.979H276.869z
			 M281.671,50.582l-1.209-5.907c-0.346-1.658-0.656-3.593-0.933-5.32h-0.139c-0.276,1.762-0.622,3.766-0.933,5.32l-1.209,5.907
			H281.671z"/>
		<path fill="#6F7073" d="M288.515,59.702V36.418h2.521l4.283,10.917c0.968,2.487,2.177,5.597,2.972,8.118h0.068
			c-0.207-3.662-0.311-6.668-0.311-10.709v-8.326h2.384v23.284h-2.521l-4.422-11.192c-0.934-2.35-1.936-5.01-2.764-7.912h-0.069
			c0.207,3.109,0.276,6.081,0.276,11.055v8.049H288.515z"/>
		<path fill="#6F7073" d="M306.792,52.724l-1.555,6.979h-2.557l5.32-23.284h2.937l5.182,23.284h-2.625l-1.555-6.979H306.792z
			 M311.594,50.582l-1.209-5.907c-0.346-1.658-0.656-3.593-0.933-5.32h-0.139c-0.276,1.762-0.621,3.766-0.933,5.32l-1.209,5.907
			H311.594z"/>
		<path fill="#6F7073" d="M1.21,72.904c1.036-0.311,2.245-0.449,3.592-0.449c2.453,0,4.181,0.622,5.459,1.762
			c1.796,1.555,3.144,4.561,3.144,9.432c0,5.319-1.313,8.222-2.798,9.811c-1.521,1.728-3.731,2.521-6.426,2.521
			c-1.071,0-2.177-0.068-2.971-0.241V72.904z M3.869,93.666c0.38,0.069,0.761,0.069,1.002,0.069c2.937,0,5.77-2.107,5.77-10.019
			c0-5.872-1.797-9.085-5.527-9.085c-0.415,0-0.898,0.034-1.244,0.138V93.666z"/>
		<path fill="#6F7073" d="M24.496,84.788h-5.839v8.74h6.633v2.314h-9.293V72.558h8.879v2.314h-6.219v7.67h5.839V84.788z"/>
		<path fill="#6F7073" d="M32.479,72.904c1.105-0.276,2.418-0.449,3.903-0.449c2.107,0,3.903,0.449,5.147,1.624
			c1.002,0.933,1.52,2.314,1.52,3.973c0,2.384-1.313,4.283-3.593,5.182v0.069c2.694,0.726,4.318,2.901,4.318,5.941
			c0,1.935-0.622,3.489-1.658,4.63c-1.313,1.485-3.489,2.106-6.149,2.106c-1.727,0-2.764-0.104-3.488-0.241V72.904z M35.139,82.439
			h1.21c2.176,0,4.041-1.658,4.041-4.111c0-2.142-1.002-3.8-3.834-3.8c-0.622,0-1.105,0.068-1.417,0.173V82.439z M35.139,93.735
			c0.312,0.069,0.761,0.139,1.348,0.139c2.764,0,4.56-1.624,4.56-4.63c0-3.213-2.245-4.732-4.732-4.767h-1.175V93.735z"/>
		<path fill="#6F7073" d="M49.029,72.558v15.615c0,4.18,1.382,5.596,3.179,5.596c1.969,0,3.212-1.52,3.212-5.596V72.558h2.66v15.2
			c0,6.046-2.487,8.36-5.941,8.36c-3.489,0-5.77-2.28-5.77-8.049V72.558H49.029z"/>
		<path fill="#6F7073" d="M70.104,84.788h-5.839v8.74h6.633v2.314h-9.292V72.558h8.878v2.314h-6.219v7.67h5.839V84.788z"/>
		<path fill="#6F7073" d="M73.251,95.842V72.558h2.521l4.283,10.917c0.968,2.487,2.177,5.597,2.972,8.118h0.068
			c-0.207-3.662-0.311-6.668-0.311-10.709v-8.326h2.384v23.284h-2.521L78.226,84.65c-0.934-2.35-1.936-5.01-2.764-7.911h-0.069
			c0.207,3.108,0.276,6.08,0.276,11.055v8.049H73.251z"/>
		<path fill="#6F7073" d="M100.959,84.028c0,8.74-3.005,12.091-6.736,12.091c-3.869,0-6.46-4.111-6.46-11.953
			c0-7.703,2.764-11.884,6.84-11.884C98.575,72.282,100.959,76.6,100.959,84.028z M90.526,84.201c0,4.802,0.933,9.568,3.869,9.568
			c3.006,0,3.8-5.078,3.8-9.638c0-4.353-0.794-9.5-3.834-9.5C91.459,74.631,90.526,79.467,90.526,84.201z"/>
		<path fill="#6F7073" d="M103.035,92.768c0.794,0.518,2.177,0.933,3.351,0.933c2.418,0,3.869-1.59,3.869-3.938
			c0-2.142-1.243-3.454-3.074-4.837c-1.831-1.277-4.388-3.454-4.388-6.46c0-3.523,2.453-6.114,6.149-6.114
			c1.451,0,2.729,0.449,3.282,0.863l-0.657,2.28c-0.587-0.414-1.554-0.794-2.764-0.794c-2.279,0-3.351,1.727-3.351,3.316
			c0,2.314,1.209,3.212,3.42,4.802c2.799,1.969,4.042,4.11,4.042,6.701c0,4.008-2.833,6.529-6.529,6.529
			c-1.589,0-3.281-0.518-3.938-1.002L103.035,92.768z"/>
		<path fill="#6F7073" d="M123.075,88.864l-1.555,6.979h-2.557l5.32-23.284h2.937l5.182,23.284h-2.625l-1.555-6.979H123.075z
			 M127.877,86.722l-1.209-5.907c-0.346-1.658-0.656-3.593-0.933-5.32h-0.139c-0.276,1.762-0.621,3.766-0.933,5.32l-1.209,5.907
			H127.877z"/>
		<path fill="#6F7073" d="M137.38,72.558v23.284h-2.66V72.558H137.38z"/>
		<path fill="#6F7073" d="M141.009,72.904c1.14-0.311,2.521-0.449,3.834-0.449c2.314,0,4.042,0.483,5.251,1.658
			c1.14,1.175,1.624,2.729,1.624,4.561c0,2.971-1.382,4.905-3.731,5.977v0.068c1.728,0.519,2.626,2.177,3.144,5.217
			c0.519,3.213,1.002,5.182,1.313,5.907h-2.695c-0.345-0.69-0.794-2.901-1.243-5.77c-0.519-3.178-1.521-4.387-3.8-4.387h-1.037
			v10.156h-2.659V72.904z M143.668,83.648h1.105c2.557,0,4.249-1.866,4.249-4.664c0-2.694-1.105-4.353-3.973-4.388
			c-0.518,0-1.036,0.035-1.382,0.139V83.648z"/>
		<path fill="#6F7073" d="M163.052,84.788h-5.839v8.74h6.633v2.314h-9.292V72.558h8.878v2.314h-6.219v7.67h5.839V84.788z"/>
		<path fill="#6F7073" d="M165.679,92.768c0.795,0.518,2.176,0.933,3.351,0.933c2.419,0,3.869-1.59,3.869-3.938
			c0-2.142-1.243-3.454-3.074-4.837c-1.831-1.277-4.388-3.454-4.388-6.46c0-3.523,2.453-6.114,6.149-6.114
			c1.451,0,2.729,0.449,3.282,0.863l-0.656,2.28c-0.588-0.414-1.555-0.794-2.764-0.794c-2.28,0-3.352,1.727-3.352,3.316
			c0,2.314,1.209,3.212,3.42,4.802c2.799,1.969,4.042,4.11,4.042,6.701c0,4.008-2.833,6.529-6.529,6.529
			c-1.589,0-3.281-0.518-3.938-1.002L165.679,92.768z"/>
		<path fill="#6F7073" d="M188.724,71.937c-1.969,3.108-3.592,7.772-3.592,14.06c0,6.184,1.623,10.848,3.592,13.991h-2.072
			c-1.797-2.625-3.8-7.255-3.8-14.025c0.069-6.771,2.003-11.435,3.8-14.025H188.724z"/>
		<path fill="#6F7073" d="M193.251,88.864l-1.555,6.979h-2.557l5.32-23.284h2.937l5.182,23.284h-2.625l-1.555-6.979H193.251z
			 M198.053,86.722l-1.209-5.907c-0.346-1.658-0.656-3.593-0.933-5.32h-0.139c-0.276,1.762-0.621,3.766-0.933,5.32l-1.209,5.907
			H198.053z"/>
		<path fill="#6F7073" d="M218.749,85.824c-0.172-3.074-0.345-6.494-0.241-9.12h-0.139c-0.518,2.591-1.14,5.354-1.865,8.084
			l-2.867,10.917h-1.692l-2.729-10.468c-0.76-2.971-1.451-5.839-1.9-8.533h-0.104c0,2.729-0.138,5.977-0.276,9.293l-0.449,9.846
			h-2.383l1.381-23.284h2.868l2.729,10.641c0.795,3.074,1.382,5.354,1.866,8.015h0.104c0.449-2.66,0.967-4.871,1.727-8.015
			l2.626-10.641h2.971l1.348,23.284h-2.487L218.749,85.824z"/>
		<path fill="#6F7073" d="M224.765,72.904c1.105-0.276,2.418-0.449,3.903-0.449c2.107,0,3.903,0.449,5.147,1.624
			c1.002,0.933,1.52,2.314,1.52,3.973c0,2.384-1.313,4.283-3.593,5.182v0.069c2.694,0.726,4.318,2.901,4.318,5.941
			c0,1.935-0.622,3.489-1.658,4.63c-1.313,1.485-3.489,2.106-6.149,2.106c-1.727,0-2.764-0.104-3.488-0.241V72.904z M227.424,82.439
			h1.21c2.176,0,4.041-1.658,4.041-4.111c0-2.142-1.002-3.8-3.834-3.8c-0.622,0-1.105,0.068-1.417,0.173V82.439z M227.424,93.735
			c0.312,0.069,0.761,0.139,1.348,0.139c2.764,0,4.56-1.624,4.56-4.63c0-3.213-2.245-4.732-4.732-4.767h-1.175V93.735z"/>
		<path fill="#6F7073" d="M241.349,88.864l-1.555,6.979h-2.557l5.32-23.284h2.937l5.182,23.284h-2.625l-1.555-6.979H241.349z
			 M246.15,86.722l-1.209-5.907c-0.346-1.658-0.656-3.593-0.933-5.32h-0.139c-0.276,1.762-0.621,3.766-0.933,5.32l-1.209,5.907
			H246.15z"/>
		<path fill="#6F7073" d="M251.542,99.988c1.97-3.109,3.593-7.842,3.593-14.061c0-6.218-1.623-10.882-3.593-13.99h2.073
			c1.796,2.556,3.8,7.15,3.8,13.99c-0.069,6.841-2.004,11.4-3.8,14.061H251.542z"/>
	</g>
</g>
</svg>
