<?xml version="1.0" encoding="UTF-8" standalone="no"?>
<!-- Generator: Adobe Illustrator 17.0.0, SVG Export Plug-In . SVG Version: 6.00 Build 0)  -->

<svg
   xmlns:dc="http://purl.org/dc/elements/1.1/"
   xmlns:cc="http://creativecommons.org/ns#"
   xmlns:rdf="http://www.w3.org/1999/02/22-rdf-syntax-ns#"
   xmlns:svg="http://www.w3.org/2000/svg"
   xmlns="http://www.w3.org/2000/svg"
   xmlns:sodipodi="http://sodipodi.sourceforge.net/DTD/sodipodi-0.dtd"
   xmlns:inkscape="http://www.inkscape.org/namespaces/inkscape"
   version="1.1"
   id="Layer_1"
   x="0px"
   y="0px"
   width="680.59125"
   height="262.7576"
   viewBox="0 0 680.59125 262.75759"
   enable-background="new 0 0 676.039 297.686"
   xml:space="preserve"
   sodipodi:docname="logo-navbar.svg"
   inkscape:version="0.92.3 (2405546, 2018-03-11)"><metadata
   id="metadata259"><rdf:RDF><cc:Work
       rdf:about=""><dc:format>image/svg+xml</dc:format><dc:type
         rdf:resource="http://purl.org/dc/dcmitype/StillImage" /><dc:title></dc:title></cc:Work></rdf:RDF></metadata><defs
   id="defs257" /><sodipodi:namedview
   pagecolor="#ffffff"
   bordercolor="#666666"
   borderopacity="1"
   objecttolerance="10"
   gridtolerance="10"
   guidetolerance="10"
   inkscape:pageopacity="0"
   inkscape:pageshadow="2"
   inkscape:window-width="1461"
   inkscape:window-height="480"
   id="namedview255"
   showgrid="false"
   fit-margin-top="0"
   fit-margin-left="0"
   fit-margin-right="0"
   fit-margin-bottom="0"
   inkscape:zoom="0.50588797"
   inkscape:cx="501.04717"
   inkscape:cy="137.64855"
   inkscape:window-x="0"
   inkscape:window-y="0"
   inkscape:window-maximized="0"
   inkscape:current-layer="Layer_1" />

<g
   id="g208"
   transform="matrix(1.4460113,0,0,1.4460113,-183.29182,-240.12166)">
	
	
	
	
	
	
	
	
	
	
	
</g>
<g
   id="g252"
   transform="matrix(1.4460113,0,0,1.4460113,-294.76796,-2.8775625)">
	<g
   id="g250">
		<path
   d="m 292.861,147.829 c 3.221,-1.147 5.675,-2.679 7.367,-4.616 1.688,-1.937 2.531,-4.25 2.531,-6.945 0,-2.312 -0.887,-4.218 -2.652,-5.705 -1.755,-1.489 -4.47,-2.232 -8.125,-2.232 -3.293,0 -6.315,0.723 -9.043,2.168 -2.731,1.461 -5.034,3.355 -6.91,5.726 -1.934,2.415 -3.404,5.079 -4.403,7.983 -1.005,2.91 -1.504,5.976 -1.504,9.172 0,4.623 1.188,8.193 3.562,10.711 2.376,2.521 5.808,3.771 10.301,3.771 3.278,0 6.434,-0.925 9.484,-2.777 3.044,-1.851 5.581,-4.326 7.619,-7.427 l -2.176,-1.594 c -1.875,2.506 -3.792,4.403 -5.734,5.672 -1.936,1.27 -4.18,1.895 -6.719,1.895 -2.86,0 -5.044,-1.059 -6.534,-3.177 -1.481,-2.116 -2.226,-5.183 -2.226,-9.194 2.916,-0.352 5.595,-0.8 7.996,-1.334 2.417,-0.534 4.806,-1.239 7.166,-2.097 z m -14.926,0.73 c 0.677,-4.997 2.313,-9.157 4.886,-12.505 2.58,-3.352 5.393,-5.02 8.438,-5.02 0.538,0 1.054,0.043 1.563,0.115 0.508,0.073 0.983,0.266 1.442,0.566 0.436,0.285 0.786,0.706 1.073,1.274 0.276,0.58 0.412,1.352 0.412,2.342 0,2.358 -0.512,4.39 -1.535,6.092 -1.037,1.716 -2.605,3.118 -4.706,4.208 -1.47,0.755 -3.328,1.368 -5.56,1.841 -2.237,0.461 -4.249,0.824 -6.013,1.087 z"
   id="path210"
   inkscape:connector-curvature="0" />
		<path
   d="m 333.691,129.589 h -10.612 l 2.58,-11.16 h -6.85 l -2.656,11.16 h -6.951 l -0.808,3.466 h 6.819 l -7.699,33.086 c -0.039,0.222 -0.078,0.428 -0.118,0.623 l 7.507,0.027 c 0,-0.636 0.076,-1.411 0.224,-2.313 0.152,-0.893 0.347,-1.823 0.569,-2.794 l 6.682,-28.629 h 10.503 z"
   id="path212"
   inkscape:connector-curvature="0" />
		<path
   d="M 560.372,129.589 H 549.77 l 2.57,-11.16 h -6.847 l -2.66,11.16 h -6.948 l -0.797,3.466 h 6.812 l -7.701,33.086 c -0.044,0.222 -0.072,0.428 -0.111,0.623 l 7.502,0.027 c 0,-0.636 0.072,-1.411 0.22,-2.313 0.161,-0.893 0.346,-1.823 0.571,-2.794 l 6.677,-28.629 h 10.518 z"
   id="path214"
   inkscape:connector-curvature="0" />
		<path
   d="m 360.397,129.661 c -0.53,-0.472 -1.18,-0.824 -1.936,-1.034 -0.768,-0.194 -1.55,-0.295 -2.375,-0.295 -1.694,0 -3.316,0.527 -4.881,1.561 -1.564,1.043 -3.857,2.869 -6.878,5.492 h -0.184 l 1.283,-5.561 -0.464,-0.565 -6.61,0.455 -2.224,9.62 -0.015,0.008 c -0.238,1.222 -0.419,2.146 -0.548,2.751 l -5.557,24.703 h 7.109 l 6.136,-27.292 c 1.421,-1.605 2.757,-2.886 4.004,-3.854 1.249,-0.966 2.381,-1.69 3.36,-2.174 0.986,-0.485 1.831,-0.809 2.525,-0.973 0.701,-0.164 1.206,-0.244 1.511,-0.244 -0.405,0.966 -0.804,1.936 -1.189,2.911 -0.372,0.971 -0.562,1.858 -0.562,2.645 0,0.838 0.344,1.607 1.025,2.291 0.687,0.681 1.711,1.025 3.079,1.025 1.017,0 1.798,-0.183 2.351,-0.556 0.545,-0.363 1.042,-0.893 1.505,-1.575 0.383,-0.56 0.673,-1.265 0.875,-2.114 0.205,-0.847 0.307,-1.624 0.307,-2.335 0,-1.326 -0.141,-2.339 -0.408,-3.03 -0.264,-0.705 -0.677,-1.316 -1.239,-1.86 z"
   id="path216"
   inkscape:connector-curvature="0" />
		<path
   d="m 395.555,132.469 c -2.559,-2.755 -6.097,-4.137 -10.613,-4.137 -3.273,0 -6.316,0.681 -9.127,2.035 -2.795,1.36 -5.157,3.156 -7.052,5.364 -1.888,2.216 -3.385,4.768 -4.5,7.694 -1.118,2.929 -1.673,6.075 -1.673,9.46 0,4.596 1.31,8.249 3.937,10.972 2.629,2.725 6.054,4.086 10.269,4.086 3.624,0 6.821,-0.709 9.567,-2.116 2.762,-1.413 5.119,-3.291 7.069,-5.626 1.932,-2.26 3.399,-4.893 4.417,-7.892 1.02,-2.995 1.525,-5.996 1.525,-8.997 0,-4.47 -1.275,-8.093 -3.819,-10.843 z m -4.826,17.877 c -0.578,2.754 -1.425,5.207 -2.51,7.344 -1.097,2.181 -2.518,3.987 -4.27,5.411 -1.753,1.42 -3.76,2.139 -6.013,2.139 -2.542,0 -4.443,-0.928 -5.694,-2.805 -1.256,-1.871 -1.883,-4.621 -1.883,-8.251 0,-2.295 0.234,-4.791 0.719,-7.497 0.486,-2.703 1.243,-5.161 2.292,-7.37 1.341,-2.934 2.944,-5.037 4.815,-6.33 1.865,-1.305 3.845,-1.952 5.959,-1.952 2.412,0 4.257,0.905 5.538,2.713 1.289,1.803 1.922,4.505 1.922,8.123 0,2.885 -0.29,5.714 -0.875,8.475 z"
   id="path218"
   inkscape:connector-curvature="0" />
		<path
   d="m 468.046,128.332 c -3.274,0 -6.308,0.681 -9.117,2.035 -2.807,1.36 -5.16,3.156 -7.065,5.364 -1.877,2.216 -3.377,4.768 -4.497,7.694 -1.117,2.929 -1.671,6.075 -1.671,9.46 0,4.596 1.315,8.249 3.941,10.972 2.627,2.725 6.048,4.086 10.263,4.086 3.628,0 6.817,-0.709 9.577,-2.116 2.755,-1.413 5.112,-3.291 7.072,-5.626 1.922,-2.26 3.402,-4.893 4.409,-7.892 1.013,-2.995 1.526,-5.996 1.526,-8.997 0,-4.47 -1.271,-8.093 -3.826,-10.843 -2.548,-2.755 -6.093,-4.137 -10.612,-4.137 z m 5.787,22.014 c -0.577,2.754 -1.414,5.207 -2.51,7.344 -1.081,2.181 -2.507,3.987 -4.273,5.411 -1.74,1.42 -3.752,2.139 -6.014,2.139 -2.525,0 -4.424,-0.928 -5.688,-2.805 -1.253,-1.871 -1.883,-4.621 -1.883,-8.251 0,-2.295 0.241,-4.791 0.72,-7.497 0.487,-2.703 1.253,-5.161 2.282,-7.37 1.353,-2.934 2.957,-5.037 4.823,-6.33 1.862,-1.305 3.857,-1.952 5.96,-1.952 2.409,0 4.256,0.905 5.544,2.713 1.283,1.803 1.92,4.505 1.92,8.123 0.002,2.885 -0.291,5.714 -0.881,8.475 z"
   id="path220"
   inkscape:connector-curvature="0" />
		<path
   d="m 660.076,128.332 c -3.274,0 -6.31,0.681 -9.113,2.035 -2.815,1.36 -5.161,3.156 -7.068,5.364 -1.875,2.216 -3.381,4.768 -4.496,7.694 -1.116,2.929 -1.673,6.075 -1.673,9.46 0,4.596 1.313,8.249 3.945,10.972 2.625,2.725 6.05,4.086 10.264,4.086 3.63,0 6.815,-0.709 9.578,-2.116 2.751,-1.413 5.111,-3.291 7.067,-5.626 1.922,-2.26 3.399,-4.893 4.406,-7.892 1.02,-2.995 1.531,-5.996 1.531,-8.997 0,-4.47 -1.276,-8.093 -3.826,-10.843 -2.552,-2.755 -6.09,-4.137 -10.615,-4.137 z m 5.788,22.014 c -0.579,2.754 -1.413,5.207 -2.505,7.344 -1.096,2.181 -2.516,3.987 -4.271,5.411 -1.747,1.42 -3.757,2.139 -6.013,2.139 -2.537,0 -4.434,-0.928 -5.695,-2.805 -1.259,-1.871 -1.887,-4.621 -1.887,-8.251 0,-2.295 0.247,-4.791 0.726,-7.497 0.478,-2.703 1.251,-5.161 2.282,-7.37 1.349,-2.934 2.948,-5.037 4.824,-6.33 1.857,-1.305 3.855,-1.952 5.957,-1.952 2.406,0 4.262,0.905 5.542,2.713 1.279,1.803 1.923,4.505 1.923,8.123 0.001,2.885 -0.294,5.714 -0.883,8.475 z"
   id="path222"
   inkscape:connector-curvature="0" />
		<path
   d="m 493.382,108.68 -0.543,2.33 c 0.836,0.095 1.674,0.19 2.487,0.263 0.821,0.078 1.496,0.23 2.036,0.454 0.562,0.251 0.988,0.63 1.296,1.125 0.307,0.503 0.461,1.199 0.461,2.122 0,0.449 -0.028,0.836 -0.094,1.136 -0.069,0.311 -0.188,0.853 -0.367,1.638 l -10.913,47.379 c -0.114,0.542 -0.213,1.146 -0.309,1.589 l 7.258,0.049 c 0,-0.601 0.106,-1.391 0.308,-2.361 0.203,-0.955 0.411,-1.92 0.646,-2.888 l 12.284,-53.102 -0.384,-0.569 z"
   id="path224"
   inkscape:connector-curvature="0" />
		<path
   d="m 512.341,129.628 -0.527,2.318 c 0.834,0.102 1.668,0.192 2.484,0.263 0.818,0.077 1.49,0.235 2.033,0.463 0.555,0.248 0.99,0.628 1.302,1.113 0.297,0.505 0.458,1.205 0.458,2.123 0,0.459 -0.035,0.844 -0.106,1.143 -0.061,0.308 -0.179,0.859 -0.352,1.646 l -6.43,26.43 c -0.121,0.542 -0.223,1.146 -0.305,1.589 l 7.243,0.049 c 0,-0.601 0.112,-1.391 0.317,-2.361 0.193,-0.955 0.413,-1.92 0.65,-2.888 l 7.794,-32.163 -0.393,-0.562 z"
   id="path226"
   inkscape:connector-curvature="0" />
		<path
   d="m 595.182,128.901 -6.988,1.791 c -0.939,-0.604 -2.231,-1.155 -3.864,-1.638 -1.635,-0.482 -3.355,-0.723 -5.163,-0.723 -2.831,0 -5.603,0.698 -8.287,2.077 -2.698,1.391 -5.016,3.208 -6.961,5.468 -2.057,2.369 -3.681,5.034 -4.842,8.011 -1.169,2.972 -1.745,6.033 -1.745,9.185 0,4.57 1.049,8.183 3.127,10.827 2.096,2.639 4.983,3.961 8.656,3.961 1.374,0 2.647,-0.229 3.809,-0.709 1.17,-0.467 2.24,-1.02 3.228,-1.65 1.038,-0.631 1.957,-1.303 2.721,-2.001 0.698,-0.64 1.302,-1.152 1.823,-1.583 l -0.784,3.049 c -0.155,0.63 -0.282,1.224 -0.386,1.739 l 7.614,-0.058 c 0,-0.584 0.106,-1.405 0.318,-2.457 0.211,-1.058 0.438,-1.991 0.66,-2.803 l 2.092,-8.876 v 0 l 5.434,-23.036 z m -18.695,33.491 c -1.559,0.807 -3.057,1.207 -4.473,1.207 -1.394,0 -2.546,-0.264 -3.457,-0.803 -0.917,-0.531 -1.611,-1.281 -2.089,-2.25 -0.504,-0.995 -0.848,-2.082 -1.028,-3.273 -0.18,-1.203 -0.267,-2.574 -0.267,-4.119 0,-2.823 0.411,-5.61 1.259,-8.352 0.834,-2.74 1.915,-5.082 3.236,-7.013 1.4,-2.063 2.973,-3.703 4.723,-4.93 1.749,-1.219 3.549,-1.826 5.412,-1.826 1.344,0 2.463,0.189 3.353,0.57 0.881,0.382 1.588,0.891 2.094,1.526 0.554,0.666 0.929,1.376 1.103,2.14 0.182,0.766 0.266,1.564 0.266,2.403 l -3.606,15.175 -1.401,5.462 c -1.898,1.939 -3.604,3.309 -5.125,4.083 z"
   id="path228"
   inkscape:connector-curvature="0" />
		<path
   d="m 626.107,128.332 c -2.578,0 -4.89,0.542 -6.912,1.622 -2.024,1.073 -4.427,2.734 -7.204,4.975 h -0.114 l 1.183,-5.105 -0.465,-0.565 -6.62,0.455 -2.228,9.662 -0.05,0.058 c -0.241,1.163 -0.422,2.053 -0.55,2.658 l -5.71,24.703 h 7.112 l 6.507,-27.98 c 1.687,-1.932 3.492,-3.404 5.399,-4.422 1.918,-1.018 3.647,-1.531 5.18,-1.531 1.587,0 2.778,0.5 3.589,1.495 0.811,0.985 1.209,2.332 1.209,4.042 0,0.529 -0.085,1.246 -0.242,2.135 -0.161,0.885 -0.401,1.881 -0.681,2.974 l -5.611,21.546 c -0.158,0.643 -0.289,1.222 -0.393,1.742 l 7.41,-0.06 c 0,-0.58 0.104,-1.4 0.321,-2.462 0.221,-1.053 0.441,-1.989 0.675,-2.802 l 5.05,-19.558 c 0.318,-1.148 0.534,-2.312 0.686,-3.475 0.121,-1.172 0.195,-1.986 0.195,-2.445 0,-2.28 -0.678,-4.13 -2.055,-5.545 -1.36,-1.412 -3.256,-2.117 -5.681,-2.117 z"
   id="path230"
   inkscape:connector-curvature="0" />
		<path
   d="m 257.417,112.756 c -0.101,0.377 -0.475,1.262 -1.134,2.634 -0.667,1.363 -1.394,2.695 -2.174,3.988 l -20.999,34.024 -5.891,-40.645 h -18.902 l -0.572,2.515 c 0.936,0.057 1.976,0.232 3.103,0.53 1.138,0.306 2.029,0.821 2.682,1.566 0.339,0.373 0.606,0.845 0.805,1.388 0.204,0.55 0.309,1.221 0.309,2.036 0,0.462 -0.032,0.92 -0.095,1.386 -0.065,0.481 -0.165,1.006 -0.293,1.586 l -6.479,28.023 c -0.116,0.509 -0.23,0.949 -0.336,1.41 l -1.504,6.496 c -0.705,3.198 -1.396,5.544 -2.088,7.1 h 5.843 c -0.064,-0.41 -0.102,-0.851 -0.102,-1.349 0,-0.784 0.102,-1.812 0.313,-3.084 0.202,-1.261 0.452,-2.578 0.759,-3.915 l 2.933,-12.686 h 0.014 l 6.369,-27.596 h 0.397 l 6.777,47.763 h 1.812 l 29.446,-46.809 h 0.438 l -9.373,40.251 c 0,0.021 -0.001,0.027 -0.001,0.044 l -1.649,7.021 c -0.026,0.123 -0.052,0.243 -0.091,0.359 h 7.95 c 0.026,-0.122 0.054,-0.243 0.073,-0.359 l 4.815,-20.675 h 0.009 l 5.772,-24.802 h -0.005 l 1.906,-8.199 h -10.837 z"
   id="path232"
   inkscape:connector-curvature="0" />
		<path
   d="m 428.259,128.332 c -1.96,0 -3.916,0.527 -5.889,1.561 -1.971,1.043 -3.814,2.37 -5.534,3.962 h -0.048 l 0.93,-4.032 -0.452,-0.565 -6.616,0.455 -2.168,9.364 v 0 c -0.01,0.024 -0.012,0.047 -0.012,0.063 l -0.097,0.382 h 0.011 c -0.191,0.82 -0.352,1.754 -0.517,2.562 l -7.624,33.61 h 0.008 l -1.618,7.143 c -0.07,0.309 -0.167,0.592 -0.257,0.865 h 7.382 c 0.008,-0.32 0.051,-0.732 0.133,-1.246 0.089,-0.563 0.22,-1.162 0.363,-1.799 l 1.104,-4.963 h 0.021 c 0.041,-0.241 0.082,-0.457 0.136,-0.712 l 2.226,-9.974 c 1.091,0.787 2.333,1.445 3.721,1.975 1.4,0.539 3.186,0.805 5.367,0.805 2.716,0 5.356,-0.589 7.934,-1.791 2.577,-1.186 4.972,-3.021 7.173,-5.486 1.978,-2.241 3.558,-4.888 4.749,-7.932 1.199,-3.053 1.795,-6.278 1.795,-9.68 0,-4.449 -1.07,-7.991 -3.218,-10.623 -2.146,-2.631 -5.146,-3.944 -9.003,-3.944 z m 3.329,23.2 c -0.703,2.651 -1.694,5.02 -2.997,7.105 -1.242,2.015 -2.735,3.602 -4.486,4.764 -1.748,1.171 -3.625,1.76 -5.626,1.76 -1.955,0 -3.629,-0.628 -5.017,-1.887 -1.373,-1.264 -2.154,-2.616 -2.326,-4.062 l 4.851,-21.614 c 2.035,-1.961 3.758,-3.298 5.161,-4.01 1.41,-0.708 2.695,-1.065 3.871,-1.065 1.575,0 2.843,0.271 3.802,0.821 0.96,0.54 1.727,1.308 2.284,2.302 0.54,0.891 0.922,2.005 1.164,3.378 0.239,1.355 0.362,2.711 0.362,4.06 0,2.974 -0.358,5.792 -1.043,8.448 z"
   id="path234"
   inkscape:connector-curvature="0" />
		<path
   d="m 526.054,109.064 c -1.295,0 -2.413,0.519 -3.354,1.55 -0.925,1.043 -1.407,2.273 -1.407,3.664 0,1.316 0.482,2.496 1.407,3.532 0.94,1.026 2.058,1.539 3.354,1.539 1.404,0 2.568,-0.545 3.505,-1.623 0.942,-1.074 1.409,-2.336 1.409,-3.784 0,-1.306 -0.457,-2.433 -1.368,-3.411 -0.918,-0.977 -2.099,-1.467 -3.546,-1.467 z"
   id="path236"
   inkscape:connector-curvature="0" />
		<g
   id="g248">
			<g
   id="g244">
				<path
   d="m 412.315,30.64 c -0.905,-0.81 -2.013,-1.414 -3.317,-1.76 -1.31,-0.341 -2.647,-0.52 -4.06,-0.52 -2.897,0 -5.687,0.903 -8.362,2.675 -2.679,1.787 -6.598,4.916 -11.786,9.391 h -0.305 l 2.197,-9.51 -0.791,-0.972 -11.322,0.782 -3.809,16.471 -0.026,0.022 c -0.412,2.087 -0.716,3.66 -0.928,4.698 l -9.518,42.3 h 12.166 l 10.504,-46.735 c 2.427,-2.737 4.711,-4.937 6.849,-6.588 2.147,-1.655 4.074,-2.896 5.758,-3.727 1.688,-0.821 3.136,-1.385 4.325,-1.665 1.195,-0.286 2.063,-0.425 2.586,-0.425 -0.699,1.655 -1.382,3.321 -2.035,4.981 -0.642,1.674 -0.963,3.198 -0.963,4.534 0,1.438 0.589,2.753 1.752,3.923 1.181,1.16 2.934,1.752 5.275,1.752 1.742,0 3.079,-0.308 4.012,-0.945 0.941,-0.625 1.796,-1.527 2.585,-2.714 0.663,-0.941 1.159,-2.148 1.506,-3.606 0.347,-1.454 0.519,-2.785 0.519,-4.014 0,-2.256 -0.242,-3.989 -0.698,-5.172 -0.432,-1.197 -1.147,-2.243 -2.114,-3.176 z"
   id="path238"
   inkscape:connector-curvature="0" />
				<path
   d="m 472.254,35.449 c -4.378,-4.723 -10.43,-7.089 -18.164,-7.089 -5.598,0 -10.817,1.159 -15.625,3.488 -4.792,2.33 -8.835,5.398 -12.092,9.179 -3.222,3.784 -5.785,8.172 -7.695,13.188 -1.917,4.997 -2.863,10.403 -2.863,16.181 0,7.881 2.252,14.131 6.748,18.799 4.499,4.661 10.359,6.981 17.579,6.981 6.208,0 11.665,-1.21 16.38,-3.618 4.727,-2.418 8.756,-5.63 12.101,-9.631 3.304,-3.869 5.823,-8.372 7.562,-13.512 1.747,-5.133 2.612,-10.269 2.612,-15.401 0,-7.656 -2.183,-13.848 -6.543,-18.565 z m -8.259,30.607 c -0.995,4.708 -2.44,8.915 -4.297,12.57 -1.876,3.73 -4.314,6.822 -7.318,9.261 -2.991,2.434 -6.435,3.672 -10.287,3.672 -4.351,0 -7.605,-1.605 -9.745,-4.809 -2.153,-3.203 -3.226,-7.914 -3.226,-14.134 0,-3.92 0.396,-8.197 1.231,-12.826 0.825,-4.637 2.128,-8.853 3.923,-12.624 2.288,-5.016 5.048,-8.625 8.245,-10.845 3.186,-2.22 6.585,-3.335 10.204,-3.335 4.115,0 7.281,1.552 9.474,4.644 2.208,3.091 3.297,7.717 3.297,13.907 0,4.943 -0.497,9.793 -1.501,14.519 z"
   id="path240"
   inkscape:connector-curvature="0" />
				<path
   d="m 328.27,28.36 c -5.606,0 -10.801,1.159 -15.612,3.488 -4.815,2.33 -8.832,5.398 -12.094,9.179 -3.215,3.784 -5.789,8.172 -7.701,13.188 -1.908,4.997 -2.864,10.403 -2.864,16.181 0,7.881 2.246,14.131 6.745,18.799 4.501,4.661 10.363,6.981 17.582,6.981 6.207,0 11.673,-1.21 16.396,-3.618 4.709,-2.418 8.759,-5.63 12.099,-9.631 3.295,-3.869 5.827,-8.372 7.557,-13.512 1.734,-5.133 2.612,-10.269 2.612,-15.401 0,-7.655 -2.186,-13.847 -6.553,-18.563 -4.366,-4.725 -10.424,-7.091 -18.167,-7.091 z m 9.908,37.696 c -0.987,4.708 -2.423,8.915 -4.297,12.57 -1.859,3.73 -4.297,6.822 -7.304,9.261 -2.985,2.434 -6.431,3.672 -10.305,3.672 -4.332,0 -7.588,-1.605 -9.74,-4.809 -2.156,-3.203 -3.226,-7.914 -3.226,-14.134 0,-3.92 0.414,-8.197 1.232,-12.826 0.831,-4.637 2.144,-8.853 3.91,-12.624 2.311,-5.016 5.057,-8.625 8.256,-10.845 3.187,-2.22 6.604,-3.335 10.201,-3.335 4.124,0 7.3,1.552 9.492,4.644 2.198,3.091 3.293,7.717 3.293,13.907 10e-4,4.943 -0.504,9.793 -1.512,14.519 z"
   id="path242"
   inkscape:connector-curvature="0" />
			</g>
			<path
   d="m 237.106,15.061 -18.291,79.22 13.884,-0.069 c 0.051,-0.223 0.085,-0.444 0.141,-0.657 l 9.528,-41.244 h 29.139 l 1.861,-8.034 h -29.153 l 8.667,-37.47 h 15.797 c 2.336,0 4.428,0.029 6.215,0.134 1.794,0.076 3.351,0.208 4.705,0.38 2.596,0.388 4.792,2.286 6.6,5.681 1.788,3.408 2.789,7.42 2.944,12.05 h 4.883 L 299.37,1.99 h -72.349 l -1.026,4.279 c 1.247,0.137 2.804,0.422 4.664,0.847 1.861,0.423 3.262,0.919 4.236,1.433 1.033,0.532 1.716,1.101 2.051,1.726 0.311,0.625 0.492,1.386 0.492,2.244 0,0.439 -0.052,0.865 -0.106,1.262 -0.075,0.421 -0.143,0.841 -0.226,1.28 z"
   id="path246"
   inkscape:connector-curvature="0" />
		</g>
	</g>
</g>
</svg>