<?xml version="1.0" encoding="utf-8"?>
<!-- Generator: Adobe Illustrator 17.0.0, SVG Export Plug-In . SVG Version: 6.00 Build 0)  -->
<!DOCTYPE svg PUBLIC "-//W3C//DTD SVG 1.1//EN" "http://www.w3.org/Graphics/SVG/1.1/DTD/svg11.dtd">
<svg version="1.1" id="Layer_1" xmlns="http://www.w3.org/2000/svg" xmlns:xlink="http://www.w3.org/1999/xlink" x="0px" y="0px"
	 width="676.039px" height="297.686px" viewBox="0 0 676.039 297.686" enable-background="new 0 0 676.039 297.686"
	 xml:space="preserve">
<g>
	<path fill="#706F6F" stroke="#FFFFFF" stroke-width="0.5816" stroke-linecap="round" stroke-linejoin="round" d="M157.979,175.975
		c0,0-1.199-1.773-2.133-1.841c-0.953-0.034-1.064,0.307-1.372,0.444c-0.268,0.145-0.641,0.457-0.905,0.145
		c-0.294-0.265-0.631-0.145-0.891-0.201c-0.259-0.026-0.451-0.478-0.808-0.641c-0.378-0.18-0.533-0.226-0.631-0.41
		c-0.095-0.175-0.962,0.077-1.379-0.18c-0.442-0.256-0.735-0.209-0.735-0.209c-1.429,0.103-0.647-0.278-1.544-0.278
		c-0.878,0-0.99-0.26-1.344-0.901c-0.358-0.641-0.577-0.867-0.577-0.867l-3.907-6.723l-0.031-0.081l-2.297,3.088l-3.378,3.96
		l0.067,0.931l-0.51-0.03l-1.662-1.751l-0.559,0.252l10.507,17.291l3.734-2.294l-0.618-0.995l7.879-4.985l-0.372-0.559l3.777-2.371
		l0.017,0.086v-0.013L157.979,175.975z"/>
	<path fill="#706F6F" stroke="#FFFFFF" stroke-width="0.5816" stroke-linecap="round" stroke-linejoin="round" d="M153.654,165.89
		c-0.229-0.44-2.581-2.085-2.581-2.085s-1.614-1.649-1.624-1.811c-0.031-0.205,0.339-0.517,0.339-0.517l-1.624-1.367l-0.23-0.748
		l-0.127-0.201c-0.089,0-0.167,0.021-0.249-0.03c-0.196-0.166-0.667-0.286-1.177-0.137c-0.529,0.163-1.53,0.645-1.53,0.645
		l-2.01,2.969c0,0-0.13,0.026-0.28,0.103c-0.171,0.064-0.071,0.491-0.071,0.491l-1.78,2.422l0,0l1.012-1.393l0.031,0.081
		l3.907,6.723c0,0,0.219,0.226,0.577,0.867c0.355,0.641,0.467,0.901,1.344,0.901c0.897,0,0.115,0.38,1.544,0.278
		c0,0,0.293-0.047,0.735,0.209c0.417,0.256,1.284,0.004,1.379,0.18c0.098,0.184,0.253,0.231,0.631,0.41
		c0.358,0.162,0.55,0.615,0.808,0.641c0.26,0.056,0.597-0.064,0.891,0.201c0.264,0.312,0.637,0,0.905-0.145
		c0.309-0.137,0.42-0.478,1.372-0.444c0.33,0.026,0.722,0.273,1.055,0.589l-0.045-0.752l2.032-2.29
		C158.888,171.682,153.874,166.334,153.654,165.89z"/>
	<g>
		<g>
			<path fill="#171714" stroke="#FFFFFF" stroke-width="0.1551" stroke-linecap="round" stroke-linejoin="round" d="
				M158.002,153.382l0.582-0.325l-0.023-0.15l-0.286-0.299h-0.171l-0.101-0.128c-0.234-0.188-0.497-0.188-0.519-0.188
				c-0.031,0-0.069-0.056-0.069-0.056s0.038,0,0.092,0c0.028,0.021,0.243,0,0.312,0c0.052-0.034,0.23,0,0.362,0.021
				c0.128,0.013,0.184-0.141,0.111-0.231c-0.085-0.103-0.039-0.154-0.085-0.32c-0.026-0.213-0.225-0.218-0.293-0.226
				c-0.07,0-0.07,0.013-0.144,0.013c-0.037,0-0.176-0.013-0.355,0c-0.187,0-0.228,0.213-0.228,0.213s-0.053,0.017-0.065,0
				c0,0,0.012-0.068,0.065-0.111c0.027-0.051-0.176-0.073-0.176-0.073c-0.119,0-0.101,0.073-0.154,0.043
				c-0.098-0.043-0.193,0.03-0.258,0.03c-0.06,0-0.086-0.03-0.042-0.115c0.067-0.09-0.044-0.128-0.044-0.128
				c0.026-0.013,0.056-0.231,0.246-0.098c0.172,0.098,0.661,0.021,0.928-0.098c0.266-0.098,0.173-0.355,0.157-0.427
				c-0.026-0.013-0.075-0.09-0.095-0.453c0-0.397-0.36-0.551-0.36-0.551l-0.458-0.496c0,0-0.021-0.26-0.038-0.619
				c-0.019-0.389-0.422-0.534-0.818-0.927c-0.379-0.414-0.783-0.521-0.944-0.53c-0.159-0.013-0.571,0.359-0.571,0.359l-0.236-0.372
				l-0.051-0.171c0,0-0.253-0.483-0.328-0.543c-0.079-0.064-0.185-0.119-0.185-0.119l-0.037-0.098l1.225-0.312l0.025-0.222
				l-0.632,0.051l0.02-0.218l0.612-0.111l-0.086-0.213l-0.754,0.034l-0.221-0.184l0.899-0.12l-0.296-0.32l-0.944,0.171l-0.316-0.273
				l0.815-0.086l-0.436-0.32l-0.86,0.086l-0.334-0.226l0.796-0.12l-0.699-0.53l-0.846,0.128l-0.324-0.286l0.768-0.077l-0.543-0.41
				l-0.984,0.09l-0.311-0.218l-0.136,0.128c0,0,1.23,0.773,1.28,0.935c0.075,0.171-0.296,0.239-0.296,0.239s-1.079-0.35-1.284-0.854
				c-0.197-0.526-0.558-0.991-0.558-0.991s-0.261,0.449-0.397,0.449c-0.158,0-0.127-0.094-0.127-0.094s0.32-0.389,0.358-0.556
				c0.056-0.166-0.33-0.483-0.555-0.312c-0.229,0.145-0.416,0.128-0.416,0.128c-0.303-0.641-1.384-1.636-1.384-1.636
				s-1.987-0.769-2.301-0.905c-0.309-0.154-0.287-0.534-0.375-1.03c-0.112-0.431-0.598-0.483-0.598-0.483
				c-0.154-0.401-0.402-0.457-0.402-0.457s-0.18,0-0.34,0.077c-0.155,0.034-0.133-0.132-0.133-0.132
				c-0.07-0.308-0.353-0.607-0.561-0.671c-0.219-0.051-0.413,0.12-0.413,0.12s0.332,0.243,0.413,0.29
				c0.08,0.094,0.427,0.337,0.237,0.372c-0.184,0.017-0.624-0.389-0.825-0.449c-0.232-0.068-0.592,0.299-0.592,0.299
				s-0.404-0.239-0.361-0.397c0.027-0.171,0.472-0.397,0.622-0.47c0.164-0.064-0.103-0.769-0.219-0.376
				c-0.107,0.342-0.722,0.833-0.831,0.846c-0.094,0-0.171-0.077-0.171-0.077s0.264-0.278,0.434-0.414
				c0.165-0.119-0.048-0.213-0.065-0.316c-0.019-0.098,0.163-0.231,0.297-0.278c0.123-0.038,0.159-0.256,0.037-0.295
				c-0.136-0.051-0.269-0.145-0.269-0.145l-0.014-0.248c0,0-0.193,0.064-0.249,0c-0.089-0.107-0.213,0-0.213,0
				s-0.111,0.222-0.374,0.581c-0.283,0.363-0.427,0.436-0.427,0.436l-5.468,2.956l-4.633,12.054l0.135,6.847l10.304,9.624
				l3.065-4.118c0,0-0.099-0.427,0.071-0.491c0.15-0.077,0.28-0.103,0.28-0.103l2.01-2.969c0,0,0.567-0.299,1.07-0.508
				c0.017-0.017,0.028-0.038,0.049-0.06c-0.493,0.248-1.026,0.538-1.026,0.538c-0.038,0-0.076,0.009-0.082,0.009
				c-0.011,0.021-0.069,0-0.011,0h0.011c0,0,0-0.009-0.011-0.043c-0.043-0.073,0-0.171,0.093-0.214c0,0,0.39-0.367,0.893-0.602
				c0.159-0.034,0.313-0.188,0.505-0.26c0.296-0.068,0.543-0.128,0.758-0.128c0.194,0,0.367,0.026,0.504,0.132
				c0.114,0.098,0.203,0.154,0.288,0.154c0.042,0,0.101-0.013,0.187-0.064c0.084-0.09,0.201-0.119,0.295-0.119
				c0.181,0,0.315,0.098,0.404,0.183c0-0.115,0.042-0.286,0.226-0.316c0.037-0.026,0.09-0.026,0.122-0.026
				c0.122,0,0.293,0.026,0.406,0.115c0.115,0.12,0.147,0.244,0.147,0.35c0,0.064,0,0.111-0.042,0.209
				c0.107,0.004,0.208,0.073,0.208,0.073l0,0c0,0,0.111-0.043,0.288-0.192c0.354-0.214,0.449-0.196,0.472-0.226
				c0.094-0.103,0.303-0.427,0.678-0.444c0,0,0.004,0,0.017,0l0,0l0,0l0,0c0.139,0,0.239,0.017,0.325,0.017
				c0.094,0,0.159-0.017,0.278-0.043c0.23-0.098,0.517-0.119,0.658-0.119c0.1-0.094,0.303-0.303,0.472-0.393
				c0.058-0.017,0.174-0.15,0.143-0.158l0,0c-0.018-0.043-0.018-0.107-0.018-0.137c0-0.218,0.193-0.299,0.246-0.35
				c0.069-0.043,0.716-0.564,0.716-0.564c0.086-0.06,0.15-0.06,0.218,0c0.01,0,0,0,0.082,0c0,0,0.027,0,0.036,0
				c0.017,0.034,0.27-0.26,0.404-0.384c0.136-0.073-0.387-0.115-0.387-0.145c0,0,0-0.004,0-0.009c0-0.056-0.053-0.213-0.094-0.29
				c-0.109-0.03,0.322-0.137,0.322-0.137h-0.009c-0.035-0.021-0.066-0.056-0.066-0.056l-0.053-0.009c0,0-0.116-0.085-0.126-0.252
				c0-0.094,0.043-0.179,0.12-0.239c0.126-0.047,0.167-0.103,0.242-0.103h0.303l0.288-0.325l0.077-0.017
				c0,0,0.142-0.068,0.193-0.124l0,0c0-0.004,0.023-0.009,0.023-0.064c0.027-0.013,0.033-0.056,0.033-0.09l0,0v-0.009
				c0-0.009,0-0.034,0-0.034s0-0.009,0-0.017l0,0c0.059-0.154,0.143-0.196,0.255-0.329c0.144-0.077,0.232-0.175,0.413-0.205
				c0,0,0.03,0,0.041,0c0.033,0,0.057,0,0.101,0c0-0.026,0-0.026,0-0.03c0-0.026,0.018-0.047,0.03-0.068l-0.03-0.137l0.269-0.278
				l0.225,0.213l0.154-0.111l0.244,0.269l0.256-0.12l-0.44-0.444h-0.033l0.239-0.043L158.002,153.382z"/>
		</g>
	</g>
	<path fill="#706F6F" stroke="#FFFFFF" stroke-width="0.5816" stroke-linecap="round" stroke-linejoin="round" d="M105.427,100.512
		l-1.05-1.354l-0.309-0.308v-0.743l-0.329-0.312l-0.281-0.337v-1.072l-0.331-0.252v-0.453l-0.402-0.397v-0.645l-0.38-0.393
		l-0.379-0.376v-1.393c0,0-0.54,0.286-0.618,0.53c0,0-0.271-0.325-0.352-0.402c-0.098-0.111-0.299-0.483-0.466-0.363
		c-0.149,0.115-0.709,0.987-0.962,1.068c-0.23,0.094-0.571-0.346-0.918-0.38c-0.354-0.03-0.501-0.03-0.501-0.03l-0.014-0.295
		l-0.667-0.051l-0.721-0.735c0,0-0.035-0.222,0-0.32c0.014-0.094-0.261-0.303-0.485-0.333c-0.202-0.03-0.894-0.03-0.894-0.03
		l-0.432-0.308l-0.301-0.342c0,0-0.349-0.325-0.669-0.342c-0.3-0.06-0.345-0.397-0.345-0.397s-0.5-0.316-0.779-0.414
		c-0.295-0.103-0.345-0.128-0.345-0.128v-2.332l-0.691-0.662c0,0,0-0.248,0-0.278l-0.313-0.466l-0.066-0.269l-0.335-0.346v-0.713
		c0,0-0.313,0.004-0.348-0.384c0-0.393,0.065-0.436-0.194-0.589c-0.27-0.15-0.446-0.115-0.47-0.543
		c-0.035-0.393,0-0.393-0.344-0.645c-0.339-0.295-0.155-0.602-0.375-0.675c-0.251-0.103-0.305-0.278-0.411-0.325
		c-0.109-0.103-0.286-0.423-0.278-0.594c0-0.158-0.187-0.692,0.137-1.034c0.301-0.32,1.011,2.166,4.225,2.23
		c3.217,0.081,7.369,1.845,8.241,1.756c0,0,5.477,1.863,7.499,2.392c1.981,0.573,2.772,0.833,2.772,0.833l-4.562,14.306h-1.172
		L105.427,100.512z"/>
	<path fill="#706F6F" stroke="#FFFFFF" stroke-width="0.5816" stroke-linecap="round" stroke-linejoin="round" d="M131.231,106.732
		c0.346-0.38-0.111-2.029-0.111-2.029s-0.271-2.003,0.1-2.648c0.357-0.611-0.264-1.512-0.346-2.405
		c-0.099-0.914-0.606-1.619-0.606-2.256l-0.143,1.38c0.287,1.367,1.028,2.272,0.749,2.729c-0.279,0.427-0.335,1.811-0.335,1.811
		c0.31,2.789,0.891,2.712,0,3.652"/>
	<path fill="#706F6F" stroke="#FFFFFF" stroke-width="0.5816" stroke-linecap="round" stroke-linejoin="round" d="M119.239,127.676
		c0,0,0.281-0.53,0.694-0.675l1.966-1.059c0,0,9.321-5.34,9.677-5.34c0,0,0,0,0.016,0.009c-0.473-0.337-0.966-0.658-1.106-0.705
		c-0.278-0.124-0.731-0.649-0.971-0.769c-0.255-0.137-0.899-0.162-0.899-0.231c-0.024-0.056,0.099-1.123-0.134-1.145
		c-0.196,0-0.323-0.068-0.646,0.158c-0.325,0.226-0.642,0.636-0.806,0.517c-0.133-0.141-0.25-0.325-0.25-0.325
		s0.503-0.35,0.49-0.444c-0.022-0.073-0.037-0.282-0.037-0.282s-0.243-0.145-0.353,0c-0.117,0.141-0.176,0.282-0.176,0.282
		l-0.262,0.047l-0.18-0.119l0.068-0.235c0,0,0.035-0.094,0.097-0.286c0.047-0.197,0.224-0.414-0.145-0.372
		c-0.358,0-0.313,0-0.538-0.188c-0.231-0.154-0.427-0.312-0.427-0.312l-3.142,3.067h-0.885v0.299h-1.241v2.576h-0.457v0.312h-0.272
		v1.756l-0.359,0.278l-0.358,0.688l-0.358,0.526v0.286l0.226,0.286h0.44c0,0,0.098,1.328,0.465,1.585L119.239,127.676z"/>
	<path fill="#706F6F" stroke="#FFFFFF" stroke-width="0.5816" stroke-linecap="round" stroke-linejoin="round" d="M142.39,104.921
		c-0.173-0.149-0.579,0.197-0.942,0.086c-0.086-0.047-0.199-0.098-0.298-0.162c0.02-0.103-0.027-0.355-0.027-0.355
		c-0.123-0.449,0.014-0.722,0.069-1.089c0.057-0.542-0.984-1.247-0.984-1.247c-0.197-0.098-0.579-1.401,0.203-1.85
		c0.797-0.453,0.854-0.367,0.854-1.252c0-0.85-1.506-0.278-2.076-1.089c-0.585-0.82-1.913-0.295-2.074-0.295
		c-0.134,0-0.007,0.41-0.134,0.641c-0.136,0.226,0.295,0.337,0.612,0.675c0,0,0.356,0.282-0.077,0.5
		c-0.425,0.231-0.477,0.107-0.477,0.107c-0.154-0.213-0.268,0.449-0.587,0.124c-0.586-0.555-1.029-1.388-1.059-1.897
		c0,0-0.334-1.094-0.63-1.405c-0.595-0.555-0.2-0.867-0.767-1.076c-0.546-0.209-1.564-1.794-2.013-1.794
		c-0.444,0-0.521-0.269-1.089-0.295c-0.562-0.047-1.066,0.026-1.066,0.026s-0.075-0.308-0.447-0.308
		c-0.36,0.043-0.602,0.5-0.659,0.854l-0.107,0.645c0,0-0.647-0.739-1.709-1.299c-1.049-0.53-1.545-0.457-3.536-2.255
		c-1.993-1.833-3.803-1.568-4.614-2.179c-0.811-0.632-6.411-2.038-6.678-2.089l-0.534-0.081l-4.562,14.306h-1.172
		c0,0,0.941,1.341,1.368,1.833c0.44,0.47,0.999,0.47,1.402,0.748c0.405,0.295,1.293,1.098,1.293,1.098s1.04,1.973,1.934,2.132
		c0.885,0.145,1.159,0.756,1.65,0.692c0.471-0.098,0.801,0.756,1.24,0.837c0.453,0.085,1.455,0.88,1.971,0.88
		c0.538,0,2.088,2.003,2.088,2.003l0.962,0.359c0,0,1.961,1.627,2.721,1.884c0,0,0.75,0.188,0.917,0.487
		c0.137,0.325,0.518-0.449,0.169-0.696c0-0.009,0-0.009-0.016-0.03c0.119-0.15,0.289-0.248,0.471,0.098
		c0.017,0.03,0.047,0.03,0.067,0.03c0.059,0.119,0.101,0.299,0.16,0.41c0.337,0.841,1.381,1.632,1.381,1.632
		c0.444,0.201,0.971,0.115,1.098,0.457c0,0,0.32,0.795,1.027,0.483c0.037,0.043,0.122,0,0.176-0.073
		c0.314-0.333,0.626-0.068,0.626-0.068s0.112,0.26,0.302,0.393c-0.051,0.162-0.077,0.316-0.051,0.585
		c0.051,0.654,0.885,0.675,1.036,1.085c0.169,0.397,0.639,0.346,0.834,0.265c0.21-0.06,0.817-0.948,0.817-0.948
		s0.434-0.367,0.634-0.564c0.236-0.175,0.208-0.884,0.482-0.91c0.275-0.043,0.374-0.589,0.191-0.688
		c-0.161-0.103-0.329,0.256-0.655,0.183c-0.323-0.03-0.069-0.564-0.044-0.675c0.005-0.017,0.083-0.355,0.07-0.624h0.005
		c0.187-0.231,0.631,0,1.015,0c0.339,0.038,0.364,0.555,0.934,0.982c0.547,0.449,0.054-0.038,0.209-0.427
		c0.166-0.359-0.741-0.577-1.001-0.995c-0.272-0.393-0.517-0.068-0.517-0.068c-0.208,0.218-0.482,0.363-0.69,0.376
		c-0.02-0.098-0.073-0.162-0.177-0.213c-0.363-0.103-0.15-0.487-0.449-0.081c-0.029,0.03-0.034,0.06-0.067,0.081
		c-0.007,0,0,0-0.007,0c-0.399,0.141-0.872,0.077-0.615-0.243c0.412-0.483-0.027-0.696-0.027-0.696c-0.078,0-0.11-0.141-0.374-0.103
		c-0.106,0.043-0.229,0.043-0.361-0.171c0.088-0.15,0.068-0.355-0.258-0.739c-0.617-0.752,0.235-1.512,0.152-1.99
		c0,0-0.557-0.645,0.194-0.735c0.312,0.222,0.455,0.265,0.438,0.038c-0.021-0.5,0.236-0.5,0.236-0.5
		c0.182,0.487,0.749-0.692,1.114-0.47c-0.124,0.32,0.089,0.692,0.281,1.021c0.314,0.444,0.264,1.469,0.341,2.17
		c0.091,0.718,0.852,0.466,0.852,0.466c0.215-0.086,0.129-0.367,0.521-0.355c0.353,0.043,0.938,0.03,0.938-0.32
		c0-0.337-0.029-0.782,0.187-0.918c0,0,0.233-0.739,0.531-1.188c0.145-0.213,0.357-0.128,0.485-0.047
		c0.007,0.265,0.023,1.149-0.246,1.341c-0.34,0.248,0.221,0.222,0.576-0.107c0.377-0.337,0.148-0.683-0.004-0.97
		c-0.115-0.252-0.192-0.675-0.482-0.773c-0.329-0.128-0.264-0.239-0.264-0.239c-0.065-0.748-0.619-1.128-0.096-1.367
		c0.523-0.201,0.632,0.269,0.886-0.154c0,0,0.141-0.743,0.775,0c0.013,0,0.109,0.226,0.109,0.235
		c0.058,0.448,0.317,0.905,0.862,0.85c0.863-0.073,0.082-0.521,0.738-0.888c0.659-0.384,0.125-0.82,0.125-0.82
		c-0.555-0.654-0.781-0.534-0.732-0.812c0.1-0.171,0.671,0.073,0.863,0.235c0.434,0.329,0.785-0.248,0.461-0.402
		c-0.261-0.132-0.654-0.829-1.037-0.829c-0.037-0.299-0.067-0.641-0.079-0.842l0.012,0.051c0,0-0.204-2.029,0.715-1.499
		c0.291,0.158,0.68,0.786,0.68,1.397c0,0.636,1.021,1.256,1.181,1.431c0.012,0.013,0.012,0.013,0.056,0.013
		c0.191,0.273,0.382,0.602,0.358,0.794c-0.052,0.483,0.024,0.688,0.521,1.23c0.476,0.517,0.304-0.145,0.322-0.491
		c0.01-0.342-0.336-0.658-0.208-0.829C142.217,105.408,142.703,105.322,142.39,104.921z"/>
	<path fill="#706F6F" stroke="#FFFFFF" stroke-width="0.5816" stroke-linecap="round" stroke-linejoin="round" d="M134.434,123.114"
		/>
	<path fill="#706F6F" stroke="#FFFFFF" stroke-width="0.5816" stroke-linecap="round" stroke-linejoin="round" d="M136.798,125.762
		c0,0-0.751-1.085-1.086-1.345c-0.357-0.248-0.542-0.141-0.561-0.461c-0.056-0.598-0.31-0.978-0.476-1.098
		c0-0.038-0.02-0.098-0.028-0.162c0,0-0.224-0.679-0.353-0.679c-0.125,0-0.286,0.649,0.041,0.893
		c0.067,0.013,0.094,0.047,0.127,0.047c-0.012,0.081-0.028,0.158-0.028,0.158s0.091,0.094-0.14,0.175
		c-0.219,0.107-0.297-0.38-0.574-0.38c-0.25,0-0.454-0.824-0.756-1.29c-0.068-0.107-0.194-0.226-0.315-0.325
		c0.146-0.009,0.542-0.487,0.542-0.487s0.086-0.457-0.344-0.423c-0.463,0.009-0.731-0.034-0.883,0.111
		c-0.075,0.064-0.155,0.115-0.179,0.209c-0.126-0.047-0.207-0.102-0.207-0.102c-0.357,0-9.677,5.34-9.677,5.34l-1.966,1.059
		c-0.413,0.145-0.694,0.675-0.694,0.675l0.194,0.235l6.508,7.048c0,0,1.615-1.939,2.097-2.157c0.478-0.18,1.082-0.427,1.082-0.572
		c0-0.175,1.283-0.807,1.475-0.944c0.218-0.115,1.189-0.867,2.233-1.136c1.023-0.32,1.189-0.778,2.065-1.051
		c0.884-0.295,1.171-1.004,1.619-1.004C136.949,128.094,136.949,126.082,136.798,125.762z"/>
	<path fill="#706F6F" stroke="#FFFFFF" stroke-width="0.5816" stroke-linecap="round" stroke-linejoin="round" d="M139.086,135.839
		c0,0,0.144-0.073,0.427-0.436c0.117-0.166,0.219-0.299,0.273-0.402c-0.054-0.171-0.191-0.406-0.433-0.406
		c-0.412,0-0.351-0.466-0.549-1.286c-0.2-0.829-0.246-0.547-0.452-0.965c-0.213-0.41,0.551-0.547,0.168-0.53
		c-0.353,0.047-0.42,0.12-0.476-0.393c-0.065-0.53-0.582-0.572-0.69-0.871c-0.138-0.312,0.625-0.555,0.209-0.722
		c-0.428-0.196,0.066-0.914-0.455-1.435c-0.222-0.248-0.307-0.53-0.307-0.79c-0.048,0.286-0.133,0.491-0.29,0.491
		c-0.447,0-0.735,0.709-1.619,1.004c-0.877,0.273-1.042,0.73-2.065,1.051c-1.044,0.269-2.015,1.021-2.233,1.136
		c-0.192,0.137-1.475,0.769-1.475,0.944c0,0.145-0.603,0.393-1.082,0.572c-0.483,0.218-2.097,2.157-2.097,2.157l2.406,2.584
		l1.084-1.076l0.398,0.286v0.79l0.337,0.376l0.075,0.803l0.201,0.162l0.128,0.436l0.386,0.086v0.555l0.264,0.231v0.226l0.669,0.88
		v0.427l0.569,0.098l1.161-3.029L139.086,135.839z"/>
	<path fill="#706F6F" stroke="#FFFFFF" stroke-width="0.5816" stroke-linecap="round" stroke-linejoin="round" d="M129.676,147.154
		l-5.061-0.872l-8.149-7.591l-0.343-1.017c-0.068,0.043-0.423,0.145-0.506,0.111c-0.283-0.115-0.496-0.056-0.979,0.179
		c-0.479,0.243-1.821,2.025-2.415,2.302c-0.578,0.291-0.839,0.637-0.839,0.637l8.165,8.03l0.883-0.12l2.303,4.165l1.065-0.466
		l5.284,5.032l0.036-0.034l-0.135-6.664l1.18-3.075L129.676,147.154z"/>
	<path fill="#706F6F" stroke="#FFFFFF" stroke-width="0.5816" stroke-linecap="round" stroke-linejoin="round" d="M118.55,133.365
		c-0.402,0.38-0.359,1.008-0.528,1.99c-0.138,0.705-0.589,0.115-0.715,0.705c-0.1,0.564-0.521,1.102-0.921,1.393
		c-0.067,0.064-0.2,0.158-0.264,0.222l0.343,1.017l8.149,7.591l5.061,0.872l0.49,0.619l2.292-5.95l-0.569-0.098v-0.427l-0.669-0.88
		v-0.226l-0.264-0.231v-0.555l-0.386-0.086l-0.128-0.436l-0.201-0.162l-0.075-0.803l-0.337-0.376v-0.79l-0.398-0.286l-1.084,1.076
		l-2.406-2.584l-5.969-6.463l-0.084-1.431l-1.196-0.406c0,0-0.345,1.345-0.111,1.602c0.243,0.269,0.379,1.311,0,1.978
		L118.55,133.365z"/>
	<path fill="#706F6F" stroke="#FFFFFF" stroke-width="0.5816" stroke-linecap="round" stroke-linejoin="round" d="M91.807,86.211
		c0,0,0-0.248,0-0.278l-0.313-0.466l-0.066-0.269l-0.335-0.346v-0.713c0,0-0.313,0.004-0.348-0.384c0-0.393,0.065-0.436-0.194-0.589
		c-0.27-0.15-0.446-0.115-0.47-0.543c-0.035-0.393,0-0.393-0.344-0.645c-0.339-0.295-0.155-0.602-0.375-0.675
		c-0.251-0.103-0.305-0.278-0.411-0.325c-0.109-0.103-0.286-0.423-0.278-0.594c0-0.158-0.187-0.692,0.137-1.034
		c0.021-0.009,0.021-0.009,0.032-0.009c-0.258-0.389-0.618-0.756-1.047-0.905c-0.428-0.133-2.055-1.132-2.516-1.555
		c-0.426-0.453-2.202-1.666-2.756-2.657c-0.555-1.017-3.456-3.289-3.762-3.289c-0.32,0-0.963-0.649-1.703-0.748
		c-0.713-0.073-3.334,0-3.334,0l-2.884-3.127c0,0-0.251-0.137-0.317,0c-0.098,0.12-1.605,1.316-1.336,1.649
		c0.286,0.32,2.373,2.277,3.456,3.934c1.082,1.653,1.688,2.136,1.818,2.704c0.101,0.556,0.83,0.991,1.6,1.534
		c0.75,0.517,1.592,1.081,1.815,1.871c0.205,0.812,1.809,2.7,2.17,3.951c0.351,1.222,0.84,0.59,0.878,1.286
		c0.032,0.662,0.032,0.944,0.032,0.944s0.529,1.012,1.045,0.965c0.523-0.038,0.968-0.038,1.768,0.512
		c0.8,0.581,0.878,0.581,1.085,0.526c0.206-0.021,0.156-0.329,0.674-0.244c0.537,0.107,0.499,0.829,1.258,0.931
		c0.759,0.137,0.178,0.769,1.01,0.769c0.833,0,0.878-1.038,1.282-0.965c0.392,0.094,0.648,0.76,1.111,0.837
		c0.502,0.086,0.704,0.606,1.378,0.688c0.3,0.038,0.622,0.115,0.931,0.214v-2.294L91.807,86.211z"/>
	<path fill="#706F6F" stroke="#FFFFFF" stroke-width="0.5816" stroke-linecap="round" stroke-linejoin="round" d="M101.426,148.26
		c-0.078,0.043-0.112,0.068-0.112,0.068S101.349,148.303,101.426,148.26L101.426,148.26z"/>
	<path fill="#706F6F" stroke="#FFFFFF" stroke-width="0.5816" stroke-linecap="round" stroke-linejoin="round" d="M99.008,153.869
		c0.141,0,0.23-0.765,0.23-0.765l0.342-0.299v-1.841l0.535-0.325l0.394-0.478c0,0,0.077-0.308,0.077-0.628
		c0-0.303,0.313-0.825,0.313-0.825l0.364-0.44l0.052,0.06l-9.137-8.308l-0.256-0.88l0.509-0.064l-0.475,0.043
		c-0.948-1.042-3.99-4.524-4.251-5.139c-0.323-0.752-3.058-3.293-3.058-3.293s-0.868,1.726-0.994,2.542
		c-0.11,0.837-1.306,0.901-1.373,2.008l-0.363,1.17c0,0-0.496,0.658-0.823,1.499c-0.294,0.794-1.159,0.914-1.976,2.285
		c-0.823,1.375-3.603,2.55-3.603,2.55l-1.002,0.521c0,0,3.781,6.33,3.781,6.882c0,0.572-2.78,1.914-2.78,1.914
		s0.513,0.577,0.436,0.88c-0.066,0.316-0.807,1.568-0.572,1.76c0.247,0.188,0.187,0.863,0.187,0.863s0.649,0.799,0.386,0.863
		c-0.256,0.064-0.681,0.867-0.572,1.435c0.137,0.572,0.297,0.948-0.16,1.581c-0.418,0.624,1.281,1.7,1.281,1.7
		s1.063,0.777,1.598,1.042c0.543,0.282,0.448,0.653,0.972,0.653c0.536,0,2.025,0,2.025,0s0.483,0.342,0.966,0.397
		c0.335,0.034,0.963,0.034,1.068-0.162c0.076-0.171,0.449-0.235,0.449-0.235s0.289-0.235,0.664-0.333
		c0.369-0.064,0.254,0.397,0.63,0.41c0.4,0.06,0.381,0.205,0.693-0.013c0.297-0.214,0.215-0.312,0.64-0.376l0.339-0.35v-0.671h0.839
		l0.287-0.402h0.735l0.302-0.325h0.396l0.356-0.372c0,0,0.493-0.086,0.663-0.295c0.186-0.196,0.398-0.44,0.711-0.406
		c0.328,0-0.141-0.286,0.45-0.303c0.609-0.038,1.099,0.038,1.58-0.436c0.278-0.239,0.47-0.239,0.47-0.239l1.003-0.068l3.447-3.169
		h0.453l0.27-0.342v-0.782l0.542-0.432C99.025,153.908,99.008,153.869,99.008,153.869z"/>
	<path fill="#706F6F" stroke="#FFFFFF" stroke-width="0.5816" stroke-linecap="round" stroke-linejoin="round" d="M107.603,125.091
		c0,0-0.691-0.384-2.048-2.73c-1.194-2.055-2.29-4.152-2.563-4.669c-1.025,0.696-3.555,2.49-4.412,2.973
		c-1.053,0.628-1.372,0.872-1.372,0.872l-0.24,1.247l-0.881,0.504l-1.109-1.158l-0.813,0.534h-1.07l-1.666,1.798l-0.813,0.085
		l1.883,1.961l2.906,2.123l3.547,1.726l0.564,1.064l1.186,1.2l2.799,2.542l0.995-1.235l0.993,0.666l6.412-4.976l0.104-0.086
		L107.603,125.091z"/>
	<path fill="#706F6F" stroke="#FFFFFF" stroke-width="0.5816" stroke-linecap="round" stroke-linejoin="round" d="M118.023,135.356
		c0.169-0.982,0.126-1.61,0.528-1.99l0.031-3.127c0.379-0.666,0.243-1.709,0-1.978c-0.234-0.256,0.111-1.602,0.111-1.602l0.292,0.12
		c-0.046-0.269-0.073-0.504-0.073-0.504h-0.44l-0.226-0.286v-0.286l0.358-0.526l0.358-0.688l0.359-0.278v-1.756h0.272v-0.312h0.457
		v-2.576h1.241v-0.299h0.885l3.142-3.067c0,0-0.546-1.431-1.174-1.623c-0.616-0.201-0.785-0.76-0.785-0.76l-0.432-0.299
		c-0.256-0.128-0.486-0.188-0.486-0.188c-0.76-0.256-2.721-1.884-2.721-1.884l-0.962-0.359c0,0-1.55-2.003-2.088-2.003
		c-0.516,0-1.519-0.795-1.971-0.88c-0.439-0.081-0.769-0.936-1.24-0.837c-0.491,0.064-0.765-0.547-1.65-0.692
		c-0.894-0.158-1.934-2.132-1.934-2.132s-0.888-0.803-1.293-1.098c-0.403-0.278-0.962-0.278-1.402-0.748
		c-0.427-0.491-1.368-1.833-1.368-1.833l-0.828,0.214l-4.121,3.08c0,0,2.051,1.29,1.995,1.867c-0.058,0.555-1.595,2.704-2.027,3.507
		c-0.339,0.611-2.148,1.482-2.148,1.482l4.251,6.544c0,0,1.243,2.422,2.621,4.801c1.357,2.345,2.048,2.73,2.048,2.73l10.343,10.465
		C117.989,135.51,117.994,135.429,118.023,135.356z"/>
	<path fill="#706F6F" stroke="#FFFFFF" stroke-width="0.5816" stroke-linecap="round" stroke-linejoin="round" d="M111.384,140.905
		c0,0,0.262-0.346,0.839-0.637c0.594-0.278,1.936-2.059,2.415-2.302c0.483-0.235,0.696-0.295,0.979-0.179
		c0.083,0.034,0.438-0.068,0.506-0.111c0.064-0.064,0.196-0.158,0.264-0.222c0.4-0.29,0.821-0.829,0.921-1.393
		c0.098-0.521,0.466-0.132,0.638-0.504l-5.943-6.023l-0.104,0.086l-6.412,4.976l-0.993-0.666l-0.995,1.235l-2.799-2.542
		l-0.243-0.248l-5.162,5.972l-1.274-0.641l-0.473,0.641l-0.752,0.056l-0.365,0.675l-0.509,0.064l0.256,0.88l9.137,8.308
		c0,0,2.863-1.982,4.3-2.969c1.441-1,1.484-2.303,2.916-2.99c1.429-0.666,1.429-1.072,1.429-1.072l1.537-0.282L111.384,140.905z"/>
	<path fill="#706F6F" stroke="#FFFFFF" stroke-width="0.5816" stroke-linecap="round" stroke-linejoin="round" d="M117.989,135.471
		c0,0.038-0.028,0.06-0.028,0.068C117.961,135.531,117.989,135.51,117.989,135.471z"/>
	<path fill="#706F6F" stroke="#FFFFFF" stroke-width="0.5816" stroke-linecap="round" stroke-linejoin="round" d="M92.796,138.402
		l0.752-0.056l0.473-0.641l1.274,0.641l5.162-5.972l-0.943-0.953l-0.564-1.064l-3.547-1.726l-2.906-2.123l-1.883-1.961l-5.298-4.366
		l-0.114,0.624l1.14,0.97l-0.131,1.833c0,0,0.285,0.286,0.361,1.247c0.076,0.905-0.361,2.584-0.361,2.584l-0.895,0.953l-0.237,1.931
		l-0.435,0.363c0,0,2.735,2.542,3.058,3.293c0.262,0.615,3.303,4.097,4.251,5.139l0.475-0.043L92.796,138.402z"/>
	<path fill="#706F6F" stroke="#FFFFFF" stroke-width="0.5816" stroke-linecap="round" stroke-linejoin="round" d="M115.786,147.684
		v-0.649l0.268-0.342l0.068-1.123l-4.626-4.554l-1.537,0.282c0,0,0,0.406-1.429,1.072c-1.432,0.688-1.475,1.99-2.916,2.99
		c-0.35,0.256-0.78,0.538-1.238,0.858l0,0l1.723,1.777c0,0-0.442,0.692-0.266,0.765c0.202,0.055,3.119,2.794,3.119,2.794
		l1.588,1.841h2.612l0.633,0.192h1.647l0.316-0.38v-1.282c0,0,0.304-0.402,0.304-0.649c0-0.248-0.573-0.312-0.427-0.701
		c0.159-0.359-0.077-0.572-0.284-0.807c-0.192-0.226,0.064-0.461,0.064-0.461s0.572-0.337,0.379-0.547
		c-0.213-0.201-0.463-0.5-0.463-0.666C115.323,147.919,115.786,147.684,115.786,147.684z"/>
	<path fill="#706F6F" stroke="#FFFFFF" stroke-width="0.5816" stroke-linecap="round" stroke-linejoin="round" d="M121.56,156.488
		l-0.014-1.098l1.499,0.034l0.17-0.752l0.919,0.034l0.345-0.26l0.748-0.577l0.226,0.218l0,0l-1.653-1.572l-1.065,0.466l-2.303-4.165
		l-0.883,0.12l-3.426-3.366l-0.068,1.123l-0.268,0.342v0.649c0,0-0.463,0.235-0.463,0.41c0,0.166,0.25,0.466,0.463,0.666
		c0.193,0.209-0.379,0.547-0.379,0.547s-0.256,0.235-0.064,0.461c0.207,0.235,0.443,0.449,0.284,0.807
		c-0.146,0.389,0.427,0.453,0.427,0.701c0,0.248-0.304,0.649-0.304,0.649v1.282l-0.316,0.38h-1.647l-0.633-0.192h-2.612l-0.04-0.038
		l-2.344,10.128l3.866,3.251L121.56,156.488z"/>
	<path fill="#706F6F" stroke="#FFFFFF" stroke-width="0.5816" stroke-linecap="round" stroke-linejoin="round" d="M104.377,146.219
		L104.377,146.219c0.075-0.064,0.137-0.09,0.201-0.149C104.514,146.129,104.452,146.155,104.377,146.219z"/>
	<path fill="#706F6F" stroke="#FFFFFF" stroke-width="0.5816" stroke-linecap="round" stroke-linejoin="round" d="M108.954,151.554
		c0,0-2.918-2.738-3.119-2.794c-0.176-0.073,0.266-0.765,0.266-0.765l-1.723-1.777l0,0c-1.424,0.974-3.063,2.11-3.063,2.11
		l-0.052-0.06l-0.364,0.44c0,0-0.313,0.521-0.313,0.825c0,0.32-0.077,0.628-0.077,0.628l-0.394,0.478l-0.535,0.325v1.841
		l-0.342,0.299c0,0-0.089,0.765-0.23,0.765c-0.137,0,8.36,8.74,9.16,9.564l2.334-10.077L108.954,151.554z"/>
	<polygon fill="#706F6F" stroke="#FFFFFF" stroke-width="0.5816" stroke-linecap="round" stroke-linejoin="round" points="
		99.045,153.933 99.045,153.933 99.045,153.933 	"/>
	<path fill="#706F6F" stroke="#FFFFFF" stroke-width="0.5816" stroke-linecap="round" stroke-linejoin="round" d="M111.926,167.953
		l0.075-1.166l0.023-0.051l-3.866-3.251l0.539-2.294l0,0l-0.53,2.243c-0.758-0.79-8.6-8.821-9.123-9.5l-0.542,0.432v0.782
		l-0.27,0.342h-0.453l-3.447,3.169l-1.003,0.068c0,0-0.192,0-0.47,0.239c-0.482,0.474-0.972,0.397-1.58,0.436
		c-0.591,0.017-0.122,0.303-0.45,0.303c-0.313-0.034-0.525,0.209-0.711,0.406c-0.17,0.209-0.663,0.295-0.663,0.295l-0.356,0.372
		h-0.396l-0.302,0.325h-0.735l-0.287,0.402h-0.839v0.671l-0.339,0.35c-0.425,0.064-0.343,0.162-0.64,0.376
		c-0.312,0.218-0.293,0.073-0.693,0.013c-0.376-0.013-0.262-0.474-0.63-0.41c-0.375,0.098-0.664,0.333-0.664,0.333
		s-0.374,0.064-0.449,0.235c-0.105,0.197-0.733,0.197-1.068,0.162c-0.484-0.056-0.966-0.397-0.966-0.397s-1.489,0-2.025,0
		c-0.164,0-0.262-0.051-0.342-0.081v1.068l-0.545,0.252l0.112,1.375c0,0,5.079,4.451,5.678,4.981
		c0.597,0.547,5.472,4.84,7.414,5.912c1.922,1.106,3.91,3.682,3.91,3.682l3.5-3.319l3.615,3.554l3.426-3.298l1.275,1.247
		l2.473-2.332l-2.599-2.841l3.126-3.054l0.739,0.948l2.119-1.995C112.337,168.324,111.926,167.953,111.926,167.953z"/>
	<path fill="#706F6F" stroke="#FFFFFF" stroke-width="0.5816" stroke-linecap="round" stroke-linejoin="round" d="M139.425,167.32
		l-10.304-9.624v-0.184l-0.036,0.034l-3.857-3.678l-0.748,0.577l-0.345,0.26l-0.919-0.034l-0.17,0.752l-1.499-0.034l0.014,1.098
		l-9.559,10.299l-0.075,1.166c0,0,2.16,2.029,1.041,0.983l-2.119,1.995l-0.739-0.948l-3.126,3.054l2.599,2.841l-2.473,2.332
		l-1.275-1.247l-3.426,3.298l-3.615-3.554l-3.5,3.319l6.443,6.091c0,0-1.017,1.064-1.91,1.358c-0.895,0.303-1.752-0.145-1.752-0.145
		l-1.626,1.44l-4.904,0.461l3.569,3.584l-1.852,1.922l10.101,9.863c0,0,0.786,0.427,1.467,0.128c0.657-0.29,1.01-1.081,2.234-1.316
		c0,0,0.682-0.098,1.279-0.897c0.557-0.769,0.836-0.299,1.321-0.769c0.491-0.47,0.93-0.653,0.93-0.653s0.306-0.239,0.306-0.577
		c0-0.35,0.314-0.653,0.323-1.401c0.028-0.756-0.105-0.594,0.214-1.111c0,0-0.015-0.658,0.208-1c0.213-0.346,0.237-0.918,0.54-1.158
		c0.311-0.226,0.407-0.692,0.407-0.692s0.217-0.384,0.652-0.726c0.468-0.282,0.45-1.111,0.45-1.111s-0.027-0.406,0.565-0.897
		c0.16-0.137,0.243-0.564,0.457-0.952c0.061-0.184,0.157-0.346,0.267-0.483c0,0-0.083-0.543,0.36-1.017
		c0.126-0.094,0.288-0.252,0.357-0.465c0.16-0.615,0.033-1.508,0.033-1.508l1.828-1.644h0.362c0,0,0.598,0.06,0.625-0.611
		c0.002-0.666,0.187-0.094,0.363-0.577c0,0,0.098-0.406,0.418-0.607c0.331-0.184,0.201-0.645,0.323-0.888
		c0.115-0.205,0.396-0.333,0.396-0.491c0.016-0.145-0.16-0.927,0.098-1.23c0.224-0.337,0.398-0.235,0.441-0.666
		c0.016-0.457-0.217-0.32-0.203-0.521c0.02-0.265,0.386-0.419,0.638-0.534c0.245-0.137,0.399,0.145,0.735,0.179
		c0.35,0.034,0.669-0.222,0.599-0.564c-0.047-0.329-0.143-0.278-0.217-0.517c-0.098-0.205,0-0.637,0.21-0.914
		c0.151-0.209,0.246-0.239,0.296-0.701c-0.005,0-0.012,0-0.012,0h-0.003c0.341-0.004,0.66-0.636,0.924-0.94
		c0.268-0.231,1.496-0.004,1.723-0.508c0.231-0.491,0.109-0.538,0.331-0.538c0.238,0,0.147,0.226,0.426,0.342
		c0.248,0.111,0.451,1.021,0.721,1.094c0.253,0.068,0.459-0.389,0.757-0.389c0.293,0,0.396-0.363,0.63-0.427
		c0.233-0.081-0.498-0.748-0.727-1.017c-0.22-0.265,0.323-0.419,0.46-0.654c0.163-0.213,0.807-0.077,0.807-0.077l0.303-0.017
		c0,0,0.589,0.017,0.561-0.307c-0.031-0.337,0.535-0.466,0.678-0.504c0.15-0.03,0.37-0.312,0.719-0.111
		c0.342,0.192,0.606-0.325,0.606-0.325s0.302-0.205,0.414-0.73c0.114-0.525,0.547-0.722,0.65-1.273
		c0.112-0.568,0.233-1.042,0.41-1.042c0.202,0,0.359,0.397,0.359,0.397l0.559-0.252l1.662,1.751l0.51,0.03l-0.067-0.931
		L139.425,167.32z"/>
	<path fill="#706F6F" stroke="#FFFFFF" stroke-width="0.5816" stroke-linecap="round" stroke-linejoin="round" d="M102.934,117.56
		l-4.251-6.544c0,0,1.809-0.871,2.148-1.482c0.431-0.803,1.969-2.952,2.027-3.507c0.057-0.577-1.995-1.867-1.995-1.867l4.121-3.08
		l0.828-0.214l-0.384-0.355l-1.05-1.354l-0.309-0.308v-0.743l-0.329-0.312l-0.281-0.337v-1.072l-0.331-0.252v-0.453l-0.402-0.397
		v-0.645l-0.38-0.393l-0.379-0.376v-1.393c0,0-0.54,0.286-0.618,0.53c0,0-0.271-0.325-0.352-0.402
		c-0.098-0.111-0.299-0.483-0.466-0.363c-0.149,0.115-0.709,0.987-0.962,1.068c-0.23,0.094-0.571-0.346-0.918-0.38
		c-0.354-0.03-0.501-0.03-0.501-0.03l-0.014-0.295l-0.667-0.051l-0.721-0.735c0,0-0.035-0.222,0-0.32
		c0.014-0.094-0.261-0.303-0.485-0.333c-0.202-0.03-0.894-0.03-0.894-0.03l-0.432-0.308l-0.301-0.342c0,0-0.349-0.325-0.669-0.342
		c-0.3-0.06-0.345-0.397-0.345-0.397s-0.5-0.316-0.779-0.414c-0.295-0.103-0.345-0.128-0.345-0.128v-0.038
		c-0.31-0.098-0.631-0.175-0.931-0.214c-0.675-0.081-0.877-0.602-1.378-0.688c-0.463-0.077-0.719-0.743-1.111-0.837
		c-0.405-0.073-0.449,0.965-1.282,0.965c-0.832,0-0.251-0.632-1.01-0.769c-0.759-0.102-0.721-0.824-1.258-0.931
		c-0.518-0.085-0.468,0.222-0.674,0.244c-0.207,0.056-0.285,0.056-1.085-0.526c-0.801-0.551-1.245-0.551-1.768-0.512
		c-0.517,0.047-1.045-0.965-1.045-0.965s0-0.034,0-0.047c-0.108-0.051-0.27-0.077-0.301,0.026c-0.053,0.145-0.069,0.188-0.069,0.188
		s-0.177-0.32-0.329-0.29c-0.183,0.017-1.034,0.641-1.102,1.029c-0.036,0.38,0.346,0.662,0.368,1
		c0.007,0.316-0.185,0.529-0.405,0.811c-0.235,0.269-0.311-0.038-0.499-0.175c-0.207-0.107-0.567-0.453-0.788-0.406
		c-0.24,0.017-0.24,0.137-0.418,0.214c-0.145,0.124-0.4,0.073-0.4,0.487c-0.012,0.427,0.01,0.517-0.231,0.581
		c-0.266,0.102-0.038,0.542-0.038,0.542s0.104,0.653-0.171,0.812c-0.229,0.145-0.208,0.449,0.085,0.658
		c0.295,0.184-0.085,0.085-0.271,0.547c-0.174,0.466,0.129,0.606-0.395,0.893c-0.512,0.265-0.582,0.598-0.925,0.884
		c-0.339,0.278-0.383,0.269-0.515,0.32c-0.11,0.034-0.356,0.175-0.933,0.363c-0.566,0.213-0.397,0.419-0.154,0.79
		c0.237,0.372,1.602,2.119,1.644,2.392c0.051,0.26,1.853,3.097,2.013,3.631c0.184,0.56,0.29,0.064,1.463,2.277
		c1.204,2.243,1.592,2.418,2.107,3.567c0.516,1.136,1.448,1.961,1.701,2.055c0.21,0.094,0.467,0,0.573,0.449
		c0.11,0.427,0.866,0.876,0.978,1.29c0.119,0.406,0.742,1.196,1.148,1.995c0.394,0.79,0.955,1.44,1.169,1.576
		c0.235,0.094,0.168-0.384,0.822-0.402c0.626-0.03,0.543-0.068,0.543-0.068s0.183-0.333,0.571-0.316
		c0.407,0.047,0.53-0.325,0.835-0.286c0.289,0.013,0.752-0.739,0.752-0.739l0.369-0.726c0,0,0.124-0.5,0.653-0.051
		c0.55,0.504,1.08,0.196,1.254,0.504c0.166,0.312,0.618,0.581,0.6,1.012c0,0.376,0.274,0.709,0.458,0.936
		c0.186,0.265,2.234,3.404,2.234,3.404s1.234,1.696,1.457,2.298c0.212,0.611,1.159,1.576,1.159,1.576l0.331,0.316
		c0.079-0.043,0.177-0.111,0.278-0.184c0.858-0.483,3.387-2.277,4.412-2.973C102.954,117.595,102.934,117.56,102.934,117.56z"/>
	<path fill="#706F6F" stroke="#FFFFFF" stroke-width="0.5816" stroke-linecap="round" stroke-linejoin="round" d="M98.579,120.666
		c-0.054,0.038-0.1,0.073-0.143,0.107C98.479,120.739,98.525,120.704,98.579,120.666z"/>
	<path fill="#706F6F" stroke="#FFFFFF" stroke-width="0.5816" stroke-linecap="round" stroke-linejoin="round" d="M75.513,142.742
		c0,0,2.78-1.175,3.603-2.55c0.817-1.371,1.682-1.491,1.976-2.285c0.327-0.842,0.823-1.499,0.823-1.499l0.363-1.17
		c0.067-1.106,1.263-1.171,1.373-2.008c0.126-0.816,0.994-2.542,0.994-2.542l0.435-0.363l0.237-1.931l0.895-0.953
		c0,0,0.437-1.679,0.361-2.584c-0.076-0.961-0.361-1.247-0.361-1.247l0.131-1.833l-1.14-0.97l0.114-0.624l5.298,4.366l0.813-0.085
		l1.666-1.798h1.07l0.813-0.534l1.109,1.158l0.881-0.504l0.24-1.247c0,0,0.261-0.201,1.095-0.688l-0.331-0.316
		c0,0-0.946-0.965-1.159-1.576c-0.222-0.602-1.457-2.298-1.457-2.298s-2.048-3.14-2.234-3.404c-0.184-0.226-0.458-0.56-0.458-0.936
		c0.018-0.431-0.435-0.701-0.6-1.012c-0.174-0.308-0.704,0-1.254-0.504c-0.53-0.449-0.653,0.051-0.653,0.051l-0.369,0.726
		c0,0-0.463,0.752-0.752,0.739c-0.305-0.038-0.428,0.333-0.835,0.286c-0.389-0.017-0.571,0.316-0.571,0.316s0.082,0.038-0.543,0.068
		c-0.655,0.017-0.587,0.495-0.822,0.402c-0.215-0.137-0.775-0.786-1.169-1.576c-0.406-0.799-1.029-1.589-1.148-1.995
		c-0.112-0.414-0.868-0.863-0.978-1.29c-0.107-0.449-0.363-0.355-0.573-0.449c-0.253-0.094-1.185-0.918-1.701-2.055
		c-0.515-1.149-0.903-1.324-2.107-3.567c-1.174-2.213-1.279-1.717-1.463-2.277c-0.16-0.534-1.962-3.37-2.013-3.631
		c-0.043-0.273-1.407-2.021-1.644-2.392c-0.108-0.162-0.227-0.32-0.227-0.436c-0.341,0.021-0.308,0.286-0.828,0.778
		c-0.63,0.512-0.457,1.076-0.825,1.234c-0.351,0.137,0.194,0.397-0.412,0.649c-0.603,0.239-0.555,0.337-0.16,0.709
		c0.413,0.38,0.1,1.047,0.144,1.213c0.037,0.145-0.066,0.675-0.355,1.047c-0.281,0.359,0.325,0.393,0.504,0.671
		c0.213,0.295-0.134,0.359-0.15,0.726c-0.03,0.355-0.318,0.513-0.318,0.513c-0.251,0.457,0.208,0.213,0.208,0.495
		c0,0.29-0.045,0.611,0.209,0.624c0.28,0.017,0.531,0.316,0.531,0.316s0.411,0.124,0.487,0.376c0.079,0.239-0.195,0.372-0.444,0.577
		c-0.245,0.192-0.21,0.115-0.31,0.342c-0.111,0.248-0.669,0.201-0.669,0.201s-0.013,0.585-0.352,0.743
		c-0.341,0.227,0.166,0.872,0.166,0.872s0.106,0.79,0.015,1.106c-0.11,0.205-0.256,0.355-0.3,0.602
		c-0.02,0.265-0.386,0.265-0.386,0.265s0,2.49,0,2.768c0,0.303,0.461,0.389,0.386,0.641c-0.067,0.231-0.351,0.427-0.351,0.427
		l0.378,0.333c0,0,0.017,0.653,0.017,0.893c0,0.231-0.064,0.299-0.453,0.41c-0.407,0.137-0.407-0.226-0.407-0.226l-8.33-11.7
		c0,0-1.451,1.119-1.644,1.251c-0.207,0.158-0.037,0.329,0.192,0.572c0.2,0.278,0.139,0.474,0.403,0.666
		c0.262,0.222,0.287,0.372,0.349,0.671c0.04,0.29-0.164,0.517-0.566,0.709c-0.416,0.192,0.082,0.568-0.349,0.666
		c-0.397,0.111-0.468,0.38-0.468,0.38s0.081,0.577-0.321,0.671c-0.382,0.009-0.481,0.483-0.728,0.419
		c-0.262-0.026-0.605,0.291-0.697,0.342c-0.104,0.086-0.413,0.329-0.559,0.329c-0.138,0-0.518,0.303-0.518,0.303
		s-0.302,0.38-0.619,0.406c-0.331,0.021-0.804,0.393-0.804,0.393s-0.245,0.376-0.575,0.355c-0.306-0.047-0.306,0.128-0.465,0.316
		c-0.166,0.154,0.311,0.367,0.311,0.367s0.105,0.577,0.117,0.777c0.016,0.166-0.356,0.269-0.356,0.269h-0.363l-0.382,0.38
		c0,0-0.132,0-0.599,0.316c-0.47,0.308,0,0.568,0,0.701c0,0.107-0.398,0.256-0.738,0.44c-0.332,0.192,0.041,0.991-0.051,1.017
		c-0.082,0.034-0.241,0.179-0.361,0.316c-0.132,0.111-0.336,0.359-0.336,0.359l-0.293-0.043l-0.361,0.367l-0.729,0.141l0.252,0.782
		l6.513,10.542c0,0,0.609,0,0.812-0.474c0.197-0.487,0.531-0.675,0.531-0.675l5.908,9.573l5.061-3.212l6.341,11.192L75.513,142.742z
		"/>
	<path fill="#706F6F" stroke="#FFFFFF" stroke-width="0.5816" stroke-linecap="round" stroke-linejoin="round" d="M52.592,86.301
		l3.423,3.725l-0.024,0.905l4.925,4.887l0.761-0.171l0.938,1.094l0.005,0.38l0.723,0.786l-0.034,0.38l1.541,1.858l0.364,0.607
		l0.301,0.295l0.325,0.705l0.359,0.273v0.282l0.357,0.359l0.394-0.312l1.378,1.534l0.342,0.73l0.646,0.705l0.347,0.645l0.386,0.201
		l0.657-0.009c-0.028-0.192-0.043-0.35-0.043-0.35s-0.506-0.645-0.166-0.872c0.34-0.158,0.352-0.743,0.352-0.743
		s0.557,0.047,0.669-0.201c0.099-0.226,0.065-0.15,0.31-0.342c0.249-0.205,0.523-0.337,0.444-0.577
		c-0.076-0.252-0.487-0.376-0.487-0.376s-0.251-0.299-0.531-0.316c-0.254-0.013-0.209-0.333-0.209-0.624
		c0-0.282-0.459-0.038-0.208-0.495c0,0,0.288-0.158,0.318-0.513c0.016-0.367,0.363-0.432,0.15-0.726
		c-0.18-0.278-0.785-0.312-0.504-0.671c0.288-0.372,0.392-0.901,0.355-1.047c-0.044-0.167,0.269-0.833-0.144-1.213
		c-0.395-0.372-0.443-0.47,0.16-0.709c0.607-0.252,0.061-0.513,0.412-0.649c0.367-0.158,0.194-0.722,0.825-1.234
		c0.52-0.491,0.487-0.756,0.828-0.778l0,0c0-0.141,0.12-0.226,0.381-0.355c0.578-0.188,0.823-0.329,0.933-0.363
		c0.131-0.051,0.176-0.043,0.515-0.32c0.343-0.286,0.412-0.619,0.925-0.884c0.524-0.286,0.221-0.427,0.395-0.893
		c0.186-0.461,0.566-0.363,0.271-0.547c-0.294-0.209-0.314-0.513-0.085-0.658c0.274-0.158,0.171-0.812,0.171-0.812
		s-0.227-0.44,0.038-0.542c0.24-0.064,0.219-0.154,0.231-0.581c0-0.414,0.254-0.363,0.4-0.487c0.177-0.077,0.177-0.197,0.418-0.214
		c0.221-0.047,0.581,0.299,0.788,0.406c0.188,0.137,0.264,0.444,0.499,0.175c0.22-0.282,0.412-0.495,0.405-0.811
		c-0.022-0.337-0.405-0.62-0.368-1c0.068-0.389,0.919-1.012,1.102-1.029c0.152-0.03,0.329,0.29,0.329,0.29s0.016-0.043,0.069-0.188
		c0.031-0.103,0.193-0.077,0.301-0.026c0-0.137-0.016-0.419-0.032-0.897c-0.037-0.696-0.526-0.064-0.878-1.286
		c-0.361-1.251-1.965-3.14-2.17-3.951c-0.223-0.79-1.066-1.354-1.815-1.871c-0.77-0.542-1.498-0.978-1.6-1.534
		c-0.129-0.568-0.736-1.051-1.818-2.704c-1.083-1.657-3.17-3.614-3.456-3.934c-0.269-0.333,1.238-1.529,1.336-1.649
		c0.019-0.051,0.096-0.073,0.186-0.051c-0.138-0.231-0.328-0.474-0.61-0.692c-1.226-0.94-0.703-1.042-1.72-0.991
		c-1.039,0.009-4.028,0.299-4.028,0.299l-1.096-0.671l-2.45-3.379L42.965,72.644l-0.33,0.675L42.6,74.58
		c0,0-0.326,0.333-0.396,0.414c-0.042,0.077-0.208,0.423,0.306,0.91c0.507,0.551,2.044,2.507,2.044,2.507l0.56-0.273l0.808,0.009
		l0.247-0.337c0,0,0.397-0.115,0.587,0.222c0.195,0.32,2.882,2.994,2.882,2.994s-0.317,0.252-0.389,0.637
		c-0.037,0.376-0.362,0.243-0.317,0.419c0.065,0.213,4.076,3.78,4.076,3.78L52.592,86.301z"/>
	<path fill="#706F6F" stroke="#FFFFFF" stroke-width="0.5816" stroke-linecap="round" stroke-linejoin="round" d="M70.664,105.865
		c0,0,0,0.03,0,0.034C70.664,105.895,70.664,105.865,70.664,105.865z"/>
	<path fill="#706F6F" stroke="#FFFFFF" stroke-width="0.5816" stroke-linecap="round" stroke-linejoin="round" d="M70.679,105.912
		c0,0.026,0,0.026,0,0.047C70.679,105.937,70.679,105.937,70.679,105.912z"/>
	<path fill="#706F6F" stroke="#FFFFFF" stroke-width="0.5816" stroke-linecap="round" stroke-linejoin="round" d="M70.679,105.976
		c0,0.051,0,0.107,0.012,0.183C70.679,106.083,70.679,106.027,70.679,105.976z"/>
	<path fill="#706F6F" stroke="#FFFFFF" stroke-width="0.5816" stroke-linecap="round" stroke-linejoin="round" d="M70.664,105.809
		c0,0,0,0.017,0,0.038C70.664,105.826,70.664,105.809,70.664,105.809z"/>
	<path fill="#706F6F" stroke="#FFFFFF" stroke-width="0.5816" stroke-linecap="round" stroke-linejoin="round" d="M9.858,83.571
		l1.698,0.666l-1.862,4.968l5.481,3.994l0.483-0.547l2.628,2.413l0.728-0.329l0.554,1.119l-0.465,0.555l8.334,8.466l9.975,9.372
		l1.051-0.231l4.661,8.125l3.208-2.576l-0.087-1.299l0.411-0.487v-1.269h0.716c0,0,0.352-0.978,2.35-1.328l0.729-0.141l0.361-0.367
		l0.293,0.043c0,0,0.204-0.248,0.336-0.359c0.12-0.137,0.279-0.282,0.361-0.316c0.092-0.026-0.281-0.824,0.051-1.017
		c0.34-0.184,0.738-0.333,0.738-0.44c0-0.133-0.47-0.393,0-0.701c0.467-0.316,0.599-0.316,0.599-0.316l0.382-0.38h0.363
		c0,0,0.372-0.103,0.356-0.269c-0.012-0.201-0.117-0.777-0.117-0.777s-0.477-0.214-0.311-0.367c0.158-0.188,0.158-0.363,0.465-0.316
		c0.33,0.021,0.575-0.355,0.575-0.355s0.473-0.372,0.804-0.393c0.317-0.026,0.619-0.406,0.619-0.406s0.38-0.303,0.518-0.303
		c0.145,0,0.455-0.243,0.559-0.329c0.093-0.051,0.436-0.367,0.697-0.342c0.248,0.064,0.346-0.41,0.728-0.419
		c0.402-0.094,0.321-0.671,0.321-0.671s0.071-0.269,0.468-0.38c0.432-0.098-0.066-0.474,0.349-0.666
		c0.402-0.192,0.606-0.419,0.566-0.709c-0.062-0.299-0.088-0.449-0.349-0.671c-0.264-0.192-0.203-0.389-0.403-0.666
		c-0.23-0.243-0.399-0.414-0.192-0.572c0.192-0.132,1.644-1.251,1.644-1.251l8.33,11.7c0,0,0,0.363,0.407,0.226
		c0.389-0.111,0.453-0.18,0.453-0.41c0-0.239-0.017-0.893-0.017-0.893l-0.378-0.333c0,0,0.284-0.196,0.351-0.427
		c0.075-0.252-0.386-0.337-0.386-0.641c0-0.278,0-2.768,0-2.768s0.366,0,0.386-0.265c0.044-0.248,0.19-0.397,0.3-0.602
		c0.044-0.192,0.033-0.521,0.028-0.756l-0.657,0.009l-0.386-0.201l-0.347-0.645l-0.646-0.705l-0.342-0.73l-1.378-1.534l-0.394,0.312
		l-0.357-0.359v-0.282l-0.359-0.273l-0.325-0.705l-0.301-0.295l-0.364-0.607l-1.541-1.858l0.034-0.38l-0.723-0.786l-0.005-0.38
		l-0.938-1.094l-0.761,0.171l-4.925-4.887l0.024-0.905l-3.423-3.725l0.416-0.44c0,0-4.011-3.567-4.076-3.78
		c-0.045-0.175,0.28-0.043,0.317-0.419c0.072-0.384,0.389-0.637,0.389-0.637s-2.687-2.674-2.882-2.994
		c-0.19-0.337-0.587-0.222-0.587-0.222l-0.247,0.337l-0.808-0.009l-0.56,0.273c0,0-1.537-1.956-2.044-2.507
		c-0.514-0.487-0.347-0.833-0.306-0.91c0.07-0.081,0.396-0.414,0.396-0.414l0.035-1.26l0.33-0.675l-0.269,0.564l-20.475-4.092
		v-1.461L10.827,65.81l-0.968,0.572c0,0-7.442,4.276-9.027,7.92c-1.5,3.49,0.496,5.925,1.495,5.925
		C3.289,80.227,9.019,82.307,9.858,83.571z"/>
	<path fill="#706F6F" stroke="#FFFFFF" stroke-width="0.5816" stroke-linecap="round" stroke-linejoin="round" d="M70.664,105.848
		c0,0.017,0,0.017,0,0.017S70.664,105.865,70.664,105.848z"/>
	<path fill="#706F6F" stroke="#FFFFFF" stroke-width="0.5816" stroke-linecap="round" stroke-linejoin="round" d="M101.592,80.252
		c0.037-0.743,0.054-1.815,0.209-2.559c0.166-0.748,1.54-2.166,1.698-2.486c0.169-0.333,0.404-4.618,0.294-5.361
		c-0.09-0.79-2.569-0.79-3.806-1.017c-1.257-0.235-3.97,0.269-4.061-0.901c-0.093-1.166-0.631-1.405-1.878-2.418
		c-1.205-1.021-1.171-3.272-1.171-3.977c0-0.666-1.188-1.85-2.671-3.99c-1.51-2.119-2.554-4.186-2.578-4.895
		c-0.026-0.722,4.843-2.49,6.269-3.114c1.418-0.585,9.358-4.152,11.971-4.938c1.878-0.53,2.215-1.354,2.955-1.397l-0.141-0.756
		c0,0-5.09-4.353-5.7-5.13c-0.636-0.76-2.168-5.186-2.168-5.186s-2.425-2.362-2.673-3.392c-0.246-1.021-2.621-2.507-3.949-3.289
		c-1.331-0.782-4.948-0.666-6.163,0c-1.244,0.658-4.013,0.658-4.013,0.658l-4.434,3.4c0,0-2.906,0.222-3.59,0.222
		c-0.648,0-1.263-0.406-1.263-0.406s-3.347-0.098-4.687-0.209c-1.354-0.111-3.336,1.307-4.842,1.307
		c-1.49,0-2.258-0.286-2.258-0.286l-0.034,1.371l-5.373,22.212l2.676,2.418l1.501,0.504c0,0,2.206,2.059,2.608,2.52
		c0.411,0.479-1.279,2.789-1.279,2.789l1.966,2.204c0,0,0.714,0.137,1.653,0.137c0.917,0,0.504-0.457,0.966-0.649
		c0.455-0.213,0.908,0.355,0.908,0.355s1.142,0.295,1.716,0.342c0.553,0.068,3.183,4.096,3.686,4.438
		c0.523,0.325,2.157-0.038,3.498-0.038c1.337,0,1.752,1.82,2.878,1.82c1.131,0,2.103,1.709,3.093,2.636
		c0.961,0.923,1.056,0.769,1.991,1.534c0.926,0.782,2.661,3.306,4.11,3.498c1.446,0.214,2.781,1.388,5.089,2.161
		c2.305,0.773,6.958,1.61,6.958,1.61C101.18,81.666,101.592,80.252,101.592,80.252z"/>
	<path fill="#706F6F" stroke="#FFFFFF" stroke-width="0.5816" stroke-linecap="round" stroke-linejoin="round" d="M81.646,24.183
		c-2.663-0.918-5.13-4.054-5.327-5.63c-0.202-1.581-2.383-4.549-3.762-5.532c-1.384-0.978-4.138-3.238-7.684-2.952
		c-3.552,0.29-1.789-0.496-4.835-3.639c-3.047-3.135-3.047-1.213-5.43-0.897c-2.369,0.299-3.563-1.273-6.412-1.593
		c-2.869-0.273-5.231,2.204-7.894,2.204c-2.668,0-2.566-1.106-4.349-1.7c-1.768-0.615-2.157-3.464-3.756-4.054
		c-1.558-0.568-1.272,1.495-3.241,1.281c-1.966-0.179-2.549,1.388-2.549,1.388s-3.465-0.29-5.93,0
		c-2.469,0.299-1.978-0.29-4.921,1.384c-2.968,1.7-2.593,2.759-2.689,5.233c-0.077,2.46,2.076,2.366,2.076,2.366l7.382,6.42
		c0,0,2.169,3.721,0.941,4.302c-1.149,0.53-3.462-0.107-3.807,1.311c-0.159-0.162-0.389-0.363-0.703-0.376
		c-0.373-0.021-0.832,0.133-1.172,0.329c0,0,0.029,0,0.029,0.013c0-0.013-0.029-0.013-0.034-0.034
		c-0.368-0.213-0.818,0.205-1.337,0.363c-0.512,0.201-1.4-0.62-1.716-0.752c-0.308-0.115-0.143,0.158-1.268-0.068
		c-1.118-0.239-1.475-1.303-1.988-1.337c-0.524,0-0.854,0.517-0.994,0.658c-0.126,0.145-0.373,0.124-0.373,0.124l-2.543-0.401
		c0,0-0.791,1.589-1.877,2.17c-1.083,0.607,0.984,2.072,1.383,3.55C7.253,29.8,6.36,30.59,7.941,33.551
		c1.578,2.943,1.578,2.943,1.578,2.943l0.382-0.128l0.439,0.372l0.304,0.35l0.031,1.743l0.671,0.739l0.049,0.658l0.363,0.252v0.995
		l0.301,0.474c0,0-0.065,1.243-0.065,1.585l0.411,0.231v4.084c0,0,0.653,0.585,0.653,0.859c0,0.269,0.233,0.222,0.57,0.29
		c0.335,0.103,0.512,0.619,0.512,0.619l0.412,0.688c0,0,0.498-0.021,0.796,0c0.276,0.013,0.241,0.487,0.241,0.487l0.244,0.337h0.781
		l1.032,1.021v1.726l-0.284,0.414c0,0,0.081,0.602-0.097,0.722c-0.174,0.154-0.65,0.675-0.65,0.675v2.794c0,0,0,0.124-0.144,0.346
		c-0.28,0.47-0.517,0.619-0.021,1.363c0.51,0.756,1.088,0.636,0.292,1.068c-0.787,0.389-0.27,0.538-0.605,0.773
		c-0.344,0.256,0.168,0.944-0.301,1.064c-0.45,0.086-1.121,0.333-1.345,0.739c-0.222,0.359-1.918,1.247-2.462,1.358
		c-0.547,0.115-1.202,0.619-1.202,0.619l11.395,1.845v1.461l20.475,4.092l0.269-0.564l17.838-11.068l0,0
		c0.528-0.397,1.16-0.863,1.454-1.282c0.474-0.709-0.668-0.978-1.341-2.332c-0.679-1.367-2.112-1.341-3.97-2.905
		c-1.875-1.538-3.283-2.973-4.627-5.271c-1.315-2.285-3.069-3.404-3.069-3.404h-7.37c0,0-3.914-3.61-5.294-4.724
		c-1.371-1.111-2.219-2.952-2.242-3.921c0-0.965,0.483-3.341,0.4-4.549c-0.021-0.606-2.562-1.884-2.562-1.884
		s-2.832-2.183-3.19-2.204c-0.018,0-0.037-0.047-0.037,0c-0.499-0.859-1.605-1.747-3.869-2.307
		c-3.732-0.897-4.854-1.662-5.217-2.055c0.014-0.06,0.034-0.073,0.034-0.073s0.329-1.115,1.768-0.812
		c1.449,0.359,2.174,0.812,2.553,1.363c0.413,0.602,3.295,1.153,4.18,1.153c0.901,0,2.184,2.67,3.141,3.007
		c0,0,1.446,0.432,2.571,1.008c1.12,0.555,0.719,1.363,1.772,1.85c1.044,0.465,1.127,1.85,1.127,2.345
		c0,0.376-0.779,0.662-0.959,1.205c-0.168,0.222-0.243,0.555-0.168,1.021c0.328,1.969,4.703,6.493,4.703,6.493
		s1.288,2.068,4.25,2.068c2.968,0,3.929-1.149,5.632,0.235c1.678,1.427,2.073,3.02,3.202,3.776c0.953,0.679,2.784,2.456,2.784,2.456
		s-0.134,1.076,1.115,1.863l5.331-22.191l0.034-1.371c0,0,0.768,0.286,2.258,0.286c1.506,0,3.488-1.418,4.842-1.307
		c1.34,0.111,4.687,0.209,4.687,0.209s0.615,0.406,1.263,0.406c0.685,0,3.59-0.222,3.59-0.222l4.434-3.4
		C84.015,26.105,83.077,24.666,81.646,24.183z M36.026,36.007c0,0,0,0,0,0.034C36.026,36.007,36.026,36.007,36.026,36.007z"/>
	<path fill="#706F6F" stroke="#FFFFFF" stroke-width="0.5816" stroke-linecap="round" stroke-linejoin="round" d="M78.095,162.182
		c-0.535-0.265-1.598-1.042-1.598-1.042s-1.699-1.076-1.281-1.7c0.457-0.632,0.297-1.008,0.16-1.581
		c-0.109-0.568,0.316-1.371,0.572-1.435c0.264-0.064-0.386-0.863-0.386-0.863s0.06-0.675-0.187-0.863
		c-0.235-0.192,0.506-1.444,0.572-1.76c0.077-0.303-0.436-0.88-0.436-0.88s2.78-1.341,2.78-1.914c0-0.551-3.781-6.882-3.781-6.882
		l1.002-0.521l-0.372,0.171L68.8,131.721l-5.061,3.212l1.09,1.546l-0.634,0.551h-0.851l-3.561,2.533l0.488,0.782l-0.548,0.214
		l-0.571,0.713l0.792,1.175c0,0,0.361,0.329-0.231,0.615c-0.605,0.286-1.623,1.124-1.969,1.124c-0.327,0-0.23-0.145-0.635,0
		c-0.4,0.175-0.895,0.73-1.574,0.769c-0.68,0.047-0.495,0.239-1.095,0.406c-0.554,0.175-0.446,0.372-1.148,0.021
		c-0.699-0.355-0.575-0.38-1.17-0.512c-0.567-0.068-1.741,0.863-1.825,0.863c-0.098,0-3.237,2.008-3.237,2.008l2.056,2.14
		l-4.795,3.127l-0.722-0.214l-3.454,2.354l0.075,0.555l-3.101,1.768l0.362,1.29l4.936,8.116l9.858,10.487
		c0,0,1.095-1.247,2.295-1.247c1.166,0,1.898,0.884,2.261,0.803c0,0,0.746,0.017,0.863-0.021c0.101-0.004,0.959-1.709,1.432-1.709
		c0.476,0,0.95-0.209,1.228-0.705c0.256-0.491,0.776-0.718,0.893-0.718c0.096,0,1.164-1.149,1.164-1.149s0.674-1.059,0.942-1.337
		c0.247-0.303,0.615-0.367,0.65-1.132c0.07-0.743,0.388-0.248,0.445-1.149c0.068-0.91,0.382-0.504,1.031-1.132
		c0.681-0.683,0.995-0.504,1.091-1.004c0.094-0.5,0.425-0.735,0.811-0.825c0.41-0.068,0.313-0.286,1.307-0.286
		c0.524,0,0.396-0.188,1.562-0.372c0,0,1.717,0.184,2.566-0.299c0.851-0.47,1.23,0.214,2.182-0.453
		c0.994-0.653,1.719-0.555,2.341-1.175c0.415-0.337,0.955-0.636,1.301-0.769C78.502,162.523,78.413,162.348,78.095,162.182z"/>
	<path fill="#706F6F" stroke="#FFFFFF" stroke-width="0.5816" stroke-linecap="round" stroke-linejoin="round" d="M78.324,162.31
		c0.018,0.038,0.018,0.047,0.037,0.047C78.342,162.357,78.342,162.348,78.324,162.31z"/>
	<path fill="#706F6F" stroke="#FFFFFF" stroke-width="0.5816" stroke-linecap="round" stroke-linejoin="round" d="M78.413,162.412
		c-0.003,0-0.003-0.026-0.003-0.026S78.41,162.412,78.413,162.412z"/>
	<path fill="#706F6F" stroke="#FFFFFF" stroke-width="0.5816" stroke-linecap="round" stroke-linejoin="round" d="M78.235,162.271
		c0.02,0,0.036,0.017,0.05,0.017C78.271,162.288,78.255,162.271,78.235,162.271z"/>
	<path fill="#706F6F" stroke="#FFFFFF" stroke-width="0.5816" stroke-linecap="round" stroke-linejoin="round" d="M78.457,162.464
		L78.457,162.464L78.457,162.464z"/>
	<path fill="#706F6F" stroke="#FFFFFF" stroke-width="0.5816" stroke-linecap="round" stroke-linejoin="round" d="M78.933,162.818
		c0.022,0.017,0.022,0.017,0.049,0.017C78.956,162.835,78.956,162.835,78.933,162.818z"/>
	<path fill="#706F6F" stroke="#FFFFFF" stroke-width="0.5816" stroke-linecap="round" stroke-linejoin="round" d="M78.873,162.784
		c0,0.021,0.007,0.021,0.007,0.034C78.881,162.805,78.873,162.805,78.873,162.784z"/>
	<path fill="#706F6F" stroke="#FFFFFF" stroke-width="0.5816" stroke-linecap="round" stroke-linejoin="round" d="M78.793,162.776
		L78.793,162.776L78.793,162.776z"/>
	<path fill="#706F6F" stroke="#FFFFFF" stroke-width="0.5816" stroke-linecap="round" stroke-linejoin="round" d="M78.095,162.182
		c0.047,0.021,0.078,0.043,0.106,0.06C78.173,162.224,78.142,162.203,78.095,162.182z"/>
	<path fill="#706F6F" stroke="#FFFFFF" stroke-width="0.5816" stroke-linecap="round" stroke-linejoin="round" d="M103.363,204.599
		l-10.101-9.863l1.852-1.922l-3.569-3.584l4.904-0.461l1.626-1.44c0,0,0.858,0.449,1.752,0.145c0.894-0.295,1.91-1.358,1.91-1.358
		l-6.443-6.091c0,0-1.987-2.576-3.91-3.682c-1.943-1.072-6.818-5.365-7.414-5.912c-0.599-0.53-5.678-4.981-5.678-4.981l-0.112-1.375
		l0.545-0.252v-1.068l0,0c-0.026-0.017-0.061-0.043-0.086-0.068c-0.346,0.133-0.885,0.432-1.301,0.769
		c-0.622,0.619-1.347,0.521-2.341,1.175c-0.952,0.666-1.331-0.017-2.182,0.453c-0.849,0.483-2.566,0.299-2.566,0.299
		c-1.166,0.184-1.038,0.372-1.562,0.372c-0.994,0-0.897,0.218-1.307,0.286c-0.385,0.09-0.716,0.325-0.811,0.825
		c-0.096,0.5-0.41,0.32-1.091,1.004c-0.648,0.628-0.962,0.222-1.031,1.132c-0.058,0.901-0.376,0.406-0.445,1.149
		c-0.035,0.765-0.404,0.829-0.65,1.132c-0.268,0.278-0.942,1.337-0.942,1.337s-1.068,1.149-1.164,1.149
		c-0.117,0-0.637,0.227-0.893,0.718c-0.278,0.495-0.752,0.705-1.228,0.705c-0.473,0-1.331,1.704-1.432,1.709
		c-0.116,0.038-0.863,0.021-0.863,0.021c-0.363,0.081-1.095-0.803-2.261-0.803c-0.995,0-1.911,0.846-2.194,1.153l0.218,0.615
		l11.975,11.713l2.383-2.341l1.647,1.487l0.123,0.525l11.846,11.585l-2.109,2.144l10.115,9.474c0,0,1.061-0.149,2.043,0.184
		c0.991,0.35,1.522,1.012,2.319,0.671c0.8-0.32,1.978-2.042,1.838-2.546c-0.125-0.547,0.689-1.059,1.137-1.059
		c0.463,0,1.373-1.815,2.705-2.602c1.327-0.79,2.074-1.247,3.122-1.328c1.056-0.064,0.38-0.594,0.914-0.649
		c0.283-0.051,0.603-0.252,0.848-0.457C103.436,204.629,103.363,204.599,103.363,204.599z"/>
	<path fill="#706F6F" stroke="#FFFFFF" stroke-width="0.5816" stroke-linecap="round" stroke-linejoin="round" d="M144.851,159.64
		c0,0,0.011-0.004,0.017-0.021C144.851,159.64,144.851,159.64,144.851,159.64z"/>
	<polygon fill="#706F6F" stroke="#FFFFFF" stroke-width="0.5816" stroke-linecap="round" stroke-linejoin="round" points="
		140.709,165.625 141.722,164.232 142.489,163.203 	"/>
	<path fill="#706F6F" stroke="#FFFFFF" stroke-width="0.5816" stroke-linecap="round" stroke-linejoin="round" d="M156.214,174.236
		c0,0-0.02-0.009-0.048-0.009C156.194,174.228,156.214,174.236,156.214,174.236z"/>
	<path fill="#706F6F" stroke="#FFFFFF" stroke-width="0.5816" stroke-linecap="round" stroke-linejoin="round" d="M156.052,174.172
		c-0.009-0.013-0.04-0.013-0.04-0.013S156.043,174.159,156.052,174.172z"/>
	<path fill="#706F6F" stroke="#FFFFFF" stroke-width="0.5816" stroke-linecap="round" stroke-linejoin="round" d="M156.426,174.356
		c0,0-0.03-0.034-0.056-0.034C156.396,174.322,156.426,174.356,156.426,174.356z"/>
	<path fill="#706F6F" stroke="#FFFFFF" stroke-width="0.5816" stroke-linecap="round" stroke-linejoin="round" d="M156.901,174.723
		L156.901,174.723c-0.067-0.051-0.133-0.128-0.219-0.166C156.768,174.595,156.833,174.672,156.901,174.723z"/>
	<path fill="#706F6F" stroke="#FFFFFF" stroke-width="0.5816" stroke-linecap="round" stroke-linejoin="round" d="M156.623,174.484
		c-0.036-0.013-0.056-0.034-0.085-0.064C156.568,174.45,156.587,174.471,156.623,174.484z"/>
	<polygon fill="#706F6F" stroke="#FFFFFF" stroke-width="0.5816" stroke-linecap="round" stroke-linejoin="round" points="
		145.91,159.063 145.91,159.063 145.91,159.063 	"/>
	<path fill="#706F6F" stroke="#FFFFFF" stroke-width="0.5816" stroke-linecap="round" stroke-linejoin="round" d="M156.214,174.236
		c0.028,0.034,0.046,0.034,0.062,0.034l0,0C156.26,174.27,156.242,174.27,156.214,174.236z"/>
	<path fill="#706F6F" stroke="#FFFFFF" stroke-width="0.5816" stroke-linecap="round" stroke-linejoin="round" d="M144.868,159.619
		L144.868,159.619L144.868,159.619z"/>
	<path fill="#706F6F" stroke="#FFFFFF" stroke-width="0.5816" stroke-linecap="round" stroke-linejoin="round" d="M167.227,162.942
		l-1.836-1.487c0,0-0.692-0.483-0.877-0.658c-0.193-0.124-0.395-0.286-0.48-0.359c-0.082-0.03-0.184-0.06-0.184-0.06
		c-0.027-0.038,0.048-0.12,0-0.145c-0.051-0.051-0.179,0.086-0.179,0.086s-0.109-0.094-0.148-0.15
		c-0.037-0.06-0.142-0.107-0.227-0.107c-0.1-0.021-0.398-0.359-0.398-0.359s-0.109-0.15-0.294-0.222
		c-0.188-0.081-0.16-0.184-0.28-0.209c-0.099-0.026-0.302-0.222-0.362-0.308c-0.068-0.073-0.597-0.308-0.597-0.308l-1.795-1.76
		l0.061-0.064l-0.719-0.679l0.033-0.252c0,0,0.12-0.308,0.153-0.342c0-0.021-0.065-0.094-0.065-0.094s0.065-0.06,0.032-0.188
		c-0.032-0.132-0.176-0.5-0.176-0.5s0.056-0.141,0.056-0.167c0,0-0.014-0.064-0.014-0.09c0-0.017,0.083-0.017,0.083-0.017
		l0.43-0.653l-0.02-0.047c0,0-0.392,0.542-0.435,0.615c-0.051,0.103-0.152,0.017-0.216-0.038c-0.072-0.026-0.072-0.081-0.072-0.081
		l0.229-0.333h-0.043c0,0-0.229,0.32-0.264,0.333c-0.021,0.055-0.147,0.06-0.147,0.06l-0.018-0.295l-0.392,0.18l-0.19,0.043
		l-0.269,0.068l-0.312-0.269c0,0-0.221,0.073-0.388,0.158c-0.151,0.043-0.112,0.111-0.112,0.111l-0.007,0.209l-0.221,0.107
		c-0.056-0.15-0.225-0.18-0.225-0.18l-0.128,0.056v0.124l-0.065,0.128v-0.021v-0.056l-0.067-0.051l-0.355,0.29
		c0,0-0.327,0.359-0.437,0.504c-0.102,0.158,0.127,0.529,0.187,0.602c0.041,0.064,0.014,0.064,0,0.086l0.057-0.038l0.017,0.038
		l-0.017,0.06l-0.043,0.064l-0.051,0.064l-0.065,0.051l-0.136,0.077c-0.127,0.064-0.237,0.111-0.294,0.197
		c-0.085,0.09-0.288,0.35-0.532,0.402c-0.263,0-0.471,0.243-0.702,0.359c-0.217,0.12-0.143,0.295-0.184,0.406
		c-0.033,0.128-0.056,0.179-0.295,0.367c-0.267,0.171-0.379,0.393-0.555,0.431c-0.137,0.026-0.192-0.111-0.376-0.09
		c-0.17,0.03-0.614,0.184-0.863,0.184c-0.243-0.051-0.366,0.034-0.422,0.12c-0.075,0.103-0.345,0.402-0.461,0.402
		c-0.086,0.026-0.154-0.086-0.268,0.115c-0.113,0.214-0.265,0.128-0.362,0.192c-0.081,0.081-0.197,0.064-0.264-0.021
		c-0.075-0.073-0.313-0.051-0.361-0.051c-0.054,0-0.204,0-0.176-0.209c0.036-0.222-0.032-0.068,0.036-0.141
		c0.058-0.111,0.029-0.26-0.068-0.196c-0.09,0.06,0.054,0.222-0.052,0.312c-0.103,0.073-0.329-0.086-0.329-0.086
		c-0.121-0.098-0.302-0.196-0.5-0.09c-0.168,0.132-0.294,0.09-0.406,0.09l0,0l0.127,0.201l0.23,0.748l1.624,1.367
		c0,0-0.369,0.312-0.339,0.517c0.011,0.163,1.624,1.811,1.624,1.811s2.353,1.644,2.581,2.085c0.22,0.444,5.234,5.792,5.234,5.792
		L167.227,162.942"/>
	<path fill="#706F6F" stroke="#FFFFFF" stroke-width="0.5816" stroke-linecap="round" stroke-linejoin="round" d="M145.333,159.362
		c0-0.021,0.032-0.021,0.032-0.021S145.333,159.341,145.333,159.362z"/>
	<path fill="#706F6F" stroke="#FFFFFF" stroke-width="0.5816" stroke-linecap="round" stroke-linejoin="round" d="M145.709,159.162
		c0-0.004,0.015-0.004,0.015-0.03C145.724,159.158,145.709,159.158,145.709,159.162z"/>
	<path fill="#706F6F" stroke="#FFFFFF" stroke-width="0.5816" stroke-linecap="round" stroke-linejoin="round" d="M145.018,159.533
		c0.036,0,0.036,0,0.05-0.03C145.055,159.533,145.055,159.533,145.018,159.533z"/>
	<path fill="#706F6F" stroke="#FFFFFF" stroke-width="0.5816" stroke-linecap="round" stroke-linejoin="round" d="M156.166,174.228
		c-0.027-0.026-0.049-0.026-0.114-0.056C156.117,174.202,156.139,174.202,156.166,174.228z"/>
	<path fill="#706F6F" stroke="#FFFFFF" stroke-width="0.5816" stroke-linecap="round" stroke-linejoin="round" d="M156.012,174.159
		c-0.064,0-0.115-0.026-0.166-0.026C155.897,174.134,155.948,174.159,156.012,174.159z"/>
	<path fill="#706F6F" stroke="#FFFFFF" stroke-width="0.5816" stroke-linecap="round" stroke-linejoin="round" d="M156.538,174.42
		c-0.026-0.026-0.068-0.051-0.112-0.064C156.469,174.369,156.512,174.394,156.538,174.42z"/>
	<path fill="#706F6F" stroke="#FFFFFF" stroke-width="0.5816" stroke-linecap="round" stroke-linejoin="round" d="M156.682,174.557
		c-0.019-0.051-0.037-0.06-0.059-0.073C156.645,174.497,156.663,174.505,156.682,174.557z"/>
	<path fill="#706F6F" stroke="#FFFFFF" stroke-width="0.5816" stroke-linecap="round" stroke-linejoin="round" d="M156.276,174.27
		c0.051,0.026,0.082,0.026,0.094,0.051C156.358,174.296,156.327,174.296,156.276,174.27L156.276,174.27z"/>
	<path fill="#706F6F" stroke="#FFFFFF" stroke-width="0.5816" stroke-linecap="round" stroke-linejoin="round" d="M186.65,201.276
		l20.151-19.103c0,0-2.217-0.525-5.233-0.444c-0.976,0.047-4.625-2.016-6.14-3.422c-1.482-1.414-5.963-1.858-7.913-1.901
		c-1.927-0.064-5.214-0.872-5.263-1.175c-0.029-0.299,0.53-0.419,0.326-0.735c-0.202-0.337-0.326,0.201-0.924,0.295
		c-0.627,0.077-1.028-0.589-1.028-0.589l-0.954-0.453l-10.945,6.655c0,0,1.279,2.324,2.898,3.597
		c1.644,1.247,1.275,1.845,4.02,2.777c2.737,0.927,3.659,1.102,3.944,2.883c0,0,0.757,2.473,1.086,4.126
		c0.303,1.683,1.322,2.905,1.095,3.746c-0.225,0.846-10.28,10.675-10.28,10.675l5.205,5.079l1.012-1.166l-0.32-0.688l9.447-9.513
		L186.65,201.276z"/>
	<path fill="#706F6F" stroke="#FFFFFF" stroke-width="0.5816" d="M156.856,173.971l0.045,0.752c0.604,0.547,1.078,1.252,1.078,1.252
		l0.328,0.867v0.013l4.868,8.462l0.575-0.735c0,0-0.103-0.987,0.423-2.063c0.493-1.059,3.96-2.956,3.96-2.956l0.596,0.842
		l10.969-6.655c0,0,0.514-0.419-0.363-0.944c-0.855-0.5-0.083-0.893-1.062-1.721c-0.965-0.85-4.986-4.02-6.24-5.045
		c0,0-0.06-0.705-0.262-0.705c-0.204,0-0.024,0.209-0.466,0.171c-0.226,0-2.166-1.273-4.077-2.563l-8.339,8.74L156.856,173.971z"/>
	<path fill="#706F6F" stroke="#FFFFFF" stroke-width="0.5816" stroke-linecap="round" stroke-linejoin="round" d="M143.89,187.974
		l-10.507-17.291c0,0-0.157-0.397-0.359-0.397c-0.177,0-0.298,0.474-0.41,1.042c-0.104,0.551-0.536,0.748-0.65,1.273
		c-0.112,0.526-0.414,0.73-0.414,0.73s-0.264,0.517-0.606,0.325c-0.348-0.201-0.569,0.081-0.719,0.111
		c-0.143,0.038-0.709,0.167-0.678,0.504c0.029,0.325-0.561,0.307-0.561,0.307l-0.303,0.017c0,0-0.644-0.137-0.807,0.077
		c-0.138,0.235-0.68,0.389-0.46,0.654c0.23,0.269,0.96,0.936,0.727,1.017c-0.234,0.064-0.337,0.427-0.63,0.427
		c-0.298,0-0.504,0.457-0.757,0.389c-0.27-0.073-0.473-0.982-0.721-1.094c-0.279-0.115-0.188-0.342-0.426-0.342
		c-0.222,0-0.1,0.047-0.331,0.538c-0.226,0.504-1.454,0.278-1.723,0.508c-0.265,0.299-1.054,1.431-1.205,1.64
		c-0.21,0.278-0.309,0.709-0.21,0.914c0.074,0.239,0.17,0.188,0.217,0.517c0.069,0.342-0.249,0.598-0.599,0.564
		c-0.335-0.034-0.49-0.316-0.735-0.179c-0.251,0.115-0.617,0.269-0.638,0.534c-0.014,0.201,0.219,0.064,0.203,0.521
		c-0.043,0.432-0.217,0.329-0.441,0.666c-0.258,0.303-0.082,1.085-0.098,1.23c0,0.158-0.281,0.286-0.396,0.491
		c-0.123,0.243,0.007,0.705-0.323,0.888c-0.319,0.201-0.418,0.607-0.418,0.607c-0.176,0.483-0.361-0.09-0.363,0.577
		c-0.027,0.671-0.625,0.611-0.625,0.611h-0.362l-1.828,1.644c0,0,0.127,0.893-0.033,1.508c-0.068,0.213-0.231,0.372-0.357,0.465
		c-0.443,0.474-0.36,1.017-0.36,1.017c-0.11,0.137-0.206,0.299-0.267,0.483c-0.214,0.389-0.297,0.816-0.457,0.952
		c-0.592,0.491-0.565,0.897-0.565,0.897s0.018,0.829-0.45,1.111c-0.436,0.342-0.652,0.726-0.652,0.726s-0.096,0.466-0.407,0.692
		c-0.303,0.239-0.327,0.812-0.54,1.158c-0.223,0.342-0.208,1-0.208,1c-0.318,0.517-0.186,0.355-0.214,1.111
		c-0.01,0.748-0.323,1.051-0.323,1.401c0,0.337-0.306,0.577-0.306,0.577s-0.108,0.073-0.304,0.184l0.321,0.504l2.99,4.63
		c0,0,0.85-0.051,1.971,0.854c1.131,0.923,0.127,0.752,1.038,1.751c0.91,0.927,1.151,1.965,1.151,1.965l-3.046,3.084l9.434,8.693
		c0,0,0.62-0.777,0.62-1.311c0-0.568,0.205-1.683,0.402-2.089c0.213-0.414,0.511-1.832,0-2.076c-0.499-0.26-0.402-0.918,0.299-1.187
		c0.723-0.248,2.243-1.965,2.243-1.965l0.758,0.15l9.749-9.487c0,0,0.501,0.35,0.781,0.038c0.227-0.286,0.8-0.393,1.045-0.594
		c0.25-0.214,0.45-0.914,0.45-0.914l4.476-2.806l1.268-2.106l-4.819-8.646L143.89,187.974z"/>
	<path fill="#706F6F" stroke="#FFFFFF" stroke-width="0.5816" stroke-linecap="round" stroke-linejoin="round" d="M157.933,175.932
		c0.012,0,0.018,0.017,0.018,0.017S157.945,175.932,157.933,175.932z"/>
	<path fill="#706F6F" stroke="#FFFFFF" stroke-width="0.5816" stroke-linecap="round" stroke-linejoin="round" d="M157.979,175.966
		v0.009V175.966z"/>
	<path fill="#706F6F" stroke="#FFFFFF" stroke-width="0.5816" stroke-linecap="round" stroke-linejoin="round" d="M157.877,175.855
		c0,0,0.035,0.021,0.035,0.034C157.912,175.877,157.877,175.855,157.877,175.855z"/>
	<path fill="#706F6F" stroke="#FFFFFF" stroke-width="0.5816" stroke-linecap="round" stroke-linejoin="round" d="M157.718,175.62
		c0.013,0.017,0.013,0.017,0.013,0.017S157.731,175.637,157.718,175.62z"/>
	<path fill="#706F6F" stroke="#FFFFFF" stroke-width="0.5816" stroke-linecap="round" stroke-linejoin="round" d="M157.592,175.475
		L157.592,175.475L157.592,175.475z"/>
	<polygon fill="#706F6F" stroke="#FFFFFF" stroke-width="0.5816" stroke-linecap="round" stroke-linejoin="round" points="
		158.805,186.308 162.378,183.95 158.307,176.855 158.29,176.769 154.513,179.14 154.885,179.7 147.006,184.684 147.624,185.68 
		143.89,187.974 143.89,187.974 141.423,189.764 146.241,198.409 145.434,199.763 146.097,200.43 148.746,205.047 156.396,200.741 
		157.083,201.643 161.406,199.067 160.664,197.713 164.734,195.227 	"/>
	<path fill="#706F6F" stroke="#FFFFFF" stroke-width="0.5816" stroke-linecap="round" stroke-linejoin="round" d="M181.77,197.533
		c0.227-0.841-0.791-2.063-1.095-3.746c-0.329-1.653-1.086-4.126-1.086-4.126c-0.285-1.781-1.207-1.956-3.944-2.883
		c-2.745-0.931-2.376-1.529-4.02-2.777c-1.619-1.273-2.898-3.597-2.898-3.597l-0.596-0.842c0,0-3.466,1.897-3.96,2.956
		c-0.526,1.076-0.423,2.063-0.423,2.063l-0.575,0.735l-2.511-4.319l0,0l1.714,2.952l-3.573,2.358l5.929,8.919l-4.07,2.486
		l0.742,1.354l1.768,2.806l0.56,0.906l2.552,2.362l0.708,1.324l-3.009,0.047l-3.227,1.794l4.136,7.296l-1.964,1.354l3.551,6.869
		c0,0,1.162-1.644,2.719-2.704c1.56-1.064,1.914-1.196,1.914-1.196l0.041-0.957l5.541-5.681l-5.205-5.079
		C171.491,208.208,181.545,198.379,181.77,197.533z"/>
	<path fill="#706F6F" stroke="#FFFFFF" stroke-width="0.5816" stroke-linecap="round" stroke-linejoin="round" d="M160.758,208.307
		l3.227-1.794l3.009-0.047l-0.708-1.324l-2.552-2.362l-0.56-0.906l-1.768-2.806l-4.323,2.576l-0.688-0.901l-7.649,4.306l-2.65-4.618
		l-0.663-0.666l-0.46,0.752l-4.476,2.806c0,0-0.2,0.701-0.45,0.914c-0.246,0.201-0.818,0.307-1.045,0.594
		c-0.28,0.312-0.781-0.038-0.781-0.038l-3.707,3.601l3.744,3.674v1.576l-0.309,0.666v2.17l-0.488,0.423l0.132,6.668l5.598-5.839
		c0,0,0.25-0.162,0.968,0.209c0.723,0.333,0.723,0.333,0.723,0.333l1.458-1.316l0.608,0.73c0,0,2.092-1.871,2.511-2.097
		c0.423-0.256,0.187-0.572,0-0.619c-0.186-0.056-0.419-0.705-0.419-0.705l2.54-1.508l0.066,0.884c0,0,7.671-4.964,9.111-5.31
		c0.025,0,0.025,0,0.025,0L160.758,208.307z"/>
	<path fill="#706F6F" stroke="#FFFFFF" stroke-width="0.5816" stroke-linecap="round" stroke-linejoin="round" d="M88.572,212.471
		l-10.115-9.474l2.109-2.144L68.72,189.268l-0.123-0.525l-1.647-1.487l-2.383,2.341l-10.604-13.075l-0.265-0.231
		c-0.801,0.367-1.425,1.072-1.425,1.072l-8.828-9.402l-19.038,23.784l33.023,32.208l-3.212,3.229l12.897,12.281l23.715-24.899
		L88.572,212.471z"/>
	<path fill="#706F6F" stroke="#FFFFFF" stroke-width="0.5816" stroke-linecap="round" stroke-linejoin="round" d="M110.29,201.276
		c0.196-0.111,0.304-0.184,0.304-0.184S110.487,201.164,110.29,201.276z"/>
	<path fill="#706F6F" stroke="#FFFFFF" stroke-width="0.5816" stroke-linecap="round" stroke-linejoin="round" d="M127.512,256.661
		l-1.07-0.107l-2.915-3.11l0.762-0.965l-3.673-3.434v-15.391l-2.971-2.879l6.919-7.608l-0.379-0.444
		c-0.034,0.026-0.034,0.034-0.034,0.034l-9.434-8.693l3.046-3.084c0,0-0.241-1.038-1.151-1.965
		c-0.911-0.999,0.093-0.829-1.038-1.751c-1.121-0.906-1.971-0.854-1.971-0.854l-2.99-4.63l-0.321-0.504
		c-0.181,0.073-0.394,0.248-0.626,0.47c-0.485,0.47-0.764,0-1.321,0.769c-0.597,0.799-1.279,0.897-1.279,0.897
		c-1.224,0.235-1.577,1.025-2.234,1.316c-0.516,0.231-1.109,0.026-1.331-0.056c0,0.013,0,0.013,0,0.013
		c-0.245,0.205-0.565,0.406-0.848,0.457c-0.534,0.056,0.142,0.585-0.914,0.649c-1.049,0.081-1.795,0.538-3.122,1.328
		c-1.332,0.786-2.242,2.602-2.705,2.602c-0.449,0-1.262,0.513-1.137,1.059c0.14,0.504-1.038,2.226-1.838,2.546
		c-0.798,0.342-1.328-0.32-2.319-0.671c-0.982-0.333-2.043-0.184-2.043-0.184l2.259,2.093l-23.715,24.899l8.656,8.838l-3.259,4.075
		l12.766,12.315l-0.468,0.696l5.64,5.203l3.713-3.558l9.851,9.398l-4.057,3.682l5.411,5.395l3.036,0.188l10.604,10.606l9.289-9.141
		l-6.379-6.848l14.968-14.904l-4.361-3.272L127.512,256.661z"/>
	<path fill="#706F6F" stroke="#FFFFFF" stroke-width="0.5816" stroke-linecap="round" stroke-linejoin="round" d="M166.481,223.825
		l-3.551-6.869l1.964-1.354l-4.111-7.27c0,0,0,0-0.025,0c-1.44,0.346-9.111,5.31-9.111,5.31l-0.066-0.884l-2.54,1.508
		c0,0,0.233,0.649,0.419,0.705c0.187,0.047,0.423,0.363,0,0.619c-0.419,0.226-2.511,2.097-2.511,2.097l-0.608-0.73l-1.458,1.316
		c0,0,0,0-0.723-0.333c-0.718-0.372-0.968-0.209-0.968-0.209l-5.598,5.839l-0.132-6.668l0.488-0.423v-2.17l0.309-0.666v-1.576
		l-3.744-3.674l-6.042,5.886l-0.758-0.15c0,0-1.521,1.717-2.243,1.965c-0.701,0.269-0.798,0.927-0.299,1.187
		c0.511,0.244,0.213,1.662,0,2.076c-0.197,0.406-0.402,1.521-0.402,2.089c0,0.496-0.492,1.175-0.586,1.277l0.379,0.444l-6.919,7.608
		l2.971,2.879v15.391l3.673,3.434l-0.762,0.965l2.915,3.11l1.07,0.107l5.014,5.476l4.361,3.272l3.978-4.259l-0.444-0.624l4.8-4.976
		l0.746,0.504l8.803-9.017l2.037,1.845l16.016-16.215l-8.048-7.518L166.481,223.825z"/>
	<path fill="#706F6F" stroke="#FFFFFF" stroke-width="0.5816" stroke-linecap="round" stroke-linejoin="round" d="M224.975,191.455
		c-0.65-0.171-3.078,0.32-3.815,0.577c-0.735,0.231-2.405,0.453-3.144,0.359c-0.725-0.081-0.23-0.615-1.283-0.756
		c-1.078-0.154-4.935-4.904-5.752-5.797c-0.811-0.901-2.906-3.11-3.407-3.417c-0.3-0.171-0.589-0.192-0.774-0.248l-10.523,9.961
		c0.606,0.38,1.38,0.824,1.787,0.935c0.681,0.115,6.971,4.361,8.67,4.853c1.667,0.487,3.68,2.815,4.054,2.939
		c0.37,0.145,0.95-0.009,0.95-0.009l1.339-1.354l6.372,5.758l4.824-5.263l3.751-8.334
		C228.025,191.66,225.618,191.575,224.975,191.455z"/>
	<path fill="#706F6F" stroke="#FFFFFF" stroke-width="0.5816" stroke-linecap="round" stroke-linejoin="round" d="M238.329,216.743
		c-1.92-0.615-2.882-1.828-5.291-2.789l-3.353-2.225h-1.853c0,0-1.338-0.619-2.89-1.256c-1.097-0.436-5.124-4.818-5.486-5.22
		l-0.005,0.004l-6.372-5.758l-1.339,1.354c0,0-0.581,0.154-0.95,0.009c-0.374-0.124-2.387-2.452-4.054-2.939
		c-1.699-0.491-7.989-4.737-8.67-4.853c-0.407-0.111-1.18-0.555-1.787-0.935l-9.628,9.141l0.184,0.645l-9.447,9.513l0.32,0.688
		l-1.012,1.166l-5.541,5.681l-0.041,0.957c0,0-0.353,0.133-1.914,1.196c-1.557,1.059-2.719,2.704-2.719,2.704l-1.705,1.324
		l6.262,5.865l13.227-13.695l5.937,5.775l-8.818,9.641l10.107,9.641l1.46-1.268c0,0,9.656,9.231,10.605,10.35
		c0.962,1.132,1.535,1.875,1.535,1.875l-8.755,9.547l3.531,3.302l12.831-13.819l32.858-32.477
		C245.556,219.887,240.249,217.388,238.329,216.743z"/>
	<path fill="#706F6F" stroke="#FFFFFF" stroke-width="0.5816" stroke-linecap="round" stroke-linejoin="round" d="M250.955,208.307
		c0,0-7.866-5.374-9.272-6.621c-1.915-1.692-3.432-4.054-4.735-5.041c-1.306-0.999-8.923-4.985-8.923-4.985l-3.751,8.334
		l-4.824,5.263l0.005-0.004c0.362,0.402,4.389,4.784,5.486,5.22c1.552,0.637,2.89,1.256,2.89,1.256h1.853l3.353,2.225
		c2.409,0.961,3.371,2.174,5.291,2.789c0.943,0.329,2.67,1.081,4.196,1.751l3.031,1.393l8.385-9.867L250.955,208.307z"/>
	<path fill="#706F6F" stroke="#FFFFFF" stroke-width="0.5816" stroke-linecap="round" stroke-linejoin="round" d="M220.139,259.797
		l0.615-0.713l-3.355-3.255l-0.614,0.457l-3.94-4.084l-0.146,0.162l-12.831,13.819l-3.531-3.302l8.755-9.547
		c0,0-0.573-0.743-1.535-1.875c-0.949-1.119-10.605-10.35-10.605-10.35l-1.46,1.268l-10.107-9.641l8.818-9.641l-5.937-5.775
		l-13.227,13.695l1.786,1.653l-16.016,16.215l-2.037-1.845l-8.803,9.017l-0.746-0.504l-4.8,4.976l29.089,27.941l-1.206,1.375
		l6.146,5.963l5.02-4.25l7.407,5.839l13.716-13.716l1.827,2.144l21.804-21.785L220.139,259.797z"/>
	<path fill="#706F6F" stroke="#FFFFFF" stroke-width="0.5816" stroke-linecap="round" stroke-linejoin="round" d="M9.694,136.992
		l6.51,12.922l-2.01,1.474l5.624,9.47l-2.319,2.084l2.803,4.327l1.018-0.393l10.136,16.036l11.99-14.951l-1.029-1.085l-4.936-8.116
		l-0.362-1.29l3.101-1.768l-0.075-0.555l3.454-2.354l0.722,0.214l4.795-3.127l-2.056-2.14c0,0,3.139-2.008,3.237-2.008
		c0.084,0,1.258-0.931,1.825-0.863c0.596,0.132,0.471,0.158,1.17,0.512c0.702,0.35,0.594,0.154,1.148-0.021
		c0.599-0.167,0.414-0.359,1.095-0.406c0.679-0.038,1.174-0.594,1.574-0.769c0.406-0.145,0.309,0,0.635,0
		c0.346,0,1.365-0.837,1.969-1.124c0.592-0.286,0.231-0.615,0.231-0.615l-0.792-1.175l0.571-0.713l0.548-0.214l-0.488-0.782
		l3.561-2.533h0.851l0.634-0.551l-1.09-1.546l-5.908-9.573c0,0-0.334,0.188-0.531,0.675c-0.204,0.474-0.812,0.474-0.812,0.474
		l-6.513-10.542l-0.252-0.782c-1.998,0.35-2.35,1.328-2.35,1.328h-0.716v1.269l-0.411,0.487l0.087,1.299l-3.208,2.576l-4.661-8.125
		l-1.051,0.231l-9.975-9.372c0,0-2.688,5.562-5.341,6.6c-2.659,1.042-1.965,2.627-1.965,2.627l3.048,4.972l-13.382,7.95
		l-4.402,2.755L9.694,136.992z"/>
	<path fill="#706F6F" stroke="#FFFFFF" stroke-width="0.5816" stroke-linecap="round" stroke-linejoin="round" d="M149.637,78.89
		c0.969-0.479,1.13,0.278,1.907-0.372c0.779-0.641,0.423-0.513,0.218-1.508c-0.182-1.029-0.543-1.106,0.54-1.674
		c1.092-0.555,1.418-2.256,1.171-2.649c-0.239-0.406-0.759-0.752-0.266-1.034c0.498-0.308,0.895,0.009,0.895-1.196
		c0-1.2,0.23-1.627-0.533-2.687l-0.335-0.337h0.019c-0.337-0.299-0.474-0.671-0.323-0.829c0.127-0.158,0.465-0.086,0.775,0.175
		c0.128,0.141,0.303,0.243,0.416,0.282c0.353,0.009,0.353-0.457,0.353-0.457c0.227-0.961,0.639-1.414,0.373-1.649
		c-0.273-0.214,0.266-2.576,0.014-3.311c-0.226-0.752-0.347-0.88-0.091-1.149c0.286-0.286,1.06-1.798,0.749-2.106
		c0,0-0.078-0.137-0.861-0.094c-0.084,0-0.144,0-0.201,0c0,0-0.119-0.043-0.119-0.192c0-0.239,0.22-0.218,0.22-0.218
		c0.302,0,0.662-0.021,0.96-0.137c0.852-0.299,1.038-3.447,0.781-4.306c-0.255-0.876,0.029-1.397-0.084-2.272
		c-0.097-0.854-0.493-1.115-0.157-1.448c0.339-0.346,0.882-0.316,0.339-1.264c-0.543-0.957-1.426-2.084-1.208-2.366
		c0.204-0.235,0.506-1.478,0.289-1.696c-0.257-0.243-0.348-0.47-0.422-0.863c-0.085-0.333,0.1-1.717-0.422-2.337
		c-0.521-0.577-1.878-1.149-2.406-0.999c-0.508,0.154-1.008,1.196-2.094,0.171c-1.092-1.004-6.212-2.008-7.11-2.008
		c-0.954,0-0.354-0.547-2.116-0.188c-1.774,0.376-4.651,0.282-4.651,0.282s-1.177,0.137-3.104,1.593
		c-1.923,1.444-1.849,0.38-3.862,1.128c-1.982,0.786-2.664,1.243-3.784,1.256c-1.131,0.013-1.981-0.133-3.017,0.141
		c-1.04,0.265-1.48,0.06-1.224,0.807c0,0,0.442,0.812,0.127,1.196c-0.314,0.384-0.714,0.111-0.714,0.111
		c-0.371-0.29-0.666-0.47-0.817-0.414c-0.518,0.124-1.505,0.722-2.741,0.773c-1.223,0.06-5.147-0.432-7.081-1.457
		c-1.921-1.064-1.52,0.252-4.172,1.008c-2.613,0.786-10.553,4.353-11.971,4.938c-1.426,0.624-6.294,2.392-6.269,3.114
		c0.024,0.709,1.068,2.777,2.578,4.895c1.482,2.14,2.671,3.323,2.671,3.99c0,0.705-0.034,2.956,1.171,3.977
		c1.247,1.012,1.786,1.252,1.878,2.418c0.091,1.17,2.804,0.666,4.061,0.901c1.237,0.226,3.716,0.226,3.806,1.017
		c0.11,0.743-0.125,5.028-0.294,5.361c-0.158,0.32-1.532,1.739-1.698,2.486c-0.155,0.743-0.172,1.815-0.209,2.559
		c0,0-0.412,1.414-0.04,1.743c0.389,0.312,4.492,1.551,4.492,1.551c0.606,0.414,1.548,0.243,2.942,0.854
		c1.389,0.619,3.401,1.918,5.685,1.884c2.284-0.043,9.357,3.178,9.357,3.178s2.047,0.701,2.734,1.82
		c0.671,1.106,2.641,0.521,2.641,0.521s1.083-0.692,1.716-0.316c0.645,0.384,0.465,0.521,1.541,0.359
		c1.059-0.141,0.894,1.119,1.001,1.401c0.111,0.252,2.639,2.273,2.639,2.273s0.587-0.034,0.587-0.307
		c0-0.295-0.133-1.572-0.133-1.572s0.648,0.086,0.676-0.111c0.032-0.192-0.239-0.512-0.559-0.82
		c-0.314-0.32-0.749-0.769-0.749-1.234c0-0.517,0.435-1.021-0.299-1.098c-0.709-0.064-0.93,0.077-0.93,0.077
		s-0.864-0.427-0.864-0.713c0-0.278,0.092-0.961-0.443-1.23c-0.534-0.312-1.153-0.589-0.973-0.859c0.182-0.295,0-0.213,0.539-0.478
		c0.518-0.299,1.249-0.854,1.741-0.889c0.531-0.043,1.364,0,1.904,0.457c0.538,0.474,2.348,1.683,3.501,1.277
		c1.131-0.367,1.627-0.803,1.777-1.158c0.142-0.372,0.25-0.542,1.028-0.649c0.786-0.137,0.206,0.56,1.715,0.397
		c1.514-0.12,2.68-0.009,3.115-0.56c0.423-0.53,1.07-1.867,1.368-2.349c0.262-0.436,0.295-2.072,0.295-2.072s0.557-0.363,0.36-0.987
		c-0.169-0.59-1.349-0.679-1.349-0.679s-0.168-0.474,0.139-0.748C149.07,78.971,149.637,78.89,149.637,78.89z"/>
</g>
<g>
	<path fill="#D01C2F" d="M450.681,226.28h-10.697v16.014h12.152v4.24h-17.025v-42.66h16.267v4.241h-11.394v14.051h10.697V226.28z"/>
	<path fill="#D01C2F" d="M474.666,202.735v36.457c0,2.089,0.19,5.569,0.254,7.342h-4.178l-0.316-3.861h-0.19
		c-1.013,2.216-3.164,4.367-6.393,4.367c-5.189,0-8.924-5.633-8.924-15.696c0-10.887,4.494-15.95,9.24-15.95
		c2.216,0,4.367,1.076,5.57,3.671h0.127v-16.329H474.666z M469.856,227.546c0-0.633,0-1.329-0.063-2.025
		c-0.316-3.164-2.216-5.949-4.558-5.949c-4.051,0-5.443,5.633-5.443,11.772c0,6.456,1.646,11.646,5.19,11.646
		c1.519,0,3.607-0.822,4.684-5.253c0.127-0.569,0.19-1.266,0.19-2.025V227.546z"/>
	<path fill="#D01C2F" d="M486.752,207.988c0.063,1.899-1.139,3.165-2.975,3.165c-1.582,0-2.785-1.266-2.785-3.165
		c0-1.898,1.267-3.164,2.849-3.164C485.613,204.824,486.752,206.09,486.752,207.988z M481.499,246.534V215.9h4.873v30.634H481.499z"
		/>
	<path fill="#D01C2F" d="M508.08,245.774c-1.076,0.633-2.912,1.14-5.063,1.14c-6.709,0-11.203-5.38-11.203-15.507
		c0-8.798,4.431-15.95,12.089-15.95c1.646,0,3.418,0.443,4.304,0.949l-0.949,3.987c-0.633-0.316-1.898-0.822-3.481-0.822
		c-4.873,0-7.089,5.823-7.089,11.836c0,7.152,2.722,11.456,7.216,11.456c1.329,0,2.405-0.316,3.544-0.823L508.08,245.774z"/>
	<path fill="#D01C2F" d="M517.508,207.988c0.063,1.899-1.139,3.165-2.975,3.165c-1.582,0-2.785-1.266-2.785-3.165
		c0-1.898,1.267-3.164,2.849-3.164C516.369,204.824,517.508,206.09,517.508,207.988z M512.255,246.534V215.9h4.873v30.634H512.255z"
		/>
	<path fill="#D01C2F" d="M542.696,231.217c0,11.836-5.506,15.823-10.19,15.823c-5.506,0-9.937-5-9.937-15.76
		c0-11.203,5-15.887,10.253-15.887C538.265,215.394,542.696,220.521,542.696,231.217z M527.442,231.217
		c0,5.063,0.887,11.963,5.317,11.963c4.177,0,5-7.216,5-11.963c0-4.684-0.823-11.898-5.127-11.898
		C528.265,219.318,527.442,226.533,527.442,231.217z M540.101,203.368l-6.646,8.545h-3.229l4.874-8.545H540.101z"/>
	<path fill="#D01C2F" d="M548.137,223.812c0-3.607-0.19-5.443-0.253-7.911h4.24l0.253,3.671h0.127
		c1.329-2.469,3.798-4.178,7.025-4.178c4.241,0,7.405,3.165,7.405,10.57v20.57h-4.873v-19.748c0-3.607-0.696-7.278-4.241-7.278
		c-2.025,0-3.987,1.709-4.62,5c-0.127,0.76-0.19,1.709-0.19,2.722v19.305h-4.873V223.812z"/>
	<path fill="#D01C2F" d="M582.31,246.534v-3.165l3.481-4.747c4.873-6.771,10.696-14.494,10.696-22.216
		c0-4.557-2.025-7.342-5.887-7.342c-2.975,0-4.873,1.582-5.949,2.278l-1.202-3.671c1.455-1.202,4.304-2.785,8.038-2.785
		c6.836,0,9.811,5.063,9.811,11.267c0,7.722-5.063,15.19-10.127,22.152l-2.785,3.798v0.127h13.734v4.304H582.31z"/>
	<path fill="#D01C2F" d="M627.309,225.9c0,15.001-4.747,21.14-10.696,21.14c-6.394,0-10.254-7.595-10.254-21.013
		c0-13.861,4.114-21.141,10.823-21.141C623.828,204.887,627.309,212.799,627.309,225.9z M611.233,225.964
		c0,9.938,1.708,16.899,5.759,16.899c3.861,0,5.443-7.025,5.443-16.899c0-9.621-1.582-16.899-5.506-16.899
		C613.005,209.064,611.233,216.09,611.233,225.964z"/>
	<path fill="#D01C2F" d="M631.04,246.534v-3.165l3.481-4.747c4.873-6.771,10.696-14.494,10.696-22.216
		c0-4.557-2.025-7.342-5.887-7.342c-2.975,0-4.873,1.582-5.949,2.278l-1.202-3.671c1.455-1.202,4.304-2.785,8.038-2.785
		c6.836,0,9.811,5.063,9.811,11.267c0,7.722-5.063,15.19-10.127,22.152l-2.785,3.798v0.127h13.734v4.304H631.04z"/>
	<path fill="#D01C2F" d="M676.039,225.9c0,15.001-4.747,21.14-10.696,21.14c-6.393,0-10.254-7.595-10.254-21.013
		c0-13.861,4.114-21.141,10.823-21.141C672.557,204.887,676.039,212.799,676.039,225.9z M659.962,225.964
		c0,9.938,1.709,16.899,5.76,16.899c3.861,0,5.443-7.025,5.443-16.899c0-9.621-1.582-16.899-5.506-16.899
		C661.734,209.064,659.962,216.09,659.962,225.964z"/>
</g>
<g>
	<g>
		<path d="M292.861,147.829c3.221-1.147,5.675-2.679,7.367-4.616c1.688-1.937,2.531-4.25,2.531-6.945
			c0-2.312-0.887-4.218-2.652-5.705c-1.755-1.489-4.47-2.232-8.125-2.232c-3.293,0-6.315,0.723-9.043,2.168
			c-2.731,1.461-5.034,3.355-6.91,5.726c-1.934,2.415-3.404,5.079-4.403,7.983c-1.005,2.91-1.504,5.976-1.504,9.172
			c0,4.623,1.188,8.193,3.562,10.711c2.376,2.521,5.808,3.771,10.301,3.771c3.278,0,6.434-0.925,9.484-2.777
			c3.044-1.851,5.581-4.326,7.619-7.427l-2.176-1.594c-1.875,2.506-3.792,4.403-5.734,5.672c-1.936,1.27-4.18,1.895-6.719,1.895
			c-2.86,0-5.044-1.059-6.534-3.177c-1.481-2.116-2.226-5.183-2.226-9.194c2.916-0.352,5.595-0.8,7.996-1.334
			C288.112,149.392,290.501,148.687,292.861,147.829z M277.935,148.559c0.677-4.997,2.313-9.157,4.886-12.505
			c2.58-3.352,5.393-5.02,8.438-5.02c0.538,0,1.054,0.043,1.563,0.115c0.508,0.073,0.983,0.266,1.442,0.566
			c0.436,0.285,0.786,0.706,1.073,1.274c0.276,0.58,0.412,1.352,0.412,2.342c0,2.358-0.512,4.39-1.535,6.092
			c-1.037,1.716-2.605,3.118-4.706,4.208c-1.47,0.755-3.328,1.368-5.56,1.841C281.711,147.933,279.699,148.296,277.935,148.559z"/>
		<path d="M333.691,129.589h-10.612l2.58-11.16h-6.85l-2.656,11.16h-6.951l-0.808,3.466h6.819l-7.699,33.086
			c-0.039,0.222-0.078,0.428-0.118,0.623l7.507,0.027c0-0.636,0.076-1.411,0.224-2.313c0.152-0.893,0.347-1.823,0.569-2.794
			l6.682-28.629h10.503L333.691,129.589z"/>
		<path d="M560.372,129.589H549.77l2.57-11.16h-6.847l-2.66,11.16h-6.948l-0.797,3.466h6.812l-7.701,33.086
			c-0.044,0.222-0.072,0.428-0.111,0.623l7.502,0.027c0-0.636,0.072-1.411,0.22-2.313c0.161-0.893,0.346-1.823,0.571-2.794
			l6.677-28.629h10.518L560.372,129.589z"/>
		<path d="M360.397,129.661c-0.53-0.472-1.18-0.824-1.936-1.034c-0.768-0.194-1.55-0.295-2.375-0.295
			c-1.694,0-3.316,0.527-4.881,1.561c-1.564,1.043-3.857,2.869-6.878,5.492h-0.184l1.283-5.561l-0.464-0.565l-6.61,0.455
			l-2.224,9.62l-0.015,0.008c-0.238,1.222-0.419,2.146-0.548,2.751l-5.557,24.703h7.109l6.136-27.292
			c1.421-1.605,2.757-2.886,4.004-3.854c1.249-0.966,2.381-1.69,3.36-2.174c0.986-0.485,1.831-0.809,2.525-0.973
			c0.701-0.164,1.206-0.244,1.511-0.244c-0.405,0.966-0.804,1.936-1.189,2.911c-0.372,0.971-0.562,1.858-0.562,2.645
			c0,0.838,0.344,1.607,1.025,2.291c0.687,0.681,1.711,1.025,3.079,1.025c1.017,0,1.798-0.183,2.351-0.556
			c0.545-0.363,1.042-0.893,1.505-1.575c0.383-0.56,0.673-1.265,0.875-2.114c0.205-0.847,0.307-1.624,0.307-2.335
			c0-1.326-0.141-2.339-0.408-3.03C361.372,130.816,360.959,130.205,360.397,129.661z"/>
		<path d="M395.555,132.469c-2.559-2.755-6.097-4.137-10.613-4.137c-3.273,0-6.316,0.681-9.127,2.035
			c-2.795,1.36-5.157,3.156-7.052,5.364c-1.888,2.216-3.385,4.768-4.5,7.694c-1.118,2.929-1.673,6.075-1.673,9.46
			c0,4.596,1.31,8.249,3.937,10.972c2.629,2.725,6.054,4.086,10.269,4.086c3.624,0,6.821-0.709,9.567-2.116
			c2.762-1.413,5.119-3.291,7.069-5.626c1.932-2.26,3.399-4.893,4.417-7.892c1.02-2.995,1.525-5.996,1.525-8.997
			C399.374,138.842,398.099,135.219,395.555,132.469z M390.729,150.346c-0.578,2.754-1.425,5.207-2.51,7.344
			c-1.097,2.181-2.518,3.987-4.27,5.411c-1.753,1.42-3.76,2.139-6.013,2.139c-2.542,0-4.443-0.928-5.694-2.805
			c-1.256-1.871-1.883-4.621-1.883-8.251c0-2.295,0.234-4.791,0.719-7.497c0.486-2.703,1.243-5.161,2.292-7.37
			c1.341-2.934,2.944-5.037,4.815-6.33c1.865-1.305,3.845-1.952,5.959-1.952c2.412,0,4.257,0.905,5.538,2.713
			c1.289,1.803,1.922,4.505,1.922,8.123C391.604,144.756,391.314,147.585,390.729,150.346z"/>
		<path d="M468.046,128.332c-3.274,0-6.308,0.681-9.117,2.035c-2.807,1.36-5.16,3.156-7.065,5.364
			c-1.877,2.216-3.377,4.768-4.497,7.694c-1.117,2.929-1.671,6.075-1.671,9.46c0,4.596,1.315,8.249,3.941,10.972
			c2.627,2.725,6.048,4.086,10.263,4.086c3.628,0,6.817-0.709,9.577-2.116c2.755-1.413,5.112-3.291,7.072-5.626
			c1.922-2.26,3.402-4.893,4.409-7.892c1.013-2.995,1.526-5.996,1.526-8.997c0-4.47-1.271-8.093-3.826-10.843
			C476.11,129.714,472.565,128.332,468.046,128.332z M473.833,150.346c-0.577,2.754-1.414,5.207-2.51,7.344
			c-1.081,2.181-2.507,3.987-4.273,5.411c-1.74,1.42-3.752,2.139-6.014,2.139c-2.525,0-4.424-0.928-5.688-2.805
			c-1.253-1.871-1.883-4.621-1.883-8.251c0-2.295,0.241-4.791,0.72-7.497c0.487-2.703,1.253-5.161,2.282-7.37
			c1.353-2.934,2.957-5.037,4.823-6.33c1.862-1.305,3.857-1.952,5.96-1.952c2.409,0,4.256,0.905,5.544,2.713
			c1.283,1.803,1.92,4.505,1.92,8.123C474.716,144.756,474.423,147.585,473.833,150.346z"/>
		<path d="M660.076,128.332c-3.274,0-6.31,0.681-9.113,2.035c-2.815,1.36-5.161,3.156-7.068,5.364
			c-1.875,2.216-3.381,4.768-4.496,7.694c-1.116,2.929-1.673,6.075-1.673,9.46c0,4.596,1.313,8.249,3.945,10.972
			c2.625,2.725,6.05,4.086,10.264,4.086c3.63,0,6.815-0.709,9.578-2.116c2.751-1.413,5.111-3.291,7.067-5.626
			c1.922-2.26,3.399-4.893,4.406-7.892c1.02-2.995,1.531-5.996,1.531-8.997c0-4.47-1.276-8.093-3.826-10.843
			C668.139,129.714,664.601,128.332,660.076,128.332z M665.864,150.346c-0.579,2.754-1.413,5.207-2.505,7.344
			c-1.096,2.181-2.516,3.987-4.271,5.411c-1.747,1.42-3.757,2.139-6.013,2.139c-2.537,0-4.434-0.928-5.695-2.805
			c-1.259-1.871-1.887-4.621-1.887-8.251c0-2.295,0.247-4.791,0.726-7.497c0.478-2.703,1.251-5.161,2.282-7.37
			c1.349-2.934,2.948-5.037,4.824-6.33c1.857-1.305,3.855-1.952,5.957-1.952c2.406,0,4.262,0.905,5.542,2.713
			c1.279,1.803,1.923,4.505,1.923,8.123C666.748,144.756,666.453,147.585,665.864,150.346z"/>
		<path d="M493.382,108.68l-0.543,2.33c0.836,0.095,1.674,0.19,2.487,0.263c0.821,0.078,1.496,0.23,2.036,0.454
			c0.562,0.251,0.988,0.63,1.296,1.125c0.307,0.503,0.461,1.199,0.461,2.122c0,0.449-0.028,0.836-0.094,1.136
			c-0.069,0.311-0.188,0.853-0.367,1.638l-10.913,47.379c-0.114,0.542-0.213,1.146-0.309,1.589l7.258,0.049
			c0-0.601,0.106-1.391,0.308-2.361c0.203-0.955,0.411-1.92,0.646-2.888l12.284-53.102l-0.384-0.569L493.382,108.68z"/>
		<path d="M512.341,129.628l-0.527,2.318c0.834,0.102,1.668,0.192,2.484,0.263c0.818,0.077,1.49,0.235,2.033,0.463
			c0.555,0.248,0.99,0.628,1.302,1.113c0.297,0.505,0.458,1.205,0.458,2.123c0,0.459-0.035,0.844-0.106,1.143
			c-0.061,0.308-0.179,0.859-0.352,1.646l-6.43,26.43c-0.121,0.542-0.223,1.146-0.305,1.589l7.243,0.049
			c0-0.601,0.112-1.391,0.317-2.361c0.193-0.955,0.413-1.92,0.65-2.888l7.794-32.163l-0.393-0.562L512.341,129.628z"/>
		<path d="M595.182,128.901l-6.988,1.791c-0.939-0.604-2.231-1.155-3.864-1.638c-1.635-0.482-3.355-0.723-5.163-0.723
			c-2.831,0-5.603,0.698-8.287,2.077c-2.698,1.391-5.016,3.208-6.961,5.468c-2.057,2.369-3.681,5.034-4.842,8.011
			c-1.169,2.972-1.745,6.033-1.745,9.185c0,4.57,1.049,8.183,3.127,10.827c2.096,2.639,4.983,3.961,8.656,3.961
			c1.374,0,2.647-0.229,3.809-0.709c1.17-0.467,2.24-1.02,3.228-1.65c1.038-0.631,1.957-1.303,2.721-2.001
			c0.698-0.64,1.302-1.152,1.823-1.583l-0.784,3.049c-0.155,0.63-0.282,1.224-0.386,1.739l7.614-0.058
			c0-0.584,0.106-1.405,0.318-2.457c0.211-1.058,0.438-1.991,0.66-2.803l2.092-8.876l0,0l5.434-23.036L595.182,128.901z
			 M576.487,162.392c-1.559,0.807-3.057,1.207-4.473,1.207c-1.394,0-2.546-0.264-3.457-0.803c-0.917-0.531-1.611-1.281-2.089-2.25
			c-0.504-0.995-0.848-2.082-1.028-3.273c-0.18-1.203-0.267-2.574-0.267-4.119c0-2.823,0.411-5.61,1.259-8.352
			c0.834-2.74,1.915-5.082,3.236-7.013c1.4-2.063,2.973-3.703,4.723-4.93c1.749-1.219,3.549-1.826,5.412-1.826
			c1.344,0,2.463,0.189,3.353,0.57c0.881,0.382,1.588,0.891,2.094,1.526c0.554,0.666,0.929,1.376,1.103,2.14
			c0.182,0.766,0.266,1.564,0.266,2.403l-3.606,15.175l-1.401,5.462C579.714,160.248,578.008,161.618,576.487,162.392z"/>
		<path d="M626.107,128.332c-2.578,0-4.89,0.542-6.912,1.622c-2.024,1.073-4.427,2.734-7.204,4.975h-0.114l1.183-5.105l-0.465-0.565
			l-6.62,0.455l-2.228,9.662l-0.05,0.058c-0.241,1.163-0.422,2.053-0.55,2.658l-5.71,24.703h7.112l6.507-27.98
			c1.687-1.932,3.492-3.404,5.399-4.422c1.918-1.018,3.647-1.531,5.18-1.531c1.587,0,2.778,0.5,3.589,1.495
			c0.811,0.985,1.209,2.332,1.209,4.042c0,0.529-0.085,1.246-0.242,2.135c-0.161,0.885-0.401,1.881-0.681,2.974l-5.611,21.546
			c-0.158,0.643-0.289,1.222-0.393,1.742l7.41-0.06c0-0.58,0.104-1.4,0.321-2.462c0.221-1.053,0.441-1.989,0.675-2.802l5.05-19.558
			c0.318-1.148,0.534-2.312,0.686-3.475c0.121-1.172,0.195-1.986,0.195-2.445c0-2.28-0.678-4.13-2.055-5.545
			C630.428,129.037,628.532,128.332,626.107,128.332z"/>
		<path d="M257.417,112.756c-0.101,0.377-0.475,1.262-1.134,2.634c-0.667,1.363-1.394,2.695-2.174,3.988l-20.999,34.024
			l-5.891-40.645h-18.902l-0.572,2.515c0.936,0.057,1.976,0.232,3.103,0.53c1.138,0.306,2.029,0.821,2.682,1.566
			c0.339,0.373,0.606,0.845,0.805,1.388c0.204,0.55,0.309,1.221,0.309,2.036c0,0.462-0.032,0.92-0.095,1.386
			c-0.065,0.481-0.165,1.006-0.293,1.586l-6.479,28.023c-0.116,0.509-0.23,0.949-0.336,1.41l-1.504,6.496
			c-0.705,3.198-1.396,5.544-2.088,7.1h5.843c-0.064-0.41-0.102-0.851-0.102-1.349c0-0.784,0.102-1.812,0.313-3.084
			c0.202-1.261,0.452-2.578,0.759-3.915l2.933-12.686h0.014l6.369-27.596h0.397l6.777,47.763h1.812l29.446-46.809h0.438
			l-9.373,40.251c0,0.021-0.001,0.027-0.001,0.044l-1.649,7.021c-0.026,0.123-0.052,0.243-0.091,0.359h7.95
			c0.026-0.122,0.054-0.243,0.073-0.359l4.815-20.675h0.009l5.772-24.802h-0.005l1.906-8.199H257.417z"/>
		<path d="M428.259,128.332c-1.96,0-3.916,0.527-5.889,1.561c-1.971,1.043-3.814,2.37-5.534,3.962h-0.048l0.93-4.032l-0.452-0.565
			l-6.616,0.455l-2.168,9.364l0,0c-0.01,0.024-0.012,0.047-0.012,0.063l-0.097,0.382h0.011c-0.191,0.82-0.352,1.754-0.517,2.562
			l-7.624,33.61h0.008l-1.618,7.143c-0.07,0.309-0.167,0.592-0.257,0.865h7.382c0.008-0.32,0.051-0.732,0.133-1.246
			c0.089-0.563,0.22-1.162,0.363-1.799l1.104-4.963h0.021c0.041-0.241,0.082-0.457,0.136-0.712l2.226-9.974
			c1.091,0.787,2.333,1.445,3.721,1.975c1.4,0.539,3.186,0.805,5.367,0.805c2.716,0,5.356-0.589,7.934-1.791
			c2.577-1.186,4.972-3.021,7.173-5.486c1.978-2.241,3.558-4.888,4.749-7.932c1.199-3.053,1.795-6.278,1.795-9.68
			c0-4.449-1.07-7.991-3.218-10.623C435.116,129.645,432.116,128.332,428.259,128.332z M431.588,151.532
			c-0.703,2.651-1.694,5.02-2.997,7.105c-1.242,2.015-2.735,3.602-4.486,4.764c-1.748,1.171-3.625,1.76-5.626,1.76
			c-1.955,0-3.629-0.628-5.017-1.887c-1.373-1.264-2.154-2.616-2.326-4.062l4.851-21.614c2.035-1.961,3.758-3.298,5.161-4.01
			c1.41-0.708,2.695-1.065,3.871-1.065c1.575,0,2.843,0.271,3.802,0.821c0.96,0.54,1.727,1.308,2.284,2.302
			c0.54,0.891,0.922,2.005,1.164,3.378c0.239,1.355,0.362,2.711,0.362,4.06C432.631,146.058,432.273,148.876,431.588,151.532z"/>
		<path d="M526.054,109.064c-1.295,0-2.413,0.519-3.354,1.55c-0.925,1.043-1.407,2.273-1.407,3.664c0,1.316,0.482,2.496,1.407,3.532
			c0.94,1.026,2.058,1.539,3.354,1.539c1.404,0,2.568-0.545,3.505-1.623c0.942-1.074,1.409-2.336,1.409-3.784
			c0-1.306-0.457-2.433-1.368-3.411C528.682,109.554,527.501,109.064,526.054,109.064z"/>
		<g>
			<g>
				<path d="M412.315,30.64c-0.905-0.81-2.013-1.414-3.317-1.76c-1.31-0.341-2.647-0.52-4.06-0.52c-2.897,0-5.687,0.903-8.362,2.675
					c-2.679,1.787-6.598,4.916-11.786,9.391h-0.305l2.197-9.51l-0.791-0.972l-11.322,0.782l-3.809,16.471l-0.026,0.022
					c-0.412,2.087-0.716,3.66-0.928,4.698l-9.518,42.3h12.166l10.504-46.735c2.427-2.737,4.711-4.937,6.849-6.588
					c2.147-1.655,4.074-2.896,5.758-3.727c1.688-0.821,3.136-1.385,4.325-1.665c1.195-0.286,2.063-0.425,2.586-0.425
					c-0.699,1.655-1.382,3.321-2.035,4.981c-0.642,1.674-0.963,3.198-0.963,4.534c0,1.438,0.589,2.753,1.752,3.923
					c1.181,1.16,2.934,1.752,5.275,1.752c1.742,0,3.079-0.308,4.012-0.945c0.941-0.625,1.796-1.527,2.585-2.714
					c0.663-0.941,1.159-2.148,1.506-3.606c0.347-1.454,0.519-2.785,0.519-4.014c0-2.256-0.242-3.989-0.698-5.172
					C413.997,32.619,413.282,31.573,412.315,30.64z"/>
				<path d="M472.254,35.449c-4.378-4.723-10.43-7.089-18.164-7.089c-5.598,0-10.817,1.159-15.625,3.488
					c-4.792,2.33-8.835,5.398-12.092,9.179c-3.222,3.784-5.785,8.172-7.695,13.188c-1.917,4.997-2.863,10.403-2.863,16.181
					c0,7.881,2.252,14.131,6.748,18.799c4.499,4.661,10.359,6.981,17.579,6.981c6.208,0,11.665-1.21,16.38-3.618
					c4.727-2.418,8.756-5.63,12.101-9.631c3.304-3.869,5.823-8.372,7.562-13.512c1.747-5.133,2.612-10.269,2.612-15.401
					C478.797,46.358,476.614,40.166,472.254,35.449z M463.995,66.056c-0.995,4.708-2.44,8.915-4.297,12.57
					c-1.876,3.73-4.314,6.822-7.318,9.261c-2.991,2.434-6.435,3.672-10.287,3.672c-4.351,0-7.605-1.605-9.745-4.809
					c-2.153-3.203-3.226-7.914-3.226-14.134c0-3.92,0.396-8.197,1.231-12.826c0.825-4.637,2.128-8.853,3.923-12.624
					c2.288-5.016,5.048-8.625,8.245-10.845c3.186-2.22,6.585-3.335,10.204-3.335c4.115,0,7.281,1.552,9.474,4.644
					c2.208,3.091,3.297,7.717,3.297,13.907C465.496,56.48,464.999,61.33,463.995,66.056z"/>
				<path d="M328.27,28.36c-5.606,0-10.801,1.159-15.612,3.488c-4.815,2.33-8.832,5.398-12.094,9.179
					c-3.215,3.784-5.789,8.172-7.701,13.188c-1.908,4.997-2.864,10.403-2.864,16.181c0,7.881,2.246,14.131,6.745,18.799
					c4.501,4.661,10.363,6.981,17.582,6.981c6.207,0,11.673-1.21,16.396-3.618c4.709-2.418,8.759-5.63,12.099-9.631
					c3.295-3.869,5.827-8.372,7.557-13.512c1.734-5.133,2.612-10.269,2.612-15.401c0-7.655-2.186-13.847-6.553-18.563
					C342.071,30.726,336.013,28.36,328.27,28.36z M338.178,66.056c-0.987,4.708-2.423,8.915-4.297,12.57
					c-1.859,3.73-4.297,6.822-7.304,9.261c-2.985,2.434-6.431,3.672-10.305,3.672c-4.332,0-7.588-1.605-9.74-4.809
					c-2.156-3.203-3.226-7.914-3.226-14.134c0-3.92,0.414-8.197,1.232-12.826c0.831-4.637,2.144-8.853,3.91-12.624
					c2.311-5.016,5.057-8.625,8.256-10.845c3.187-2.22,6.604-3.335,10.201-3.335c4.124,0,7.3,1.552,9.492,4.644
					c2.198,3.091,3.293,7.717,3.293,13.907C339.691,56.48,339.186,61.33,338.178,66.056z"/>
			</g>
			<path d="M237.106,15.061l-18.291,79.22l13.884-0.069c0.051-0.223,0.085-0.444,0.141-0.657l9.528-41.244h29.139l1.861-8.034
				h-29.153l8.667-37.47h15.797c2.336,0,4.428,0.029,6.215,0.134c1.794,0.076,3.351,0.208,4.705,0.38
				c2.596,0.388,4.792,2.286,6.6,5.681c1.788,3.408,2.789,7.42,2.944,12.05h4.883L299.37,1.99h-72.349l-1.026,4.279
				c1.247,0.137,2.804,0.422,4.664,0.847c1.861,0.423,3.262,0.919,4.236,1.433c1.033,0.532,1.716,1.101,2.051,1.726
				c0.311,0.625,0.492,1.386,0.492,2.244c0,0.439-0.052,0.865-0.106,1.262C237.257,14.202,237.189,14.622,237.106,15.061z"/>
		</g>
	</g>
</g>
</svg>
