<?xml version="1.0" encoding="utf-8"?>
<!-- Generator: Adobe Illustrator 17.0.0, SVG Export Plug-In . SVG Version: 6.00 Build 0)  -->
<!DOCTYPE svg PUBLIC "-//W3C//DTD SVG 1.1//EN" "http://www.w3.org/Graphics/SVG/1.1/DTD/svg11.dtd">
<svg version="1.1" id="Layer_1" xmlns="http://www.w3.org/2000/svg" xmlns:xlink="http://www.w3.org/1999/xlink" x="0px" y="0px"
	 width="579.936px" height="61.773px" viewBox="0 0 579.936 61.773" enable-background="new 0 0 579.936 61.773"
	 xml:space="preserve">
<line fill="none" stroke="#B8272E" stroke-width="3" x1="579.936" y1="60.273" x2="0" y2="60.273"/>
<line fill="none" stroke="#B8272E" stroke-width="3" x1="579.936" y1="11.48" x2="0" y2="11.48"/>
<g>
	<g>
		<rect x="139.99" y="16.443" fill="#D8D9DA" width="26.286" height="39.462"/>
	</g>
	<rect x="0.818" y="52.461" fill="#D8D9DA" width="162.627" height="3.443"/>
	<rect x="0.818" y="45.257" fill="#D8D9DA" width="162.627" height="3.443"/>
	<rect x="0.818" y="38.054" fill="#D8D9DA" width="162.627" height="3.443"/>
	<rect x="0.818" y="30.85" fill="#D8D9DA" width="162.627" height="3.443"/>
	<rect x="0.818" y="23.647" fill="#D8D9DA" width="162.627" height="3.443"/>
	<rect x="0.818" y="16.443" fill="#D8D9DA" width="162.627" height="3.443"/>
</g>
<g>
	<g>
		<rect x="414.344" y="16.443" fill="#D8D9DA" width="26.286" height="39.462"/>
	</g>
	<rect x="417.174" y="16.443" fill="#D8D9DA" width="162.627" height="3.443"/>
	<rect x="417.174" y="23.647" fill="#D8D9DA" width="162.627" height="3.443"/>
	<rect x="417.174" y="30.85" fill="#D8D9DA" width="162.627" height="3.443"/>
	<rect x="417.174" y="38.054" fill="#D8D9DA" width="162.627" height="3.443"/>
	<rect x="417.174" y="45.257" fill="#D8D9DA" width="162.627" height="3.443"/>
	<rect x="417.174" y="52.461" fill="#D8D9DA" width="162.627" height="3.443"/>
</g>
<line fill="none" stroke="#D8D9DA" stroke-width="1.4011" x1="413.878" y1="56.011" x2="413.878" y2="16.443"/>
<line fill="none" stroke="#B8272E" stroke-width="1.4011" x1="410.093" y1="56.011" x2="410.093" y2="16.443"/>
<line fill="none" stroke="#D8D9DA" stroke-width="1.4011" x1="169.526" y1="56.011" x2="169.526" y2="16.443"/>
<line fill="none" stroke="#B8272E" stroke-width="1.4011" x1="165.741" y1="56.011" x2="165.741" y2="16.443"/>
<g>
	<path fill="#B8272E" d="M201.763,17.052v39.05h-4.461v-39.05H201.763z"/>
	<path fill="#B8272E" d="M208.831,56.102v-39.05h4.229l7.184,18.309c1.623,4.171,3.65,9.386,4.983,13.615h0.115
		c-0.348-6.142-0.521-11.183-0.521-17.961V17.052h3.998v39.05h-4.229l-7.416-18.771c-1.564-3.94-3.244-8.401-4.635-13.268h-0.116
		c0.348,5.214,0.464,10.196,0.464,18.54v13.499H208.831z"/>
	<path fill="#B8272E" d="M234.9,50.946c1.332,0.869,3.649,1.564,5.62,1.564c4.056,0,6.488-2.665,6.488-6.605
		c0-3.592-2.085-5.794-5.156-8.111c-3.07-2.144-7.358-5.793-7.358-10.834c0-5.91,4.114-10.255,10.313-10.255
		c2.434,0,4.577,0.753,5.504,1.448l-1.101,3.824c-0.985-0.695-2.607-1.333-4.635-1.333c-3.824,0-5.62,2.897-5.62,5.563
		c0,3.882,2.027,5.388,5.735,8.053c4.693,3.303,6.779,6.895,6.779,11.24c0,6.721-4.751,10.95-10.95,10.95
		c-2.666,0-5.505-0.869-6.605-1.681L234.9,50.946z"/>
	<path fill="#B8272E" d="M273.715,55.407c-1.217,0.638-3.129,1.043-5.562,1.043c-7.648,0-13.095-6.142-13.095-19.409
		c0-15.411,7.648-20.336,13.79-20.336c2.375,0,4.056,0.464,4.866,0.984l-0.984,3.767c-0.928-0.406-1.912-0.812-3.94-0.812
		c-4.171,0-9.038,4.056-9.038,15.991c0,11.935,4.403,15.875,9.154,15.875c1.68,0,3.187-0.406,4.113-0.869L273.715,55.407z"/>
	<path fill="#B8272E" d="M278.291,17.632c1.912-0.521,4.229-0.753,6.431-0.753c3.882,0,6.779,0.811,8.807,2.781
		c1.912,1.97,2.723,4.577,2.723,7.647c0,4.982-2.317,8.228-6.257,10.023v0.115c2.896,0.869,4.403,3.65,5.272,8.749
		c0.869,5.388,1.68,8.69,2.201,9.907h-4.519c-0.58-1.159-1.333-4.867-2.086-9.676c-0.869-5.33-2.55-7.357-6.373-7.357h-1.738v17.033
		h-4.461V17.632z M282.751,35.65h1.854c4.288,0,7.127-3.129,7.127-7.821c0-4.52-1.854-7.3-6.663-7.358
		c-0.869,0-1.738,0.059-2.317,0.232V35.65z"/>
	<path fill="#B8272E" d="M306.446,17.052v39.05h-4.461v-39.05H306.446z"/>
	<path fill="#B8272E" d="M313.513,17.632c1.854-0.463,4.056-0.753,6.547-0.753c3.534,0,6.547,0.753,8.633,2.723
		c1.68,1.564,2.549,3.882,2.549,6.663c0,3.998-2.201,7.185-6.025,8.69v0.116c4.52,1.217,7.242,4.866,7.242,9.965
		c0,3.245-1.043,5.852-2.781,7.764c-2.201,2.491-5.852,3.534-10.313,3.534c-2.897,0-4.635-0.174-5.852-0.405V17.632z
		 M317.974,33.623h2.027c3.65,0,6.779-2.781,6.779-6.895c0-3.593-1.681-6.373-6.432-6.373c-1.042,0-1.854,0.115-2.375,0.289V33.623z
		 M317.974,52.568c0.521,0.116,1.274,0.231,2.26,0.231c4.635,0,7.647-2.723,7.647-7.764c0-5.388-3.766-7.938-7.938-7.995h-1.97
		V52.568z"/>
	<path fill="#B8272E" d="M342.074,17.052v39.05h-4.461v-39.05H342.074z"/>
	<path fill="#B8272E" d="M353.718,21.05h-7.127v-3.997h18.714v3.997h-7.126v35.053h-4.461V21.05z"/>
	<path fill="#B8272E" d="M383.901,37.562h-9.791V52.22h11.124v3.882h-15.585v-39.05h14.89v3.882H374.11v12.862h9.791V37.562z"/>
</g>
<rect x="0" y="0" fill="#B8272E" width="579.936" height="1.222"/>
<line fill="none" stroke="#6F7072" stroke-width="1.004" stroke-dasharray="2.008,2.008" x1="0" y1="5.377" x2="579.936" y2="5.377"/>
</svg>
