<?xml version="1.0" encoding="utf-8"?>
<!-- Generator: Adobe Illustrator 17.0.0, SVG Export Plug-In . SVG Version: 6.00 Build 0)  -->
<!DOCTYPE svg PUBLIC "-//W3C//DTD SVG 1.1//EN" "http://www.w3.org/Graphics/SVG/1.1/DTD/svg11.dtd">
<svg version="1.1" id="Layer_1" xmlns="http://www.w3.org/2000/svg" xmlns:xlink="http://www.w3.org/1999/xlink" x="0px" y="0px"
	 width="272.417px" height="59.123px" viewBox="0 0 272.417 59.123" enable-background="new 0 0 272.417 59.123"
	 xml:space="preserve">
<rect x="31.465" y="0" fill="#FFFFFF" width="240.952" height="59.123"/>
<circle fill="#FFFFFF" cx="29.562" cy="29.562" r="29.562"/>
<g>
	<g>
		<path fill="#1A171B" d="M16.624,28.487c0,2.795-0.99,3.928-2.398,3.928c-1.683,0-2.343-1.782-2.343-3.817
			c0-2.024,0.803-3.773,2.442-3.773C16.118,24.824,16.624,26.792,16.624,28.487z M13.379,28.619c0,1.684,0.318,2.542,0.902,2.542
			c0.604,0,0.836-1.101,0.836-2.607c0-1.298-0.198-2.476-0.848-2.476C13.697,26.078,13.379,27.024,13.379,28.619z"/>
		<path fill="#1A171B" d="M17.536,25.022c0.451-0.089,1.023-0.144,1.573-0.144c0.793,0,1.497,0.11,1.98,0.55
			c0.451,0.407,0.583,0.902,0.583,1.541c0,0.792-0.385,1.507-1.144,1.859v0.021c0.506,0.198,0.759,0.671,0.901,1.463
			c0.144,0.825,0.342,1.738,0.474,2.014h-1.508c-0.088-0.209-0.253-0.957-0.362-1.771c-0.132-0.924-0.363-1.188-0.848-1.188h-0.209
			v2.959h-1.441V25.022z M18.977,28.256h0.253c0.627,0,0.99-0.507,0.99-1.155c0-0.627-0.253-1.078-0.902-1.101
			c-0.12,0-0.264,0.012-0.341,0.044V28.256z"/>
		<path fill="#1A171B" d="M26.821,32.128c-0.319,0.132-1.001,0.265-1.54,0.265c-0.848,0-1.485-0.242-1.98-0.737
			c-0.639-0.616-0.979-1.717-0.957-2.992c0.032-2.696,1.573-3.818,3.146-3.818c0.561,0,0.979,0.11,1.21,0.221l-0.253,1.243
			c-0.209-0.11-0.484-0.165-0.848-0.165c-0.979,0-1.76,0.671-1.76,2.607c0,1.782,0.693,2.42,1.364,2.42
			c0.132,0,0.23-0.011,0.286-0.033v-1.793h-0.66v-1.177h1.991V32.128z"/>
		<path fill="#1A171B" d="M29.075,30.632l-0.33,1.694h-1.397l1.606-7.415h1.728l1.44,7.415h-1.396l-0.319-1.694H29.075z
			 M30.274,29.51l-0.242-1.551c-0.077-0.451-0.176-1.188-0.242-1.684h-0.033c-0.077,0.495-0.187,1.265-0.264,1.694l-0.275,1.54
			H30.274z"/>
		<path fill="#1A171B" d="M32.935,32.327v-7.415h1.32l1.145,2.904c0.22,0.572,0.583,1.529,0.792,2.167h0.022
			c-0.045-0.78-0.144-2.068-0.144-3.432v-1.64h1.266v7.415h-1.32l-1.134-2.816c-0.241-0.627-0.583-1.563-0.748-2.233h-0.021
			c0.033,0.748,0.088,1.893,0.088,3.378v1.672H32.935z"/>
		<path fill="#1A171B" d="M40.052,24.912v7.415h-1.441v-7.415H40.052z"/>
		<path fill="#1A171B" d="M40.822,31.48l2.344-5.281v-0.033h-2.124v-1.254h3.752v1.067l-2.244,5.061v0.033h2.233v1.254h-3.961V31.48
			z"/>
		<path fill="#1A171B" d="M46.774,30.632l-0.33,1.694h-1.397l1.606-7.415h1.728l1.44,7.415h-1.396l-0.319-1.694H46.774z
			 M47.973,29.51l-0.242-1.551c-0.077-0.451-0.176-1.188-0.242-1.684h-0.033c-0.077,0.495-0.187,1.265-0.264,1.694l-0.275,1.54
			H47.973z"/>
	</g>
</g>
<g>
	<path fill="#211E20" d="M94.536,42.318l-7.205-7.202l-2.629,2.625l7.203,7.201c4.135,4.137,10.338,4.937,15.279,2.408l-2.829-2.828
		C101.038,45.7,97.189,44.977,94.536,42.318"/>
	<path fill="#060E9F" d="M87.784,16.283l7.202,7.207l2.631-2.63l-7.205-7.198c-4.138-4.141-10.342-4.937-15.282-2.404l2.826,2.826
		C81.28,12.905,85.126,13.627,87.784,16.283"/>
	<path fill="#C3002F" d="M85.333,25.488l-2.629-2.629l-7.189,7.181c-4.139,4.155-4.938,10.366-2.391,15.313l2.824-2.83
		c-1.193-3.32-0.468-7.185,2.196-9.847L85.333,25.488z"/>
	<path fill="#FFB819" d="M96.983,33.12l2.629,2.629l7.192-7.192c4.141-4.142,4.938-10.36,2.389-15.306l-2.826,2.825
		c1.198,3.324,0.474,7.193-2.192,9.853L96.983,33.12z"/>
	<path fill="#060E9F" d="M90.37,44.987l0.044-0.045c-0.016,0.017-0.03,0.028-0.045,0.045H90.37z"/>
	
		<rect x="92.634" y="36.097" transform="matrix(0.7074 -0.7068 0.7068 0.7074 0.9031 78.0938)" fill="#060E9F" width="4.282" height="3.719"/>
	<path fill="#060E9F" d="M90.386,44.951l-2.618-2.617l0.015-0.022c-0.005,0.01-0.012,0.014-0.021,0.019l-0.004-0.005
		c-0.017,0.019-0.034,0.039-0.05,0.056c-2.658,2.609-6.48,3.314-9.776,2.127l-2.819,2.824c2.86,1.475,6.144,1.82,9.208,1.053
		c-0.778,3.076-0.432,6.374,1.047,9.247l2.825-2.825c-1.184-3.295-0.477-7.125,2.13-9.779c0.014-0.016,0.032-0.03,0.045-0.041
		l-0.006-0.005C90.372,44.973,90.38,44.963,90.386,44.951"/>
	<path fill="#211E20" d="M91.944,13.623l2.61,2.605c0-0.001,0.001-0.001,0.004-0.005l0.018,0.017l-0.045,0.043
		c2.665-2.665,6.53-3.383,9.849-2.194l2.831-2.817h-0.005c-2.866-1.478-6.158-1.823-9.23-1.049c0.792-3.089,0.456-6.412-1.033-9.301
		l-2.826,2.826c1.195,3.329,0.472,7.192-2.196,9.856l0.019,0.014l-0.037,0.044C91.918,13.646,91.93,13.635,91.944,13.623"/>
	
		<rect x="85.398" y="18.79" transform="matrix(-0.707 0.7073 -0.7073 -0.707 164.0323 -26.6644)" fill="#211E20" width="4.285" height="3.719"/>
	<path fill="#C3002F" d="M96.975,25.476l3.036,3.038l2.632-2.631l-3.041-3.036L96.975,25.476z M119.516,35.066l-2.828-2.822
		c-3.326,1.193-7.19,0.469-9.854-2.193l-0.014,0.014l-0.018-0.018c0.006,0.008,0.013,0.013,0.018,0.018l-2.612,2.614
		c0.009,0.005,0.019,0.016,0.027,0.025l-0.018,0.017l-0.043-0.045c2.658,2.653,3.381,6.507,2.202,9.825l2.825,2.826
		c1.472-2.864,1.812-6.153,1.038-9.222C113.322,36.896,116.636,36.551,119.516,35.066"/>
	<path fill="#FFB819" d="M75.513,28.556c-0.014-0.014-0.028-0.03-0.041-0.044v0.001L75.513,28.556z M82.308,30.092l-2.631,2.634
		l3.038,3.036l2.632-2.634L82.308,30.092z M78.111,25.882c-0.009-0.009-0.022-0.017-0.031-0.028c-2.6-2.657-3.312-6.469-2.137-9.754
		l-2.83-2.824c-1.459,2.853-1.805,6.123-1.043,9.177c-3.082-0.782-6.385-0.441-9.262,1.04l2.824,2.828
		c3.306-1.188,7.148-0.478,9.809,2.153c0.009,0.012,0.019,0.023,0.032,0.039l0.005-0.003c0.004,0,0.006,0.003,0.008,0.004
		l2.621-2.625l0.039,0.039c-0.014-0.014-0.025-0.023-0.035-0.04L78.111,25.882z"/>
	<path fill="#211E20" d="M150.107,40.626c0.972-0.345,1.714-0.81,2.221-1.393c0.51-0.583,0.765-1.282,0.765-2.095
		c0-0.699-0.266-1.272-0.8-1.721c-0.531-0.446-1.348-0.673-2.45-0.673c-0.995,0-1.909,0.217-2.731,0.655
		c-0.823,0.438-1.518,1.011-2.086,1.728c-0.583,0.728-1.025,1.531-1.329,2.406c-0.301,0.879-0.454,1.804-0.454,2.769
		c0,1.394,0.359,2.472,1.075,3.231c0.716,0.76,1.751,1.139,3.109,1.139c0.989,0,1.941-0.279,2.863-0.839
		c0.916-0.558,1.684-1.303,2.295-2.241l-0.655-0.481c-0.565,0.757-1.142,1.327-1.728,1.711c-0.587,0.384-1.263,0.574-2.029,0.574
		c-0.865,0-1.522-0.319-1.97-0.959c-0.45-0.64-0.675-1.564-0.675-2.777c0.881-0.105,1.689-0.24,2.414-0.403
		C148.674,41.099,149.394,40.887,150.107,40.626 M145.602,40.847c0.204-1.507,0.699-2.762,1.477-3.774
		c0.777-1.011,1.626-1.515,2.543-1.515c0.164,0,0.319,0.014,0.473,0.034c0.154,0.025,0.297,0.083,0.436,0.172
		c0.13,0.085,0.235,0.215,0.323,0.386c0.084,0.173,0.127,0.407,0.127,0.704c0,0.711-0.158,1.325-0.467,1.838
		c-0.31,0.52-0.784,0.943-1.419,1.27c-0.445,0.23-1.004,0.414-1.679,0.556C146.744,40.661,146.137,40.769,145.602,40.847"/>
	<path fill="#211E20" d="M162.428,35.123h-3.201l0.777-3.366h-2.066l-0.8,3.366h-2.1l-0.242,1.047h2.057l-2.325,9.982
		c-0.01,0.066-0.023,0.128-0.035,0.189l2.263,0.006c0-0.19,0.026-0.424,0.071-0.694c0.044-0.271,0.103-0.552,0.172-0.845
		l2.013-8.638h3.171L162.428,35.123z"/>
	<path fill="#211E20" d="M230.829,35.123h-3.202l0.778-3.366h-2.069l-0.8,3.366h-2.099L223.2,36.17h2.053l-2.321,9.982
		c-0.018,0.066-0.025,0.128-0.039,0.189l2.267,0.006c0-0.19,0.021-0.424,0.066-0.694c0.047-0.271,0.105-0.552,0.172-0.845
		l2.016-8.638h3.173L230.829,35.123z"/>
	<path fill="#211E20" d="M170.487,35.144c-0.16-0.142-0.355-0.247-0.585-0.309c-0.233-0.059-0.469-0.092-0.717-0.092
		c-0.509,0-0.999,0.158-1.473,0.473c-0.472,0.315-1.162,0.866-2.075,1.655h-0.054l0.386-1.677l-0.138-0.171l-1.994,0.137
		l-0.672,2.903l-0.004,0.005c-0.075,0.366-0.129,0.645-0.167,0.828l-1.677,7.451h2.145l1.852-8.235
		c0.426-0.483,0.831-0.87,1.21-1.162c0.377-0.289,0.715-0.51,1.014-0.656c0.295-0.145,0.551-0.246,0.76-0.293
		c0.212-0.05,0.364-0.075,0.456-0.075c-0.124,0.293-0.244,0.585-0.359,0.878c-0.112,0.297-0.169,0.563-0.169,0.799
		c0,0.256,0.105,0.486,0.309,0.693c0.207,0.205,0.518,0.309,0.93,0.309c0.305,0,0.54-0.053,0.706-0.168
		c0.167-0.109,0.318-0.269,0.456-0.476c0.116-0.167,0.203-0.381,0.265-0.637c0.063-0.257,0.092-0.491,0.092-0.707
		c0-0.397-0.041-0.702-0.122-0.911C170.783,35.495,170.659,35.308,170.487,35.144"/>
	<path fill="#211E20" d="M181.094,35.994c-0.77-0.832-1.838-1.25-3.201-1.25c-0.987,0-1.907,0.203-2.755,0.616
		c-0.844,0.41-1.557,0.948-2.128,1.617c-0.569,0.666-1.018,1.44-1.357,2.324c-0.335,0.881-0.501,1.831-0.501,2.852
		c0,1.388,0.393,2.489,1.186,3.312c0.794,0.823,1.827,1.232,3.096,1.232c1.093,0,2.056-0.213,2.888-0.64
		c0.832-0.425,1.544-0.991,2.132-1.698c0.582-0.681,1.027-1.475,1.334-2.379c0.306-0.903,0.46-1.811,0.46-2.715
		C182.248,37.916,181.865,36.825,181.094,35.994 M179.638,41.388c-0.174,0.83-0.429,1.57-0.759,2.214
		c-0.33,0.658-0.759,1.204-1.286,1.632c-0.529,0.432-1.136,0.647-1.814,0.647c-0.766,0-1.339-0.283-1.716-0.847
		c-0.381-0.563-0.57-1.394-0.57-2.49c0-0.691,0.07-1.445,0.217-2.26c0.146-0.817,0.375-1.562,0.691-2.228
		c0.403-0.883,0.889-1.517,1.453-1.907c0.562-0.392,1.162-0.589,1.798-0.589c0.725,0,1.283,0.273,1.672,0.821
		c0.389,0.541,0.578,1.358,0.578,2.448C179.902,39.7,179.815,40.554,179.638,41.388"/>
	<path fill="#211E20" d="M202.968,34.744c-0.987,0-1.902,0.203-2.751,0.616c-0.849,0.41-1.557,0.948-2.132,1.617
		c-0.567,0.666-1.018,1.44-1.356,2.324c-0.34,0.881-0.505,1.831-0.505,2.852c0,1.388,0.395,2.489,1.188,3.312
		c0.796,0.823,1.826,1.232,3.098,1.232c1.096,0,2.059-0.213,2.892-0.64c0.83-0.425,1.543-0.991,2.132-1.698
		c0.582-0.681,1.027-1.475,1.332-2.379c0.305-0.903,0.459-1.811,0.459-2.715c0-1.348-0.385-2.44-1.155-3.271
		C205.402,35.161,204.333,34.744,202.968,34.744 M204.713,41.388c-0.174,0.83-0.425,1.57-0.756,2.214
		c-0.33,0.658-0.757,1.204-1.288,1.632c-0.527,0.432-1.131,0.647-1.814,0.647c-0.764,0-1.336-0.283-1.716-0.847
		c-0.38-0.563-0.57-1.394-0.57-2.49c0-0.691,0.072-1.445,0.217-2.26c0.146-0.817,0.377-1.562,0.689-2.228
		c0.408-0.883,0.893-1.517,1.455-1.907c0.562-0.392,1.166-0.589,1.799-0.589c0.726,0,1.287,0.273,1.672,0.821
		c0.386,0.541,0.58,1.358,0.58,2.448C204.981,39.7,204.891,40.554,204.713,41.388"/>
	<path fill="#211E20" d="M210.614,28.813l-0.165,0.702c0.253,0.031,0.507,0.059,0.751,0.081c0.249,0.025,0.452,0.069,0.614,0.137
		c0.172,0.075,0.301,0.191,0.392,0.341c0.093,0.15,0.14,0.358,0.14,0.637c0,0.136-0.01,0.253-0.031,0.345
		c-0.021,0.093-0.056,0.255-0.109,0.495l-3.293,14.297c-0.035,0.164-0.065,0.345-0.094,0.477l2.192,0.016
		c0-0.182,0.028-0.419,0.09-0.712c0.063-0.289,0.128-0.58,0.195-0.871l3.71-16.023l-0.118-0.173L210.614,28.813z"/>
	<path fill="#211E20" d="M216.333,35.135l-0.16,0.699c0.252,0.031,0.507,0.057,0.752,0.081c0.247,0.021,0.451,0.07,0.614,0.137
		c0.167,0.075,0.299,0.191,0.389,0.339c0.096,0.152,0.141,0.362,0.141,0.64c0,0.138-0.008,0.253-0.03,0.345
		c-0.021,0.093-0.056,0.257-0.111,0.495l-1.937,7.977c-0.036,0.164-0.067,0.345-0.093,0.478l2.185,0.014
		c0-0.181,0.036-0.419,0.098-0.712c0.058-0.289,0.124-0.58,0.195-0.87l2.349-9.707l-0.115-0.172L216.333,35.135z"/>
	<path fill="#211E20" d="M241.33,34.916l-2.112,0.543c-0.278-0.184-0.671-0.35-1.163-0.498c-0.492-0.145-1.012-0.217-1.559-0.217
		c-0.856,0-1.692,0.209-2.499,0.625c-0.815,0.421-1.516,0.969-2.103,1.652c-0.619,0.715-1.109,1.518-1.458,2.418
		c-0.353,0.896-0.526,1.818-0.526,2.771c0,1.381,0.313,2.47,0.941,3.267c0.632,0.796,1.504,1.194,2.61,1.194
		c0.417,0,0.799-0.07,1.15-0.212c0.352-0.143,0.675-0.309,0.973-0.5c0.317-0.189,0.589-0.392,0.823-0.601
		c0.213-0.195,0.392-0.35,0.548-0.481l-0.233,0.924c-0.048,0.189-0.089,0.366-0.118,0.522l2.298-0.019
		c0-0.173,0.031-0.42,0.096-0.739c0.063-0.319,0.132-0.6,0.195-0.844l0.633-2.679l1.641-6.953L241.33,34.916z M235.689,45.022
		c-0.469,0.243-0.923,0.363-1.35,0.363c-0.419,0-0.77-0.08-1.042-0.242c-0.278-0.16-0.487-0.385-0.629-0.677
		c-0.155-0.301-0.258-0.629-0.311-0.987c-0.054-0.366-0.08-0.779-0.08-1.245c0-0.852,0.124-1.694,0.381-2.52
		c0.252-0.828,0.575-1.535,0.974-2.118c0.421-0.623,0.897-1.117,1.427-1.486c0.527-0.366,1.067-0.552,1.632-0.552
		c0.403,0,0.744,0.059,1.012,0.173c0.266,0.115,0.476,0.27,0.631,0.461c0.168,0.198,0.283,0.415,0.333,0.645
		c0.054,0.229,0.08,0.472,0.08,0.724l-1.088,4.58l-0.421,1.648C236.664,44.374,236.147,44.787,235.689,45.022"/>
	<path fill="#211E20" d="M250.661,34.744c-0.779,0-1.476,0.163-2.085,0.49c-0.613,0.322-1.335,0.824-2.175,1.5h-0.034l0.357-1.539
		l-0.14-0.172l-1.999,0.137l-0.671,2.915l-0.014,0.018c-0.075,0.35-0.128,0.619-0.165,0.802l-1.725,7.453h2.148l1.96-8.441
		c0.51-0.584,1.056-1.026,1.632-1.332c0.578-0.31,1.1-0.465,1.561-0.465c0.481,0,0.839,0.153,1.083,0.452
		c0.244,0.297,0.366,0.702,0.366,1.219c0,0.159-0.026,0.375-0.074,0.644c-0.05,0.268-0.119,0.569-0.204,0.897l-1.696,6.503
		c-0.045,0.193-0.088,0.368-0.116,0.525l2.236-0.019c0-0.173,0.03-0.419,0.097-0.74c0.065-0.319,0.132-0.6,0.202-0.846l1.525-5.901
		c0.094-0.349,0.162-0.698,0.204-1.051c0.04-0.351,0.063-0.597,0.063-0.734c0-0.69-0.205-1.247-0.622-1.676
		C251.966,34.956,251.392,34.744,250.661,34.744"/>
	<path fill="#211E20" d="M265.992,35.09l-0.14-0.173l-2.109,0.543c-0.283-0.184-0.671-0.35-1.164-0.498
		c-0.496-0.145-1.017-0.217-1.556-0.217c-0.857,0-1.692,0.209-2.503,0.625c-0.815,0.421-1.516,0.969-2.105,1.652
		c-0.618,0.715-1.102,1.518-1.455,2.418c-0.354,0.896-0.531,1.818-0.531,2.771c0,1.381,0.317,2.47,0.949,3.267
		c0.629,0.796,1.5,1.194,2.612,1.194c0.415,0,0.795-0.07,1.15-0.212c0.348-0.143,0.673-0.309,0.974-0.5
		c0.311-0.189,0.584-0.392,0.819-0.601c0.208-0.191,0.386-0.348,0.545-0.476l-0.235,0.919c-0.047,0.189-0.085,0.366-0.115,0.522
		l2.296-0.019c0-0.173,0.032-0.42,0.096-0.739c0.062-0.319,0.128-0.6,0.199-0.844l0.52-2.207V42.51L265.992,35.09z M260.209,45.022
		c-0.469,0.243-0.92,0.363-1.348,0.363c-0.42,0-0.768-0.08-1.043-0.242c-0.275-0.16-0.486-0.385-0.632-0.677
		c-0.152-0.301-0.255-0.629-0.309-0.987c-0.053-0.366-0.083-0.779-0.083-1.245c0-0.852,0.127-1.694,0.384-2.52
		c0.252-0.828,0.578-1.535,0.974-2.118c0.423-0.623,0.898-1.117,1.427-1.486c0.527-0.366,1.073-0.552,1.631-0.552
		c0.408,0,0.743,0.059,1.013,0.173c0.27,0.115,0.482,0.27,0.632,0.461c0.167,0.198,0.283,0.415,0.335,0.645
		c0.05,0.229,0.081,0.472,0.081,0.724l-1.069,4.488l-0.445,1.742C261.184,44.376,260.667,44.79,260.209,45.022"/>
	<path fill="#211E20" d="M151.842,15.881c-0.591,0-1.118,0.124-1.582,0.368c-0.465,0.249-1.016,0.628-1.654,1.142h-0.03l0.287-1.242
		l-0.106-0.132l-1.521,0.106l-0.523,2.26h0.022l-0.03,0.043c-0.054,0.266-0.097,0.469-0.125,0.609l-1.31,5.667h1.631l1.493-6.419
		c0.385-0.445,0.799-0.783,1.241-1.013c0.438-0.233,0.834-0.351,1.186-0.351c0.363,0,0.636,0.114,0.822,0.341
		c0.185,0.227,0.28,0.535,0.28,0.925c0,0.125-0.022,0.289-0.059,0.491c-0.039,0.204-0.087,0.434-0.155,0.684l-1.283,4.859
		c-0.049,0.182-0.081,0.344-0.106,0.483h1.716c-0.001-0.03-0.001-0.066-0.001-0.098c0-0.132,0.023-0.323,0.072-0.565
		c0.052-0.243,0.102-0.457,0.153-0.644l1.159-4.403c0.07-0.261,0.123-0.527,0.154-0.797c0.032-0.266,0.05-0.455,0.05-0.56
		c0-0.525-0.16-0.946-0.473-1.272C152.838,16.042,152.4,15.881,151.842,15.881"/>
	<path fill="#211E20" d="M157.672,24.947c0.346,0,0.633-0.048,0.868-0.14c0.236-0.093,0.495-0.229,0.775-0.402
		c0.22-0.137,0.434-0.288,0.636-0.469c0.199-0.174,0.363-0.315,0.488-0.426l-0.172,0.735c-0.041,0.183-0.072,0.345-0.092,0.49
		l1.743-0.009c-0.003-0.034-0.005-0.067-0.005-0.101c-0.001-0.137,0.015-0.326,0.061-0.57c0.043-0.245,0.088-0.461,0.132-0.653
		l0.77-3.294h-0.005l2.031-8.798l-0.088-0.129l-3.536,0.189l-0.123,0.535c0.199,0.023,0.42,0.045,0.662,0.059
		c0.247,0.019,0.439,0.056,0.578,0.107c0.153,0.05,0.271,0.133,0.357,0.244c0.08,0.11,0.124,0.271,0.124,0.478
		c0,0.106-0.005,0.203-0.021,0.291c-0.016,0.087-0.04,0.207-0.074,0.366l-0.684,2.97c-0.255-0.15-0.582-0.282-0.98-0.385
		c-0.394-0.103-0.795-0.155-1.198-0.155c-0.667,0-1.309,0.158-1.926,0.476c-0.615,0.318-1.14,0.734-1.577,1.247
		c-0.448,0.53-0.804,1.135-1.062,1.817c-0.257,0.684-0.389,1.393-0.389,2.125c0,1.051,0.24,1.879,0.72,2.489
		C156.165,24.644,156.83,24.947,157.672,24.947 M157.031,19.661c0.174-0.633,0.408-1.173,0.699-1.622
		c0.302-0.469,0.656-0.84,1.052-1.118c0.399-0.28,0.824-0.423,1.276-0.423c0.289,0,0.544,0.048,0.757,0.143
		c0.212,0.1,0.386,0.218,0.517,0.364c0.119,0.128,0.215,0.273,0.291,0.433c0.075,0.162,0.118,0.326,0.128,0.495l-0.508,2.184h-0.004
		l-0.604,2.57c-0.456,0.467-0.871,0.801-1.242,0.99c-0.376,0.194-0.724,0.291-1.044,0.291c-0.336,0-0.609-0.061-0.814-0.19
		c-0.202-0.123-0.362-0.295-0.468-0.51c-0.118-0.234-0.199-0.489-0.238-0.761c-0.041-0.271-0.059-0.589-0.059-0.945
		C156.77,20.927,156.857,20.294,157.031,19.661"/>
	<path fill="#211E20" d="M165.479,24.037c0.482,0.609,1.141,0.911,1.984,0.911c0.315,0,0.605-0.054,0.874-0.162
		c0.268-0.11,0.514-0.235,0.743-0.38c0.237-0.145,0.443-0.301,0.622-0.46c0.178-0.159,0.332-0.292,0.459-0.398h0.025l-0.164,0.698
		c-0.04,0.184-0.071,0.345-0.093,0.49l1.741-0.009c0-0.034-0.001-0.067-0.001-0.101c-0.005-0.137,0.014-0.326,0.059-0.57
		c0.044-0.246,0.089-0.461,0.132-0.653l0.771-3.294h-0.019l0.936-3.97l-0.103-0.131l-1.602,0.412
		c-0.215-0.138-0.514-0.264-0.885-0.376c-0.381-0.109-0.77-0.164-1.185-0.164c-0.65,0-1.286,0.158-1.905,0.476
		c-0.615,0.318-1.149,0.735-1.597,1.255c-0.47,0.541-0.84,1.157-1.109,1.834c-0.265,0.682-0.399,1.384-0.399,2.11
		C164.759,22.602,164.997,23.432,165.479,24.037 M166.845,19.657c0.195-0.631,0.445-1.166,0.747-1.609
		c0.318-0.47,0.678-0.849,1.083-1.127c0.402-0.28,0.815-0.423,1.239-0.423c0.309,0,0.565,0.047,0.769,0.133
		c0.204,0.087,0.364,0.203,0.481,0.349c0.129,0.153,0.212,0.314,0.257,0.49c0.037,0.176,0.057,0.359,0.057,0.552l-1.12,4.705
		c-0.446,0.461-0.848,0.781-1.206,0.967c-0.355,0.184-0.699,0.275-1.025,0.275c-0.323,0-0.584-0.061-0.792-0.182
		c-0.209-0.127-0.367-0.297-0.479-0.518c-0.119-0.229-0.195-0.478-0.235-0.756c-0.04-0.27-0.062-0.584-0.062-0.939
		C166.558,20.925,166.656,20.286,166.845,19.657"/>
	<path fill="#211E20" d="M177.778,24.948c0.757,0,1.482-0.233,2.175-0.698c0.691-0.46,1.233-1.011,1.636-1.646l-0.499-0.366
		c-0.402,0.554-0.823,0.985-1.265,1.285c-0.439,0.304-0.943,0.455-1.507,0.455c-0.633,0-1.132-0.246-1.502-0.731
		c-0.372-0.483-0.557-1.144-0.557-1.968c0-1.34,0.289-2.47,0.862-3.394c0.573-0.923,1.255-1.385,2.047-1.385
		c0.239,0,0.469,0.039,0.69,0.112c0.221,0.071,0.364,0.186,0.43,0.341c-0.079,0.199-0.174,0.457-0.304,0.779
		c-0.124,0.322-0.187,0.575-0.187,0.761c0,0.193,0.079,0.367,0.238,0.523c0.152,0.158,0.392,0.235,0.704,0.235
		c0.38,0,0.663-0.152,0.853-0.454c0.191-0.302,0.287-0.656,0.287-1.057c0-0.535-0.217-0.982-0.654-1.334
		c-0.433-0.352-1.069-0.526-1.9-0.526c-0.752,0-1.432,0.164-2.051,0.495c-0.611,0.326-1.12,0.755-1.521,1.27
		c-0.402,0.518-0.712,1.111-0.938,1.778c-0.226,0.671-0.339,1.366-0.339,2.095c0,1.097,0.3,1.941,0.888,2.537
		C175.956,24.651,176.763,24.948,177.778,24.948"/>
	<path fill="#211E20" d="M193.6,13.714c0.434-0.308,0.787-0.569,1.064-0.779c0.227-0.173,0.394-0.332,0.504-0.476
		c0.114-0.142,0.171-0.331,0.171-0.563c0-0.163-0.07-0.308-0.2-0.435c-0.131-0.129-0.292-0.193-0.483-0.193
		c-0.222,0-0.425,0.048-0.616,0.147c-0.19,0.101-0.388,0.308-0.591,0.619c-0.253,0.39-0.496,0.739-0.719,1.058
		c-0.226,0.319-0.627,0.863-1.202,1.635l0.314,0.279C192.583,14.453,193.168,14.02,193.6,13.714"/>
	<path fill="#211E20" d="M195.548,16.83c-0.585-0.633-1.394-0.95-2.433-0.95c-0.748,0-1.446,0.155-2.09,0.467
		c-0.644,0.311-1.184,0.721-1.622,1.23c-0.433,0.504-0.774,1.093-1.03,1.765c-0.256,0.668-0.385,1.394-0.385,2.167
		c0,1.057,0.302,1.897,0.905,2.519c0.602,0.624,1.387,0.938,2.353,0.938c0.834,0,1.566-0.167,2.201-0.487
		c0.629-0.322,1.17-0.755,1.617-1.29c0.443-0.518,0.779-1.124,1.014-1.809c0.229-0.69,0.346-1.376,0.346-2.065
		C196.424,18.288,196.134,17.461,195.548,16.83 M194.444,20.93c-0.134,0.633-0.327,1.194-0.575,1.684
		c-0.253,0.499-0.58,0.912-0.978,1.242c-0.403,0.326-0.866,0.488-1.381,0.488c-0.583,0-1.018-0.215-1.307-0.642
		c-0.288-0.429-0.432-1.062-0.432-1.895c0-0.523,0.053-1.095,0.167-1.717c0.109-0.62,0.283-1.185,0.523-1.69
		c0.306-0.672,0.676-1.155,1.102-1.454c0.429-0.296,0.885-0.447,1.367-0.447c0.554,0,0.978,0.211,1.272,0.625
		c0.296,0.411,0.442,1.031,0.442,1.86C194.644,19.646,194.577,20.296,194.444,20.93"/>
	<path fill="#211E20" d="M139.412,30.043c-0.031,0.118-0.142,0.38-0.342,0.795c-0.2,0.414-0.419,0.814-0.655,1.204l-6.338,10.266
		L130.3,30.043h-5.704l-0.173,0.759c0.284,0.018,0.598,0.072,0.938,0.163c0.342,0.09,0.613,0.247,0.809,0.47
		c0.101,0.112,0.182,0.255,0.243,0.419c0.061,0.164,0.093,0.37,0.093,0.614c0,0.14-0.01,0.278-0.031,0.421
		c-0.017,0.143-0.05,0.302-0.087,0.474l-1.955,8.459c-0.035,0.152-0.069,0.286-0.103,0.426l-0.452,1.957
		c-0.215,0.967-0.421,1.674-0.628,2.141h1.761c-0.017-0.123-0.03-0.256-0.03-0.404c0-0.236,0.03-0.547,0.094-0.929
		c0.061-0.384,0.136-0.779,0.229-1.184l0.887-3.827h0.003l1.923-8.329h0.119l2.046,14.411h0.545l8.883-14.121h0.133l-2.828,12.145
		c0,0.005-0.001,0.008-0.001,0.013l-0.498,2.119c-0.005,0.039-0.016,0.071-0.026,0.106h2.401c0.005-0.035,0.014-0.07,0.021-0.106
		l1.453-6.238h0.003l1.742-7.485h-0.003l0.575-2.475H139.412z"/>
	<path fill="#211E20" d="M190.962,34.744c-0.592,0-1.181,0.158-1.776,0.473c-0.596,0.315-1.151,0.712-1.671,1.194h-0.014l0.28-1.216
		l-0.137-0.171l-1.997,0.137l-0.653,2.826c-0.003,0.006-0.005,0.012-0.005,0.017l-0.026,0.118h0.003
		c-0.058,0.247-0.107,0.529-0.158,0.771l-2.3,10.142h0.004l-0.49,2.153c-0.021,0.096-0.049,0.18-0.079,0.262h2.228
		c0.001-0.094,0.017-0.22,0.04-0.376c0.028-0.169,0.068-0.35,0.111-0.543l0.332-1.497h0.008c0.01-0.074,0.022-0.14,0.037-0.212
		l0.676-3.011c0.323,0.235,0.7,0.436,1.123,0.594c0.421,0.162,0.961,0.243,1.617,0.243c0.818,0,1.617-0.178,2.395-0.54
		c0.777-0.359,1.496-0.91,2.165-1.655c0.596-0.678,1.074-1.475,1.433-2.393c0.359-0.92,0.54-1.895,0.54-2.922
		c0-1.344-0.323-2.411-0.972-3.205C193.033,35.14,192.126,34.744,190.962,34.744 M191.967,41.744
		c-0.211,0.8-0.512,1.515-0.903,2.144c-0.375,0.609-0.823,1.087-1.353,1.44c-0.529,0.35-1.096,0.53-1.699,0.53
		c-0.591,0-1.095-0.187-1.511-0.569c-0.417-0.381-0.651-0.79-0.704-1.228l1.464-6.521c0.614-0.592,1.133-0.995,1.556-1.21
		c0.426-0.213,0.815-0.322,1.17-0.322c0.476,0,0.856,0.083,1.146,0.248c0.289,0.163,0.522,0.395,0.69,0.695
		c0.162,0.269,0.279,0.605,0.352,1.018c0.074,0.408,0.109,0.819,0.109,1.228C192.282,40.093,192.176,40.943,191.967,41.744"/>
	<path fill="#211E20" d="M220.471,28.93c-0.392,0-0.729,0.159-1.011,0.469c-0.28,0.314-0.425,0.684-0.425,1.105
		c0,0.398,0.145,0.753,0.425,1.064c0.282,0.311,0.619,0.467,1.011,0.467c0.423,0,0.777-0.165,1.058-0.491
		c0.282-0.323,0.424-0.704,0.424-1.141c0-0.394-0.137-0.734-0.412-1.03C221.263,29.078,220.907,28.93,220.471,28.93"/>
	<path fill="#211E20" d="M185.115,24.172c0.046-0.22,0.097-0.443,0.147-0.664l1.792-7.387l-0.093-0.131l-3.248,0.191l-0.124,0.534
		c0.193,0.025,0.38,0.043,0.571,0.062c0.185,0.019,0.341,0.052,0.468,0.103c0.125,0.062,0.226,0.146,0.297,0.26
		c0.07,0.115,0.106,0.278,0.106,0.486c0,0.105-0.01,0.194-0.025,0.264c-0.014,0.07-0.04,0.196-0.081,0.373l-1.477,6.074
		c-0.027,0.129-0.05,0.262-0.071,0.364l1.664,0.014C185.043,24.577,185.069,24.396,185.115,24.172"/>
	<path fill="#211E20" d="M186.863,13.823c0.317,0,0.585-0.124,0.804-0.372c0.215-0.247,0.321-0.54,0.321-0.871
		c0-0.296-0.103-0.558-0.314-0.782c-0.211-0.227-0.479-0.339-0.81-0.339c-0.3,0-0.558,0.12-0.772,0.361
		c-0.217,0.238-0.324,0.52-0.324,0.836c0,0.305,0.107,0.575,0.324,0.813C186.305,13.707,186.563,13.823,186.863,13.823"/>
	<path fill="#211E20" d="M129.199,14.063l-2.458,10.649l1.867-0.01c0.008-0.03,0.012-0.058,0.018-0.088l1.282-5.544h3.914
		l0.249-1.079h-3.92l1.167-5.036h2.123c0.314,0,0.594,0.005,0.835,0.017c0.242,0.012,0.451,0.028,0.633,0.052
		c0.349,0.053,0.645,0.308,0.887,0.764c0.242,0.456,0.375,0.998,0.398,1.621h0.655l0.717-3.102h-9.722l-0.141,0.576
		c0.169,0.018,0.379,0.056,0.628,0.115c0.249,0.054,0.439,0.121,0.57,0.19c0.14,0.071,0.23,0.147,0.275,0.233
		c0.043,0.084,0.066,0.186,0.066,0.302c0,0.057-0.008,0.115-0.015,0.169C129.221,13.948,129.212,14.003,129.199,14.063"/>
	<path fill="#211E20" d="M143.354,21.776l0.204-0.872l0.184-0.796l0.912-3.958l-0.106-0.132l-1.522,0.105l-0.924,3.997l-0.607,2.594
		c-0.392,0.39-0.784,0.681-1.172,0.876c-0.393,0.195-0.774,0.292-1.148,0.292c-0.367,0-0.635-0.114-0.803-0.34
		c-0.167-0.229-0.252-0.535-0.252-0.928c0-0.11,0.019-0.271,0.056-0.486c0.039-0.212,0.089-0.437,0.143-0.685l0.73-3.059
		l0.057-0.251l0.457-1.984l-0.105-0.132l-0.945,0.067l-0.578,0.037c0,0-0.6,2.673-0.658,2.918l-0.678,2.772
		c-0.087,0.377-0.142,0.664-0.165,0.855c-0.023,0.191-0.035,0.357-0.035,0.498c0,0.523,0.153,0.947,0.463,1.27
		c0.31,0.324,0.744,0.486,1.301,0.486c0.367,0,0.666-0.034,0.894-0.09c0.225-0.062,0.478-0.165,0.759-0.302
		c0.24-0.123,0.479-0.275,0.724-0.454c0.247-0.185,0.501-0.379,0.771-0.596h0.003l-0.18,0.766c-0.043,0.184-0.07,0.345-0.093,0.49
		l1.745-0.009c-0.005-0.034-0.005-0.067-0.005-0.101c-0.005-0.137,0.014-0.326,0.059-0.57c0.043-0.246,0.087-0.461,0.134-0.653
		L143.354,21.776z"/>
	<path fill="#211E20" d="M200.461,18.284c0.385-0.446,0.799-0.783,1.237-1.013c0.442-0.233,0.836-0.351,1.189-0.351
		c0.362,0,0.636,0.112,0.823,0.341c0.186,0.226,0.277,0.535,0.277,0.925c0,0.125-0.019,0.288-0.054,0.491
		c-0.044,0.204-0.093,0.433-0.155,0.684l-1.288,4.858c-0.045,0.182-0.081,0.344-0.105,0.485h1.72
		c-0.003-0.031-0.005-0.066-0.005-0.098c0-0.132,0.025-0.323,0.075-0.565c0.05-0.243,0.102-0.457,0.152-0.644l1.159-4.403
		c0.068-0.262,0.12-0.527,0.15-0.797c0.034-0.266,0.05-0.455,0.05-0.56c0-0.526-0.158-0.946-0.468-1.272
		c-0.315-0.322-0.752-0.483-1.309-0.483c-0.588,0-1.117,0.123-1.583,0.367c-0.464,0.251-1.014,0.629-1.65,1.144h-0.031l0.284-1.242
		l-0.102-0.132l-1.525,0.105l-0.525,2.262h0.027l-0.032,0.041c-0.057,0.266-0.097,0.469-0.125,0.61l-1.312,5.667h1.631
		L200.461,18.284z"/>
</g>
<g>
	<path fill="#BC0A32" d="M217.829,16.433c0.281-0.186,0.632-0.335,1.055-0.447c0.423-0.112,0.887-0.168,1.392-0.168
		c0.988,0,1.772,0.169,2.353,0.508s0.87,0.842,0.87,1.511c0,0.414-0.092,0.763-0.275,1.048c-0.183,0.285-0.465,0.529-0.845,0.732
		c-0.333,0.177-0.747,0.336-1.242,0.476c-0.497,0.14-1.075,0.28-1.735,0.418c-0.371,0.078-0.721,0.171-1.051,0.278
		c-0.33,0.108-0.633,0.227-0.909,0.356l-0.026,0.104h5.482l-0.401,1.748h-7.016l0.291-1.295c0.155-0.121,0.329-0.244,0.524-0.369
		c0.194-0.125,0.393-0.246,0.596-0.362c0.28-0.164,0.566-0.314,0.857-0.45s0.547-0.253,0.767-0.353
		c0.557-0.246,0.985-0.451,1.285-0.615c0.3-0.164,0.54-0.338,0.722-0.524c0.211-0.216,0.354-0.438,0.43-0.667
		c0.076-0.229,0.113-0.472,0.113-0.732c0-0.397-0.106-0.697-0.317-0.899c-0.211-0.203-0.497-0.304-0.854-0.304
		c-0.251,0-0.455,0.024-0.612,0.071c-0.157,0.047-0.301,0.097-0.43,0.149c0.061,0.168,0.124,0.352,0.188,0.55
		c0.064,0.199,0.097,0.41,0.097,0.634c0,0.307-0.106,0.56-0.317,0.76c-0.211,0.201-0.488,0.301-0.828,0.301
		c-0.324,0-0.582-0.106-0.774-0.317c-0.192-0.211-0.287-0.468-0.287-0.77c0-0.237,0.076-0.477,0.229-0.718
		C217.312,16.844,217.536,16.626,217.829,16.433z"/>
	<path fill="#BC0A32" d="M231.924,16.698c0.267,0.259,0.468,0.558,0.602,0.896c0.134,0.339,0.2,0.702,0.2,1.091
		c0,0.647-0.133,1.253-0.398,1.819c-0.266,0.565-0.618,1.044-1.058,1.437c-0.458,0.406-0.978,0.72-1.563,0.941
		c-0.584,0.222-1.218,0.333-1.9,0.333c-0.556,0-1.046-0.077-1.469-0.23c-0.423-0.153-0.773-0.357-1.049-0.612
		c-0.276-0.254-0.486-0.552-0.628-0.893c-0.142-0.341-0.214-0.712-0.214-1.113c0-0.599,0.11-1.165,0.33-1.695
		c0.22-0.531,0.548-1.014,0.984-1.45c0.419-0.418,0.936-0.757,1.553-1.016c0.617-0.259,1.302-0.388,2.052-0.388
		c0.582,0,1.086,0.081,1.511,0.243C231.304,16.222,231.652,16.434,231.924,16.698z M229.724,21.146
		c0.216-0.461,0.381-0.962,0.495-1.5c0.114-0.539,0.172-1.101,0.172-1.688c0-0.246-0.021-0.459-0.061-0.64
		c-0.041-0.181-0.11-0.345-0.204-0.491c-0.09-0.142-0.207-0.255-0.349-0.339c-0.143-0.084-0.315-0.126-0.518-0.126
		c-0.345,0-0.671,0.128-0.977,0.385c-0.306,0.257-0.591,0.665-0.854,1.225c-0.211,0.453-0.371,0.948-0.479,1.487
		c-0.108,0.539-0.162,1.071-0.162,1.597c0,0.272,0.019,0.494,0.058,0.666c0.039,0.172,0.106,0.336,0.2,0.491
		c0.086,0.142,0.203,0.256,0.35,0.343c0.147,0.086,0.324,0.129,0.531,0.129c0.363,0,0.699-0.14,1.01-0.42
		S229.508,21.611,229.724,21.146z"/>
	<path fill="#BC0A32" d="M241.19,22.186h-0.052c-0.151,0.129-0.294,0.246-0.43,0.354c-0.136,0.107-0.308,0.214-0.515,0.322
		c-0.181,0.094-0.372,0.172-0.573,0.235c-0.201,0.062-0.422,0.093-0.664,0.093c-0.751,0-1.316-0.221-1.696-0.663
		s-0.57-1.047-0.57-1.814c0-0.591,0.106-1.144,0.318-1.662c0.211-0.517,0.494-0.972,0.848-1.364
		c0.358-0.388,0.777-0.695,1.256-0.921c0.479-0.227,0.984-0.34,1.515-0.34c0.389,0,0.729,0.045,1.02,0.136
		c0.291,0.091,0.53,0.213,0.716,0.369l1.985-0.408l0.091,0.103l-0.953,3.981c-0.035,0.134-0.071,0.301-0.11,0.502
		c-0.039,0.2-0.058,0.353-0.058,0.456c0,0.246,0.056,0.415,0.169,0.508c0.112,0.093,0.306,0.139,0.582,0.139
		c0.121,0,0.267-0.024,0.437-0.071c0.171-0.047,0.291-0.086,0.36-0.117l-0.142,0.582c-0.427,0.169-0.769,0.297-1.026,0.385
		c-0.256,0.088-0.552,0.132-0.889,0.132c-0.444,0-0.799-0.087-1.064-0.262C241.478,22.688,241.293,22.462,241.19,22.186z
		 M241.96,18.081c0-0.095-0.012-0.207-0.039-0.336c-0.026-0.129-0.071-0.239-0.136-0.329c-0.078-0.112-0.179-0.197-0.305-0.256
		c-0.125-0.058-0.281-0.087-0.466-0.087c-0.285,0-0.548,0.102-0.787,0.307s-0.452,0.477-0.638,0.818
		c-0.182,0.336-0.324,0.727-0.428,1.173c-0.103,0.446-0.155,0.902-0.155,1.367c0,0.211,0.016,0.407,0.049,0.588
		s0.085,0.334,0.159,0.459c0.077,0.134,0.182,0.237,0.314,0.31c0.132,0.073,0.298,0.11,0.496,0.11c0.204,0,0.399-0.059,0.587-0.178
		c0.187-0.118,0.361-0.264,0.521-0.436L241.96,18.081z"/>
	<path fill="#BC0A32" d="M253.883,22.005l-0.142,0.582c-0.428,0.169-0.77,0.297-1.025,0.385c-0.255,0.088-0.551,0.132-0.888,0.132
		c-0.514,0-0.915-0.128-1.2-0.385c-0.285-0.257-0.427-0.575-0.427-0.955c0-0.104,0.005-0.236,0.016-0.398
		c0.01-0.162,0.047-0.363,0.107-0.605l0.469-1.722c0.048-0.185,0.084-0.353,0.107-0.502c0.024-0.149,0.036-0.271,0.036-0.366
		c0-0.207-0.05-0.369-0.148-0.486c-0.099-0.116-0.267-0.174-0.504-0.174c-0.146,0-0.355,0.057-0.626,0.171
		c-0.272,0.114-0.575,0.327-0.911,0.638l-1.073,4.673h-2.139l0.92-3.98c0.026-0.121,0.059-0.279,0.1-0.473
		c0.041-0.194,0.061-0.356,0.061-0.485c0-0.246-0.051-0.415-0.152-0.508c-0.102-0.092-0.286-0.139-0.554-0.139
		c-0.138,0-0.28,0.022-0.424,0.065c-0.145,0.043-0.269,0.084-0.372,0.123l0.142-0.582c0.35-0.143,0.684-0.264,1.004-0.366
		c0.319-0.101,0.621-0.152,0.906-0.152c0.51,0,0.89,0.1,1.143,0.301c0.253,0.2,0.42,0.482,0.502,0.845h0.045
		c0.423-0.384,0.859-0.683,1.31-0.897c0.451-0.213,0.931-0.32,1.44-0.32c0.479,0,0.853,0.132,1.122,0.395
		c0.27,0.263,0.405,0.582,0.405,0.958c0,0.099-0.008,0.238-0.023,0.417c-0.016,0.179-0.051,0.37-0.107,0.573l-0.492,1.819
		c-0.044,0.151-0.082,0.324-0.117,0.517c-0.035,0.194-0.052,0.341-0.052,0.44c0,0.251,0.055,0.421,0.166,0.511
		c0.11,0.091,0.303,0.136,0.579,0.136c0.13,0,0.277-0.023,0.441-0.068C253.691,22.079,253.81,22.039,253.883,22.005z M253.094,13.39
		c-0.082,0.185-0.197,0.392-0.343,0.621c-0.147,0.229-0.318,0.44-0.512,0.634c-0.207,0.207-0.418,0.374-0.634,0.502
		c-0.216,0.127-0.455,0.191-0.718,0.191c-0.277,0-0.522-0.042-0.738-0.126c-0.216-0.084-0.397-0.167-0.544-0.249
		c-0.155-0.082-0.32-0.16-0.495-0.233c-0.175-0.073-0.347-0.11-0.514-0.11c-0.225,0-0.406,0.098-0.544,0.294
		s-0.295,0.417-0.472,0.663l-0.459-0.194c0.078-0.16,0.194-0.357,0.35-0.592c0.155-0.235,0.319-0.445,0.492-0.631
		c0.176-0.194,0.379-0.36,0.608-0.498c0.228-0.138,0.462-0.207,0.699-0.207c0.22,0,0.431,0.036,0.634,0.107
		c0.203,0.071,0.399,0.152,0.589,0.243c0.203,0.099,0.376,0.183,0.518,0.253c0.142,0.069,0.306,0.103,0.492,0.103
		c0.177,0,0.318-0.018,0.423-0.055c0.106-0.037,0.191-0.094,0.256-0.172c0.073-0.091,0.14-0.193,0.2-0.307
		c0.06-0.114,0.131-0.245,0.214-0.392L253.094,13.39z"/>
	<path fill="#BC0A32" d="M261.972,19.118c0,0.544-0.103,1.064-0.311,1.56c-0.207,0.496-0.5,0.928-0.88,1.295
		c-0.409,0.393-0.89,0.696-1.44,0.909c-0.55,0.214-1.168,0.321-1.854,0.321c-0.919,0-1.661-0.245-2.227-0.735
		c-0.565-0.49-0.848-1.157-0.848-2.003c0-0.574,0.107-1.107,0.32-1.599c0.214-0.492,0.513-0.921,0.897-1.288
		c0.38-0.358,0.845-0.642,1.398-0.851c0.552-0.209,1.15-0.314,1.793-0.314c0.974,0,1.744,0.238,2.307,0.715
		C261.691,17.605,261.972,18.268,261.972,19.118z M259.694,18.387c0-0.505-0.085-0.876-0.256-1.113
		c-0.17-0.237-0.417-0.356-0.741-0.356c-0.332,0-0.636,0.132-0.912,0.398c-0.277,0.265-0.5,0.655-0.673,1.168
		c-0.152,0.427-0.26,0.89-0.324,1.389c-0.064,0.498-0.097,0.944-0.097,1.336c0,0.522,0.086,0.901,0.259,1.136
		c0.173,0.235,0.423,0.353,0.751,0.353c0.354,0,0.66-0.145,0.918-0.434c0.26-0.289,0.464-0.645,0.615-1.068
		c0.151-0.414,0.265-0.873,0.343-1.375C259.655,19.318,259.694,18.84,259.694,18.387z"/>
	<path fill="#BC0A32" d="M265.128,23.209c-0.543,0-0.993-0.044-1.349-0.133c-0.356-0.088-0.638-0.202-0.845-0.34
		c-0.212-0.138-0.356-0.286-0.434-0.444c-0.078-0.157-0.117-0.305-0.117-0.443c0-0.25,0.093-0.469,0.281-0.657
		c0.188-0.188,0.437-0.281,0.747-0.281c0.259,0,0.476,0.067,0.65,0.2c0.175,0.134,0.32,0.302,0.437,0.505
		c0.108,0.185,0.199,0.39,0.272,0.615c0.074,0.225,0.125,0.39,0.155,0.498c0.488,0,0.856-0.105,1.107-0.314
		c0.25-0.209,0.375-0.495,0.375-0.857c0-0.16-0.038-0.293-0.113-0.401c-0.075-0.108-0.176-0.203-0.301-0.285
		c-0.126-0.078-0.285-0.153-0.479-0.227c-0.194-0.073-0.386-0.143-0.576-0.207c-0.522-0.177-0.936-0.422-1.239-0.735
		c-0.305-0.313-0.457-0.702-0.457-1.168c0-0.276,0.064-0.536,0.191-0.78c0.127-0.244,0.327-0.469,0.599-0.676
		c0.267-0.198,0.606-0.357,1.016-0.476c0.41-0.118,0.889-0.178,1.437-0.178c0.328,0,0.632,0.019,0.912,0.058
		c0.28,0.039,0.542,0.11,0.783,0.214c0.228,0.103,0.406,0.238,0.534,0.404c0.127,0.166,0.191,0.368,0.191,0.605
		c0,0.237-0.089,0.441-0.269,0.612c-0.179,0.171-0.413,0.256-0.702,0.256c-0.25,0-0.458-0.065-0.624-0.195
		c-0.166-0.13-0.301-0.284-0.405-0.461c-0.103-0.182-0.186-0.369-0.246-0.562c-0.061-0.193-0.11-0.354-0.149-0.484
		c-0.302,0.017-0.577,0.127-0.825,0.329c-0.248,0.202-0.372,0.452-0.372,0.752c0,0.181,0.029,0.324,0.087,0.427
		c0.058,0.103,0.138,0.19,0.236,0.259c0.113,0.078,0.254,0.15,0.424,0.217c0.17,0.067,0.383,0.144,0.637,0.23
		c0.587,0.207,1.03,0.455,1.327,0.744c0.298,0.289,0.447,0.671,0.447,1.145c0,0.311-0.072,0.608-0.217,0.893
		s-0.35,0.522-0.618,0.712c-0.298,0.207-0.64,0.364-1.029,0.469C266.222,23.156,265.728,23.209,265.128,23.209z"/>
</g>
</svg>
